G04 #@! TF.GenerationSoftware,KiCad,Pcbnew,8.0.3*
G04 #@! TF.CreationDate,2024-07-17T14:24:22-06:00*
G04 #@! TF.ProjectId,coilSafety,636f696c-5361-4666-9574-792e6b696361,v2*
G04 #@! TF.SameCoordinates,Original*
G04 #@! TF.FileFunction,Legend,Top*
G04 #@! TF.FilePolarity,Positive*
%FSLAX46Y46*%
G04 Gerber Fmt 4.6, Leading zero omitted, Abs format (unit mm)*
G04 Created by KiCad (PCBNEW 8.0.3) date 2024-07-17 14:24:22*
%MOMM*%
%LPD*%
G01*
G04 APERTURE LIST*
G04 Aperture macros list*
%AMRoundRect*
0 Rectangle with rounded corners*
0 $1 Rounding radius*
0 $2 $3 $4 $5 $6 $7 $8 $9 X,Y pos of 4 corners*
0 Add a 4 corners polygon primitive as box body*
4,1,4,$2,$3,$4,$5,$6,$7,$8,$9,$2,$3,0*
0 Add four circle primitives for the rounded corners*
1,1,$1+$1,$2,$3*
1,1,$1+$1,$4,$5*
1,1,$1+$1,$6,$7*
1,1,$1+$1,$8,$9*
0 Add four rect primitives between the rounded corners*
20,1,$1+$1,$2,$3,$4,$5,0*
20,1,$1+$1,$4,$5,$6,$7,0*
20,1,$1+$1,$6,$7,$8,$9,0*
20,1,$1+$1,$8,$9,$2,$3,0*%
G04 Aperture macros list end*
%ADD10C,0.500000*%
%ADD11C,0.300000*%
%ADD12C,0.200000*%
%ADD13C,0.100000*%
%ADD14C,0.150000*%
%ADD15C,0.127000*%
%ADD16C,0.120000*%
%ADD17C,0.152400*%
%ADD18RoundRect,0.102000X-0.975000X-0.975000X0.975000X-0.975000X0.975000X0.975000X-0.975000X0.975000X0*%
%ADD19C,2.154000*%
%ADD20R,3.000000X3.000000*%
%ADD21C,3.000000*%
%ADD22C,4.300000*%
%ADD23RoundRect,0.250000X0.262500X0.450000X-0.262500X0.450000X-0.262500X-0.450000X0.262500X-0.450000X0*%
%ADD24C,2.000000*%
%ADD25R,2.500000X4.500000*%
%ADD26RoundRect,0.102000X0.644000X0.644000X-0.644000X0.644000X-0.644000X-0.644000X0.644000X-0.644000X0*%
%ADD27C,1.492000*%
%ADD28RoundRect,0.102000X-0.644000X0.644000X-0.644000X-0.644000X0.644000X-0.644000X0.644000X0.644000X0*%
%ADD29RoundRect,0.102000X0.975000X-0.975000X0.975000X0.975000X-0.975000X0.975000X-0.975000X-0.975000X0*%
%ADD30R,2.000000X1.200000*%
%ADD31O,2.000000X1.200000*%
%ADD32R,1.803400X1.803400*%
%ADD33C,1.803400*%
%ADD34O,2.454000X4.704000*%
%ADD35RoundRect,0.102000X-1.050000X1.050000X-1.050000X-1.050000X1.050000X-1.050000X1.050000X1.050000X0*%
%ADD36C,2.304000*%
%ADD37RoundRect,0.102000X-0.975000X0.975000X-0.975000X-0.975000X0.975000X-0.975000X0.975000X0.975000X0*%
G04 APERTURE END LIST*
D10*
X142376566Y-77509350D02*
X142376566Y-78937921D01*
X142376566Y-78937921D02*
X142281327Y-79223635D01*
X142281327Y-79223635D02*
X142090851Y-79414112D01*
X142090851Y-79414112D02*
X141805137Y-79509350D01*
X141805137Y-79509350D02*
X141614661Y-79509350D01*
X144186090Y-79509350D02*
X144186090Y-78461731D01*
X144186090Y-78461731D02*
X144090852Y-78271254D01*
X144090852Y-78271254D02*
X143900376Y-78176016D01*
X143900376Y-78176016D02*
X143519423Y-78176016D01*
X143519423Y-78176016D02*
X143328947Y-78271254D01*
X144186090Y-79414112D02*
X143995614Y-79509350D01*
X143995614Y-79509350D02*
X143519423Y-79509350D01*
X143519423Y-79509350D02*
X143328947Y-79414112D01*
X143328947Y-79414112D02*
X143233709Y-79223635D01*
X143233709Y-79223635D02*
X143233709Y-79033159D01*
X143233709Y-79033159D02*
X143328947Y-78842683D01*
X143328947Y-78842683D02*
X143519423Y-78747445D01*
X143519423Y-78747445D02*
X143995614Y-78747445D01*
X143995614Y-78747445D02*
X144186090Y-78652207D01*
X145995614Y-79414112D02*
X145805138Y-79509350D01*
X145805138Y-79509350D02*
X145424185Y-79509350D01*
X145424185Y-79509350D02*
X145233709Y-79414112D01*
X145233709Y-79414112D02*
X145138471Y-79318873D01*
X145138471Y-79318873D02*
X145043233Y-79128397D01*
X145043233Y-79128397D02*
X145043233Y-78556969D01*
X145043233Y-78556969D02*
X145138471Y-78366492D01*
X145138471Y-78366492D02*
X145233709Y-78271254D01*
X145233709Y-78271254D02*
X145424185Y-78176016D01*
X145424185Y-78176016D02*
X145805138Y-78176016D01*
X145805138Y-78176016D02*
X145995614Y-78271254D01*
X146852757Y-79509350D02*
X146852757Y-77509350D01*
X147043233Y-78747445D02*
X147614662Y-79509350D01*
X147614662Y-78176016D02*
X146852757Y-78937921D01*
X148376567Y-79414112D02*
X148567043Y-79509350D01*
X148567043Y-79509350D02*
X148947995Y-79509350D01*
X148947995Y-79509350D02*
X149138472Y-79414112D01*
X149138472Y-79414112D02*
X149233710Y-79223635D01*
X149233710Y-79223635D02*
X149233710Y-79128397D01*
X149233710Y-79128397D02*
X149138472Y-78937921D01*
X149138472Y-78937921D02*
X148947995Y-78842683D01*
X148947995Y-78842683D02*
X148662281Y-78842683D01*
X148662281Y-78842683D02*
X148471805Y-78747445D01*
X148471805Y-78747445D02*
X148376567Y-78556969D01*
X148376567Y-78556969D02*
X148376567Y-78461731D01*
X148376567Y-78461731D02*
X148471805Y-78271254D01*
X148471805Y-78271254D02*
X148662281Y-78176016D01*
X148662281Y-78176016D02*
X148947995Y-78176016D01*
X148947995Y-78176016D02*
X149138472Y-78271254D01*
X150376567Y-79509350D02*
X150186091Y-79414112D01*
X150186091Y-79414112D02*
X150090853Y-79318873D01*
X150090853Y-79318873D02*
X149995615Y-79128397D01*
X149995615Y-79128397D02*
X149995615Y-78556969D01*
X149995615Y-78556969D02*
X150090853Y-78366492D01*
X150090853Y-78366492D02*
X150186091Y-78271254D01*
X150186091Y-78271254D02*
X150376567Y-78176016D01*
X150376567Y-78176016D02*
X150662282Y-78176016D01*
X150662282Y-78176016D02*
X150852758Y-78271254D01*
X150852758Y-78271254D02*
X150947996Y-78366492D01*
X150947996Y-78366492D02*
X151043234Y-78556969D01*
X151043234Y-78556969D02*
X151043234Y-79128397D01*
X151043234Y-79128397D02*
X150947996Y-79318873D01*
X150947996Y-79318873D02*
X150852758Y-79414112D01*
X150852758Y-79414112D02*
X150662282Y-79509350D01*
X150662282Y-79509350D02*
X150376567Y-79509350D01*
X151900377Y-78176016D02*
X151900377Y-79509350D01*
X151900377Y-78366492D02*
X151995615Y-78271254D01*
X151995615Y-78271254D02*
X152186091Y-78176016D01*
X152186091Y-78176016D02*
X152471806Y-78176016D01*
X152471806Y-78176016D02*
X152662282Y-78271254D01*
X152662282Y-78271254D02*
X152757520Y-78461731D01*
X152757520Y-78461731D02*
X152757520Y-79509350D01*
X155233711Y-79509350D02*
X155233711Y-77509350D01*
X155233711Y-77509350D02*
X155900378Y-78937921D01*
X155900378Y-78937921D02*
X156567044Y-77509350D01*
X156567044Y-77509350D02*
X156567044Y-79509350D01*
X158376568Y-79414112D02*
X158186092Y-79509350D01*
X158186092Y-79509350D02*
X157805139Y-79509350D01*
X157805139Y-79509350D02*
X157614663Y-79414112D01*
X157614663Y-79414112D02*
X157519425Y-79318873D01*
X157519425Y-79318873D02*
X157424187Y-79128397D01*
X157424187Y-79128397D02*
X157424187Y-78556969D01*
X157424187Y-78556969D02*
X157519425Y-78366492D01*
X157519425Y-78366492D02*
X157614663Y-78271254D01*
X157614663Y-78271254D02*
X157805139Y-78176016D01*
X157805139Y-78176016D02*
X158186092Y-78176016D01*
X158186092Y-78176016D02*
X158376568Y-78271254D01*
X159233711Y-79509350D02*
X159233711Y-77509350D01*
X159233711Y-77509350D02*
X159709901Y-77509350D01*
X159709901Y-77509350D02*
X159995616Y-77604588D01*
X159995616Y-77604588D02*
X160186092Y-77795064D01*
X160186092Y-77795064D02*
X160281330Y-77985540D01*
X160281330Y-77985540D02*
X160376568Y-78366492D01*
X160376568Y-78366492D02*
X160376568Y-78652207D01*
X160376568Y-78652207D02*
X160281330Y-79033159D01*
X160281330Y-79033159D02*
X160186092Y-79223635D01*
X160186092Y-79223635D02*
X159995616Y-79414112D01*
X159995616Y-79414112D02*
X159709901Y-79509350D01*
X159709901Y-79509350D02*
X159233711Y-79509350D01*
X161519425Y-79509350D02*
X161328949Y-79414112D01*
X161328949Y-79414112D02*
X161233711Y-79318873D01*
X161233711Y-79318873D02*
X161138473Y-79128397D01*
X161138473Y-79128397D02*
X161138473Y-78556969D01*
X161138473Y-78556969D02*
X161233711Y-78366492D01*
X161233711Y-78366492D02*
X161328949Y-78271254D01*
X161328949Y-78271254D02*
X161519425Y-78176016D01*
X161519425Y-78176016D02*
X161805140Y-78176016D01*
X161805140Y-78176016D02*
X161995616Y-78271254D01*
X161995616Y-78271254D02*
X162090854Y-78366492D01*
X162090854Y-78366492D02*
X162186092Y-78556969D01*
X162186092Y-78556969D02*
X162186092Y-79128397D01*
X162186092Y-79128397D02*
X162090854Y-79318873D01*
X162090854Y-79318873D02*
X161995616Y-79414112D01*
X161995616Y-79414112D02*
X161805140Y-79509350D01*
X161805140Y-79509350D02*
X161519425Y-79509350D01*
X162852759Y-78176016D02*
X163233711Y-79509350D01*
X163233711Y-79509350D02*
X163614664Y-78556969D01*
X163614664Y-78556969D02*
X163995616Y-79509350D01*
X163995616Y-79509350D02*
X164376568Y-78176016D01*
X165900378Y-79414112D02*
X165709902Y-79509350D01*
X165709902Y-79509350D02*
X165328949Y-79509350D01*
X165328949Y-79509350D02*
X165138473Y-79414112D01*
X165138473Y-79414112D02*
X165043235Y-79223635D01*
X165043235Y-79223635D02*
X165043235Y-78461731D01*
X165043235Y-78461731D02*
X165138473Y-78271254D01*
X165138473Y-78271254D02*
X165328949Y-78176016D01*
X165328949Y-78176016D02*
X165709902Y-78176016D01*
X165709902Y-78176016D02*
X165900378Y-78271254D01*
X165900378Y-78271254D02*
X165995616Y-78461731D01*
X165995616Y-78461731D02*
X165995616Y-78652207D01*
X165995616Y-78652207D02*
X165043235Y-78842683D01*
X167138473Y-79509350D02*
X166947997Y-79414112D01*
X166947997Y-79414112D02*
X166852759Y-79223635D01*
X166852759Y-79223635D02*
X166852759Y-77509350D01*
X168186092Y-79509350D02*
X167995616Y-79414112D01*
X167995616Y-79414112D02*
X167900378Y-79223635D01*
X167900378Y-79223635D02*
X167900378Y-77509350D01*
X142186089Y-80729238D02*
X142376566Y-80729238D01*
X142376566Y-80729238D02*
X142567042Y-80824476D01*
X142567042Y-80824476D02*
X142662280Y-80919714D01*
X142662280Y-80919714D02*
X142757518Y-81110190D01*
X142757518Y-81110190D02*
X142852756Y-81491142D01*
X142852756Y-81491142D02*
X142852756Y-81967333D01*
X142852756Y-81967333D02*
X142757518Y-82348285D01*
X142757518Y-82348285D02*
X142662280Y-82538761D01*
X142662280Y-82538761D02*
X142567042Y-82634000D01*
X142567042Y-82634000D02*
X142376566Y-82729238D01*
X142376566Y-82729238D02*
X142186089Y-82729238D01*
X142186089Y-82729238D02*
X141995613Y-82634000D01*
X141995613Y-82634000D02*
X141900375Y-82538761D01*
X141900375Y-82538761D02*
X141805137Y-82348285D01*
X141805137Y-82348285D02*
X141709899Y-81967333D01*
X141709899Y-81967333D02*
X141709899Y-81491142D01*
X141709899Y-81491142D02*
X141805137Y-81110190D01*
X141805137Y-81110190D02*
X141900375Y-80919714D01*
X141900375Y-80919714D02*
X141995613Y-80824476D01*
X141995613Y-80824476D02*
X142186089Y-80729238D01*
X143519423Y-80729238D02*
X144852756Y-80729238D01*
X144852756Y-80729238D02*
X143995613Y-82729238D01*
X147043232Y-80634000D02*
X145328947Y-83205428D01*
X147614661Y-80919714D02*
X147709899Y-80824476D01*
X147709899Y-80824476D02*
X147900375Y-80729238D01*
X147900375Y-80729238D02*
X148376566Y-80729238D01*
X148376566Y-80729238D02*
X148567042Y-80824476D01*
X148567042Y-80824476D02*
X148662280Y-80919714D01*
X148662280Y-80919714D02*
X148757518Y-81110190D01*
X148757518Y-81110190D02*
X148757518Y-81300666D01*
X148757518Y-81300666D02*
X148662280Y-81586380D01*
X148662280Y-81586380D02*
X147519423Y-82729238D01*
X147519423Y-82729238D02*
X148757518Y-82729238D01*
X149995613Y-80729238D02*
X150186090Y-80729238D01*
X150186090Y-80729238D02*
X150376566Y-80824476D01*
X150376566Y-80824476D02*
X150471804Y-80919714D01*
X150471804Y-80919714D02*
X150567042Y-81110190D01*
X150567042Y-81110190D02*
X150662280Y-81491142D01*
X150662280Y-81491142D02*
X150662280Y-81967333D01*
X150662280Y-81967333D02*
X150567042Y-82348285D01*
X150567042Y-82348285D02*
X150471804Y-82538761D01*
X150471804Y-82538761D02*
X150376566Y-82634000D01*
X150376566Y-82634000D02*
X150186090Y-82729238D01*
X150186090Y-82729238D02*
X149995613Y-82729238D01*
X149995613Y-82729238D02*
X149805137Y-82634000D01*
X149805137Y-82634000D02*
X149709899Y-82538761D01*
X149709899Y-82538761D02*
X149614661Y-82348285D01*
X149614661Y-82348285D02*
X149519423Y-81967333D01*
X149519423Y-81967333D02*
X149519423Y-81491142D01*
X149519423Y-81491142D02*
X149614661Y-81110190D01*
X149614661Y-81110190D02*
X149709899Y-80919714D01*
X149709899Y-80919714D02*
X149805137Y-80824476D01*
X149805137Y-80824476D02*
X149995613Y-80729238D01*
X151424185Y-80919714D02*
X151519423Y-80824476D01*
X151519423Y-80824476D02*
X151709899Y-80729238D01*
X151709899Y-80729238D02*
X152186090Y-80729238D01*
X152186090Y-80729238D02*
X152376566Y-80824476D01*
X152376566Y-80824476D02*
X152471804Y-80919714D01*
X152471804Y-80919714D02*
X152567042Y-81110190D01*
X152567042Y-81110190D02*
X152567042Y-81300666D01*
X152567042Y-81300666D02*
X152471804Y-81586380D01*
X152471804Y-81586380D02*
X151328947Y-82729238D01*
X151328947Y-82729238D02*
X152567042Y-82729238D01*
X154281328Y-81395904D02*
X154281328Y-82729238D01*
X153805137Y-80634000D02*
X153328947Y-82062571D01*
X153328947Y-82062571D02*
X154567042Y-82062571D01*
D11*
X189800828Y-117445489D02*
X188300828Y-117445489D01*
X188300828Y-117445489D02*
X189372257Y-116945489D01*
X189372257Y-116945489D02*
X188300828Y-116445489D01*
X188300828Y-116445489D02*
X189800828Y-116445489D01*
X189800828Y-115516917D02*
X189729400Y-115659774D01*
X189729400Y-115659774D02*
X189657971Y-115731203D01*
X189657971Y-115731203D02*
X189515114Y-115802631D01*
X189515114Y-115802631D02*
X189086542Y-115802631D01*
X189086542Y-115802631D02*
X188943685Y-115731203D01*
X188943685Y-115731203D02*
X188872257Y-115659774D01*
X188872257Y-115659774D02*
X188800828Y-115516917D01*
X188800828Y-115516917D02*
X188800828Y-115302631D01*
X188800828Y-115302631D02*
X188872257Y-115159774D01*
X188872257Y-115159774D02*
X188943685Y-115088346D01*
X188943685Y-115088346D02*
X189086542Y-115016917D01*
X189086542Y-115016917D02*
X189515114Y-115016917D01*
X189515114Y-115016917D02*
X189657971Y-115088346D01*
X189657971Y-115088346D02*
X189729400Y-115159774D01*
X189729400Y-115159774D02*
X189800828Y-115302631D01*
X189800828Y-115302631D02*
X189800828Y-115516917D01*
X189800828Y-114374060D02*
X188800828Y-114374060D01*
X188300828Y-114374060D02*
X188372257Y-114445488D01*
X188372257Y-114445488D02*
X188443685Y-114374060D01*
X188443685Y-114374060D02*
X188372257Y-114302631D01*
X188372257Y-114302631D02*
X188300828Y-114374060D01*
X188300828Y-114374060D02*
X188443685Y-114374060D01*
X189729400Y-113731202D02*
X189800828Y-113588345D01*
X189800828Y-113588345D02*
X189800828Y-113302631D01*
X189800828Y-113302631D02*
X189729400Y-113159774D01*
X189729400Y-113159774D02*
X189586542Y-113088345D01*
X189586542Y-113088345D02*
X189515114Y-113088345D01*
X189515114Y-113088345D02*
X189372257Y-113159774D01*
X189372257Y-113159774D02*
X189300828Y-113302631D01*
X189300828Y-113302631D02*
X189300828Y-113516917D01*
X189300828Y-113516917D02*
X189229400Y-113659774D01*
X189229400Y-113659774D02*
X189086542Y-113731202D01*
X189086542Y-113731202D02*
X189015114Y-113731202D01*
X189015114Y-113731202D02*
X188872257Y-113659774D01*
X188872257Y-113659774D02*
X188800828Y-113516917D01*
X188800828Y-113516917D02*
X188800828Y-113302631D01*
X188800828Y-113302631D02*
X188872257Y-113159774D01*
X188800828Y-112659773D02*
X188800828Y-112088345D01*
X188300828Y-112445488D02*
X189586542Y-112445488D01*
X189586542Y-112445488D02*
X189729400Y-112374059D01*
X189729400Y-112374059D02*
X189800828Y-112231202D01*
X189800828Y-112231202D02*
X189800828Y-112088345D01*
X188800828Y-110945488D02*
X189800828Y-110945488D01*
X188800828Y-111588345D02*
X189586542Y-111588345D01*
X189586542Y-111588345D02*
X189729400Y-111516916D01*
X189729400Y-111516916D02*
X189800828Y-111374059D01*
X189800828Y-111374059D02*
X189800828Y-111159773D01*
X189800828Y-111159773D02*
X189729400Y-111016916D01*
X189729400Y-111016916D02*
X189657971Y-110945488D01*
X189800828Y-110231202D02*
X188800828Y-110231202D01*
X189086542Y-110231202D02*
X188943685Y-110159773D01*
X188943685Y-110159773D02*
X188872257Y-110088345D01*
X188872257Y-110088345D02*
X188800828Y-109945487D01*
X188800828Y-109945487D02*
X188800828Y-109802630D01*
X189729400Y-108731202D02*
X189800828Y-108874059D01*
X189800828Y-108874059D02*
X189800828Y-109159774D01*
X189800828Y-109159774D02*
X189729400Y-109302631D01*
X189729400Y-109302631D02*
X189586542Y-109374059D01*
X189586542Y-109374059D02*
X189015114Y-109374059D01*
X189015114Y-109374059D02*
X188872257Y-109302631D01*
X188872257Y-109302631D02*
X188800828Y-109159774D01*
X188800828Y-109159774D02*
X188800828Y-108874059D01*
X188800828Y-108874059D02*
X188872257Y-108731202D01*
X188872257Y-108731202D02*
X189015114Y-108659774D01*
X189015114Y-108659774D02*
X189157971Y-108659774D01*
X189157971Y-108659774D02*
X189300828Y-109374059D01*
X189729400Y-106945488D02*
X189800828Y-106731203D01*
X189800828Y-106731203D02*
X189800828Y-106374060D01*
X189800828Y-106374060D02*
X189729400Y-106231203D01*
X189729400Y-106231203D02*
X189657971Y-106159774D01*
X189657971Y-106159774D02*
X189515114Y-106088345D01*
X189515114Y-106088345D02*
X189372257Y-106088345D01*
X189372257Y-106088345D02*
X189229400Y-106159774D01*
X189229400Y-106159774D02*
X189157971Y-106231203D01*
X189157971Y-106231203D02*
X189086542Y-106374060D01*
X189086542Y-106374060D02*
X189015114Y-106659774D01*
X189015114Y-106659774D02*
X188943685Y-106802631D01*
X188943685Y-106802631D02*
X188872257Y-106874060D01*
X188872257Y-106874060D02*
X188729400Y-106945488D01*
X188729400Y-106945488D02*
X188586542Y-106945488D01*
X188586542Y-106945488D02*
X188443685Y-106874060D01*
X188443685Y-106874060D02*
X188372257Y-106802631D01*
X188372257Y-106802631D02*
X188300828Y-106659774D01*
X188300828Y-106659774D02*
X188300828Y-106302631D01*
X188300828Y-106302631D02*
X188372257Y-106088345D01*
X189729400Y-104874060D02*
X189800828Y-105016917D01*
X189800828Y-105016917D02*
X189800828Y-105302632D01*
X189800828Y-105302632D02*
X189729400Y-105445489D01*
X189729400Y-105445489D02*
X189586542Y-105516917D01*
X189586542Y-105516917D02*
X189015114Y-105516917D01*
X189015114Y-105516917D02*
X188872257Y-105445489D01*
X188872257Y-105445489D02*
X188800828Y-105302632D01*
X188800828Y-105302632D02*
X188800828Y-105016917D01*
X188800828Y-105016917D02*
X188872257Y-104874060D01*
X188872257Y-104874060D02*
X189015114Y-104802632D01*
X189015114Y-104802632D02*
X189157971Y-104802632D01*
X189157971Y-104802632D02*
X189300828Y-105516917D01*
X188800828Y-104159775D02*
X189800828Y-104159775D01*
X188943685Y-104159775D02*
X188872257Y-104088346D01*
X188872257Y-104088346D02*
X188800828Y-103945489D01*
X188800828Y-103945489D02*
X188800828Y-103731203D01*
X188800828Y-103731203D02*
X188872257Y-103588346D01*
X188872257Y-103588346D02*
X189015114Y-103516918D01*
X189015114Y-103516918D02*
X189800828Y-103516918D01*
X189729400Y-102874060D02*
X189800828Y-102731203D01*
X189800828Y-102731203D02*
X189800828Y-102445489D01*
X189800828Y-102445489D02*
X189729400Y-102302632D01*
X189729400Y-102302632D02*
X189586542Y-102231203D01*
X189586542Y-102231203D02*
X189515114Y-102231203D01*
X189515114Y-102231203D02*
X189372257Y-102302632D01*
X189372257Y-102302632D02*
X189300828Y-102445489D01*
X189300828Y-102445489D02*
X189300828Y-102659775D01*
X189300828Y-102659775D02*
X189229400Y-102802632D01*
X189229400Y-102802632D02*
X189086542Y-102874060D01*
X189086542Y-102874060D02*
X189015114Y-102874060D01*
X189015114Y-102874060D02*
X188872257Y-102802632D01*
X188872257Y-102802632D02*
X188800828Y-102659775D01*
X188800828Y-102659775D02*
X188800828Y-102445489D01*
X188800828Y-102445489D02*
X188872257Y-102302632D01*
X189800828Y-101374060D02*
X189729400Y-101516917D01*
X189729400Y-101516917D02*
X189657971Y-101588346D01*
X189657971Y-101588346D02*
X189515114Y-101659774D01*
X189515114Y-101659774D02*
X189086542Y-101659774D01*
X189086542Y-101659774D02*
X188943685Y-101588346D01*
X188943685Y-101588346D02*
X188872257Y-101516917D01*
X188872257Y-101516917D02*
X188800828Y-101374060D01*
X188800828Y-101374060D02*
X188800828Y-101159774D01*
X188800828Y-101159774D02*
X188872257Y-101016917D01*
X188872257Y-101016917D02*
X188943685Y-100945489D01*
X188943685Y-100945489D02*
X189086542Y-100874060D01*
X189086542Y-100874060D02*
X189515114Y-100874060D01*
X189515114Y-100874060D02*
X189657971Y-100945489D01*
X189657971Y-100945489D02*
X189729400Y-101016917D01*
X189729400Y-101016917D02*
X189800828Y-101159774D01*
X189800828Y-101159774D02*
X189800828Y-101374060D01*
X189800828Y-100231203D02*
X188800828Y-100231203D01*
X189086542Y-100231203D02*
X188943685Y-100159774D01*
X188943685Y-100159774D02*
X188872257Y-100088346D01*
X188872257Y-100088346D02*
X188800828Y-99945488D01*
X188800828Y-99945488D02*
X188800828Y-99802631D01*
X113300828Y-115659774D02*
X113300828Y-114802632D01*
X114800828Y-115231203D02*
X113300828Y-115231203D01*
X114800828Y-114302632D02*
X113300828Y-114302632D01*
X114800828Y-113659775D02*
X114015114Y-113659775D01*
X114015114Y-113659775D02*
X113872257Y-113731203D01*
X113872257Y-113731203D02*
X113800828Y-113874060D01*
X113800828Y-113874060D02*
X113800828Y-114088346D01*
X113800828Y-114088346D02*
X113872257Y-114231203D01*
X113872257Y-114231203D02*
X113943685Y-114302632D01*
X114729400Y-112374060D02*
X114800828Y-112516917D01*
X114800828Y-112516917D02*
X114800828Y-112802632D01*
X114800828Y-112802632D02*
X114729400Y-112945489D01*
X114729400Y-112945489D02*
X114586542Y-113016917D01*
X114586542Y-113016917D02*
X114015114Y-113016917D01*
X114015114Y-113016917D02*
X113872257Y-112945489D01*
X113872257Y-112945489D02*
X113800828Y-112802632D01*
X113800828Y-112802632D02*
X113800828Y-112516917D01*
X113800828Y-112516917D02*
X113872257Y-112374060D01*
X113872257Y-112374060D02*
X114015114Y-112302632D01*
X114015114Y-112302632D02*
X114157971Y-112302632D01*
X114157971Y-112302632D02*
X114300828Y-113016917D01*
X114800828Y-111659775D02*
X113800828Y-111659775D01*
X114086542Y-111659775D02*
X113943685Y-111588346D01*
X113943685Y-111588346D02*
X113872257Y-111516918D01*
X113872257Y-111516918D02*
X113800828Y-111374060D01*
X113800828Y-111374060D02*
X113800828Y-111231203D01*
X114800828Y-110731204D02*
X113800828Y-110731204D01*
X113943685Y-110731204D02*
X113872257Y-110659775D01*
X113872257Y-110659775D02*
X113800828Y-110516918D01*
X113800828Y-110516918D02*
X113800828Y-110302632D01*
X113800828Y-110302632D02*
X113872257Y-110159775D01*
X113872257Y-110159775D02*
X114015114Y-110088347D01*
X114015114Y-110088347D02*
X114800828Y-110088347D01*
X114015114Y-110088347D02*
X113872257Y-110016918D01*
X113872257Y-110016918D02*
X113800828Y-109874061D01*
X113800828Y-109874061D02*
X113800828Y-109659775D01*
X113800828Y-109659775D02*
X113872257Y-109516918D01*
X113872257Y-109516918D02*
X114015114Y-109445489D01*
X114015114Y-109445489D02*
X114800828Y-109445489D01*
X114800828Y-108731204D02*
X113800828Y-108731204D01*
X113300828Y-108731204D02*
X113372257Y-108802632D01*
X113372257Y-108802632D02*
X113443685Y-108731204D01*
X113443685Y-108731204D02*
X113372257Y-108659775D01*
X113372257Y-108659775D02*
X113300828Y-108731204D01*
X113300828Y-108731204D02*
X113443685Y-108731204D01*
X114729400Y-108088346D02*
X114800828Y-107945489D01*
X114800828Y-107945489D02*
X114800828Y-107659775D01*
X114800828Y-107659775D02*
X114729400Y-107516918D01*
X114729400Y-107516918D02*
X114586542Y-107445489D01*
X114586542Y-107445489D02*
X114515114Y-107445489D01*
X114515114Y-107445489D02*
X114372257Y-107516918D01*
X114372257Y-107516918D02*
X114300828Y-107659775D01*
X114300828Y-107659775D02*
X114300828Y-107874061D01*
X114300828Y-107874061D02*
X114229400Y-108016918D01*
X114229400Y-108016918D02*
X114086542Y-108088346D01*
X114086542Y-108088346D02*
X114015114Y-108088346D01*
X114015114Y-108088346D02*
X113872257Y-108016918D01*
X113872257Y-108016918D02*
X113800828Y-107874061D01*
X113800828Y-107874061D02*
X113800828Y-107659775D01*
X113800828Y-107659775D02*
X113872257Y-107516918D01*
X113800828Y-107016917D02*
X113800828Y-106445489D01*
X113300828Y-106802632D02*
X114586542Y-106802632D01*
X114586542Y-106802632D02*
X114729400Y-106731203D01*
X114729400Y-106731203D02*
X114800828Y-106588346D01*
X114800828Y-106588346D02*
X114800828Y-106445489D01*
X114800828Y-105731203D02*
X114729400Y-105874060D01*
X114729400Y-105874060D02*
X114657971Y-105945489D01*
X114657971Y-105945489D02*
X114515114Y-106016917D01*
X114515114Y-106016917D02*
X114086542Y-106016917D01*
X114086542Y-106016917D02*
X113943685Y-105945489D01*
X113943685Y-105945489D02*
X113872257Y-105874060D01*
X113872257Y-105874060D02*
X113800828Y-105731203D01*
X113800828Y-105731203D02*
X113800828Y-105516917D01*
X113800828Y-105516917D02*
X113872257Y-105374060D01*
X113872257Y-105374060D02*
X113943685Y-105302632D01*
X113943685Y-105302632D02*
X114086542Y-105231203D01*
X114086542Y-105231203D02*
X114515114Y-105231203D01*
X114515114Y-105231203D02*
X114657971Y-105302632D01*
X114657971Y-105302632D02*
X114729400Y-105374060D01*
X114729400Y-105374060D02*
X114800828Y-105516917D01*
X114800828Y-105516917D02*
X114800828Y-105731203D01*
X114800828Y-104588346D02*
X113800828Y-104588346D01*
X114086542Y-104588346D02*
X113943685Y-104516917D01*
X113943685Y-104516917D02*
X113872257Y-104445489D01*
X113872257Y-104445489D02*
X113800828Y-104302631D01*
X113800828Y-104302631D02*
X113800828Y-104159774D01*
D10*
X112805137Y-87729238D02*
X112805137Y-85729238D01*
X112805137Y-85729238D02*
X113471804Y-87157809D01*
X113471804Y-87157809D02*
X114138470Y-85729238D01*
X114138470Y-85729238D02*
X114138470Y-87729238D01*
X115947994Y-87729238D02*
X115947994Y-86681619D01*
X115947994Y-86681619D02*
X115852756Y-86491142D01*
X115852756Y-86491142D02*
X115662280Y-86395904D01*
X115662280Y-86395904D02*
X115281327Y-86395904D01*
X115281327Y-86395904D02*
X115090851Y-86491142D01*
X115947994Y-87634000D02*
X115757518Y-87729238D01*
X115757518Y-87729238D02*
X115281327Y-87729238D01*
X115281327Y-87729238D02*
X115090851Y-87634000D01*
X115090851Y-87634000D02*
X114995613Y-87443523D01*
X114995613Y-87443523D02*
X114995613Y-87253047D01*
X114995613Y-87253047D02*
X115090851Y-87062571D01*
X115090851Y-87062571D02*
X115281327Y-86967333D01*
X115281327Y-86967333D02*
X115757518Y-86967333D01*
X115757518Y-86967333D02*
X115947994Y-86872095D01*
X116709899Y-87729238D02*
X117757518Y-86395904D01*
X116709899Y-86395904D02*
X117757518Y-87729238D01*
X121186090Y-87538761D02*
X121090852Y-87634000D01*
X121090852Y-87634000D02*
X120805138Y-87729238D01*
X120805138Y-87729238D02*
X120614662Y-87729238D01*
X120614662Y-87729238D02*
X120328947Y-87634000D01*
X120328947Y-87634000D02*
X120138471Y-87443523D01*
X120138471Y-87443523D02*
X120043233Y-87253047D01*
X120043233Y-87253047D02*
X119947995Y-86872095D01*
X119947995Y-86872095D02*
X119947995Y-86586380D01*
X119947995Y-86586380D02*
X120043233Y-86205428D01*
X120043233Y-86205428D02*
X120138471Y-86014952D01*
X120138471Y-86014952D02*
X120328947Y-85824476D01*
X120328947Y-85824476D02*
X120614662Y-85729238D01*
X120614662Y-85729238D02*
X120805138Y-85729238D01*
X120805138Y-85729238D02*
X121090852Y-85824476D01*
X121090852Y-85824476D02*
X121186090Y-85919714D01*
X122328947Y-87729238D02*
X122138471Y-87634000D01*
X122138471Y-87634000D02*
X122043233Y-87538761D01*
X122043233Y-87538761D02*
X121947995Y-87348285D01*
X121947995Y-87348285D02*
X121947995Y-86776857D01*
X121947995Y-86776857D02*
X122043233Y-86586380D01*
X122043233Y-86586380D02*
X122138471Y-86491142D01*
X122138471Y-86491142D02*
X122328947Y-86395904D01*
X122328947Y-86395904D02*
X122614662Y-86395904D01*
X122614662Y-86395904D02*
X122805138Y-86491142D01*
X122805138Y-86491142D02*
X122900376Y-86586380D01*
X122900376Y-86586380D02*
X122995614Y-86776857D01*
X122995614Y-86776857D02*
X122995614Y-87348285D01*
X122995614Y-87348285D02*
X122900376Y-87538761D01*
X122900376Y-87538761D02*
X122805138Y-87634000D01*
X122805138Y-87634000D02*
X122614662Y-87729238D01*
X122614662Y-87729238D02*
X122328947Y-87729238D01*
X123852757Y-87729238D02*
X123852757Y-86395904D01*
X123852757Y-85729238D02*
X123757519Y-85824476D01*
X123757519Y-85824476D02*
X123852757Y-85919714D01*
X123852757Y-85919714D02*
X123947995Y-85824476D01*
X123947995Y-85824476D02*
X123852757Y-85729238D01*
X123852757Y-85729238D02*
X123852757Y-85919714D01*
X125090852Y-87729238D02*
X124900376Y-87634000D01*
X124900376Y-87634000D02*
X124805138Y-87443523D01*
X124805138Y-87443523D02*
X124805138Y-85729238D01*
X127376567Y-87729238D02*
X127376567Y-85729238D01*
X128328948Y-86395904D02*
X128328948Y-87729238D01*
X128328948Y-86586380D02*
X128424186Y-86491142D01*
X128424186Y-86491142D02*
X128614662Y-86395904D01*
X128614662Y-86395904D02*
X128900377Y-86395904D01*
X128900377Y-86395904D02*
X129090853Y-86491142D01*
X129090853Y-86491142D02*
X129186091Y-86681619D01*
X129186091Y-86681619D02*
X129186091Y-87729238D01*
X130138472Y-86395904D02*
X130138472Y-88395904D01*
X130138472Y-86491142D02*
X130328948Y-86395904D01*
X130328948Y-86395904D02*
X130709901Y-86395904D01*
X130709901Y-86395904D02*
X130900377Y-86491142D01*
X130900377Y-86491142D02*
X130995615Y-86586380D01*
X130995615Y-86586380D02*
X131090853Y-86776857D01*
X131090853Y-86776857D02*
X131090853Y-87348285D01*
X131090853Y-87348285D02*
X130995615Y-87538761D01*
X130995615Y-87538761D02*
X130900377Y-87634000D01*
X130900377Y-87634000D02*
X130709901Y-87729238D01*
X130709901Y-87729238D02*
X130328948Y-87729238D01*
X130328948Y-87729238D02*
X130138472Y-87634000D01*
X132805139Y-86395904D02*
X132805139Y-87729238D01*
X131947996Y-86395904D02*
X131947996Y-87443523D01*
X131947996Y-87443523D02*
X132043234Y-87634000D01*
X132043234Y-87634000D02*
X132233710Y-87729238D01*
X132233710Y-87729238D02*
X132519425Y-87729238D01*
X132519425Y-87729238D02*
X132709901Y-87634000D01*
X132709901Y-87634000D02*
X132805139Y-87538761D01*
X133471806Y-86395904D02*
X134233710Y-86395904D01*
X133757520Y-85729238D02*
X133757520Y-87443523D01*
X133757520Y-87443523D02*
X133852758Y-87634000D01*
X133852758Y-87634000D02*
X134043234Y-87729238D01*
X134043234Y-87729238D02*
X134233710Y-87729238D01*
X134900377Y-87538761D02*
X134995615Y-87634000D01*
X134995615Y-87634000D02*
X134900377Y-87729238D01*
X134900377Y-87729238D02*
X134805139Y-87634000D01*
X134805139Y-87634000D02*
X134900377Y-87538761D01*
X134900377Y-87538761D02*
X134900377Y-87729238D01*
X134900377Y-86491142D02*
X134995615Y-86586380D01*
X134995615Y-86586380D02*
X134900377Y-86681619D01*
X134900377Y-86681619D02*
X134805139Y-86586380D01*
X134805139Y-86586380D02*
X134900377Y-86491142D01*
X134900377Y-86491142D02*
X134900377Y-86681619D01*
X138328949Y-85729238D02*
X137376568Y-85729238D01*
X137376568Y-85729238D02*
X137281330Y-86681619D01*
X137281330Y-86681619D02*
X137376568Y-86586380D01*
X137376568Y-86586380D02*
X137567044Y-86491142D01*
X137567044Y-86491142D02*
X138043235Y-86491142D01*
X138043235Y-86491142D02*
X138233711Y-86586380D01*
X138233711Y-86586380D02*
X138328949Y-86681619D01*
X138328949Y-86681619D02*
X138424187Y-86872095D01*
X138424187Y-86872095D02*
X138424187Y-87348285D01*
X138424187Y-87348285D02*
X138328949Y-87538761D01*
X138328949Y-87538761D02*
X138233711Y-87634000D01*
X138233711Y-87634000D02*
X138043235Y-87729238D01*
X138043235Y-87729238D02*
X137567044Y-87729238D01*
X137567044Y-87729238D02*
X137376568Y-87634000D01*
X137376568Y-87634000D02*
X137281330Y-87538761D01*
X139186092Y-87157809D02*
X140138473Y-87157809D01*
X138995616Y-87729238D02*
X139662282Y-85729238D01*
X139662282Y-85729238D02*
X140328949Y-87729238D01*
X143376569Y-85729238D02*
X142995616Y-85729238D01*
X142995616Y-85729238D02*
X142805140Y-85824476D01*
X142805140Y-85824476D02*
X142709902Y-85919714D01*
X142709902Y-85919714D02*
X142519426Y-86205428D01*
X142519426Y-86205428D02*
X142424188Y-86586380D01*
X142424188Y-86586380D02*
X142424188Y-87348285D01*
X142424188Y-87348285D02*
X142519426Y-87538761D01*
X142519426Y-87538761D02*
X142614664Y-87634000D01*
X142614664Y-87634000D02*
X142805140Y-87729238D01*
X142805140Y-87729238D02*
X143186093Y-87729238D01*
X143186093Y-87729238D02*
X143376569Y-87634000D01*
X143376569Y-87634000D02*
X143471807Y-87538761D01*
X143471807Y-87538761D02*
X143567045Y-87348285D01*
X143567045Y-87348285D02*
X143567045Y-86872095D01*
X143567045Y-86872095D02*
X143471807Y-86681619D01*
X143471807Y-86681619D02*
X143376569Y-86586380D01*
X143376569Y-86586380D02*
X143186093Y-86491142D01*
X143186093Y-86491142D02*
X142805140Y-86491142D01*
X142805140Y-86491142D02*
X142614664Y-86586380D01*
X142614664Y-86586380D02*
X142519426Y-86681619D01*
X142519426Y-86681619D02*
X142424188Y-86872095D01*
X145376569Y-85729238D02*
X144424188Y-85729238D01*
X144424188Y-85729238D02*
X144328950Y-86681619D01*
X144328950Y-86681619D02*
X144424188Y-86586380D01*
X144424188Y-86586380D02*
X144614664Y-86491142D01*
X144614664Y-86491142D02*
X145090855Y-86491142D01*
X145090855Y-86491142D02*
X145281331Y-86586380D01*
X145281331Y-86586380D02*
X145376569Y-86681619D01*
X145376569Y-86681619D02*
X145471807Y-86872095D01*
X145471807Y-86872095D02*
X145471807Y-87348285D01*
X145471807Y-87348285D02*
X145376569Y-87538761D01*
X145376569Y-87538761D02*
X145281331Y-87634000D01*
X145281331Y-87634000D02*
X145090855Y-87729238D01*
X145090855Y-87729238D02*
X144614664Y-87729238D01*
X144614664Y-87729238D02*
X144424188Y-87634000D01*
X144424188Y-87634000D02*
X144328950Y-87538761D01*
X146138474Y-86395904D02*
X146614664Y-87729238D01*
X146614664Y-87729238D02*
X147090855Y-86395904D01*
D11*
X114554510Y-137800828D02*
X114554510Y-136300828D01*
X114554510Y-136300828D02*
X115125939Y-136300828D01*
X115125939Y-136300828D02*
X115268796Y-136372257D01*
X115268796Y-136372257D02*
X115340225Y-136443685D01*
X115340225Y-136443685D02*
X115411653Y-136586542D01*
X115411653Y-136586542D02*
X115411653Y-136800828D01*
X115411653Y-136800828D02*
X115340225Y-136943685D01*
X115340225Y-136943685D02*
X115268796Y-137015114D01*
X115268796Y-137015114D02*
X115125939Y-137086542D01*
X115125939Y-137086542D02*
X114554510Y-137086542D01*
X116697368Y-136800828D02*
X116697368Y-137800828D01*
X116054510Y-136800828D02*
X116054510Y-137586542D01*
X116054510Y-137586542D02*
X116125939Y-137729400D01*
X116125939Y-137729400D02*
X116268796Y-137800828D01*
X116268796Y-137800828D02*
X116483082Y-137800828D01*
X116483082Y-137800828D02*
X116625939Y-137729400D01*
X116625939Y-137729400D02*
X116697368Y-137657971D01*
X117411653Y-137800828D02*
X117411653Y-136800828D01*
X117411653Y-136943685D02*
X117483082Y-136872257D01*
X117483082Y-136872257D02*
X117625939Y-136800828D01*
X117625939Y-136800828D02*
X117840225Y-136800828D01*
X117840225Y-136800828D02*
X117983082Y-136872257D01*
X117983082Y-136872257D02*
X118054511Y-137015114D01*
X118054511Y-137015114D02*
X118054511Y-137800828D01*
X118054511Y-137015114D02*
X118125939Y-136872257D01*
X118125939Y-136872257D02*
X118268796Y-136800828D01*
X118268796Y-136800828D02*
X118483082Y-136800828D01*
X118483082Y-136800828D02*
X118625939Y-136872257D01*
X118625939Y-136872257D02*
X118697368Y-137015114D01*
X118697368Y-137015114D02*
X118697368Y-137800828D01*
X119411653Y-136800828D02*
X119411653Y-138300828D01*
X119411653Y-136872257D02*
X119554511Y-136800828D01*
X119554511Y-136800828D02*
X119840225Y-136800828D01*
X119840225Y-136800828D02*
X119983082Y-136872257D01*
X119983082Y-136872257D02*
X120054511Y-136943685D01*
X120054511Y-136943685D02*
X120125939Y-137086542D01*
X120125939Y-137086542D02*
X120125939Y-137515114D01*
X120125939Y-137515114D02*
X120054511Y-137657971D01*
X120054511Y-137657971D02*
X119983082Y-137729400D01*
X119983082Y-137729400D02*
X119840225Y-137800828D01*
X119840225Y-137800828D02*
X119554511Y-137800828D01*
X119554511Y-137800828D02*
X119411653Y-137729400D01*
X121911653Y-137800828D02*
X121911653Y-136300828D01*
X122625939Y-136800828D02*
X122625939Y-137800828D01*
X122625939Y-136943685D02*
X122697368Y-136872257D01*
X122697368Y-136872257D02*
X122840225Y-136800828D01*
X122840225Y-136800828D02*
X123054511Y-136800828D01*
X123054511Y-136800828D02*
X123197368Y-136872257D01*
X123197368Y-136872257D02*
X123268797Y-137015114D01*
X123268797Y-137015114D02*
X123268797Y-137800828D01*
X190483082Y-137800828D02*
X190483082Y-136300828D01*
X190483082Y-136300828D02*
X190940225Y-136300828D01*
X190940225Y-136300828D02*
X191054510Y-136372257D01*
X191054510Y-136372257D02*
X191111653Y-136443685D01*
X191111653Y-136443685D02*
X191168796Y-136586542D01*
X191168796Y-136586542D02*
X191168796Y-136800828D01*
X191168796Y-136800828D02*
X191111653Y-136943685D01*
X191111653Y-136943685D02*
X191054510Y-137015114D01*
X191054510Y-137015114D02*
X190940225Y-137086542D01*
X190940225Y-137086542D02*
X190483082Y-137086542D01*
X192197368Y-136800828D02*
X192197368Y-137800828D01*
X191683082Y-136800828D02*
X191683082Y-137586542D01*
X191683082Y-137586542D02*
X191740225Y-137729400D01*
X191740225Y-137729400D02*
X191854510Y-137800828D01*
X191854510Y-137800828D02*
X192025939Y-137800828D01*
X192025939Y-137800828D02*
X192140225Y-137729400D01*
X192140225Y-137729400D02*
X192197368Y-137657971D01*
X192768796Y-137800828D02*
X192768796Y-136800828D01*
X192768796Y-136943685D02*
X192825939Y-136872257D01*
X192825939Y-136872257D02*
X192940224Y-136800828D01*
X192940224Y-136800828D02*
X193111653Y-136800828D01*
X193111653Y-136800828D02*
X193225939Y-136872257D01*
X193225939Y-136872257D02*
X193283082Y-137015114D01*
X193283082Y-137015114D02*
X193283082Y-137800828D01*
X193283082Y-137015114D02*
X193340224Y-136872257D01*
X193340224Y-136872257D02*
X193454510Y-136800828D01*
X193454510Y-136800828D02*
X193625939Y-136800828D01*
X193625939Y-136800828D02*
X193740224Y-136872257D01*
X193740224Y-136872257D02*
X193797367Y-137015114D01*
X193797367Y-137015114D02*
X193797367Y-137800828D01*
X194368796Y-136800828D02*
X194368796Y-138300828D01*
X194368796Y-136872257D02*
X194483082Y-136800828D01*
X194483082Y-136800828D02*
X194711653Y-136800828D01*
X194711653Y-136800828D02*
X194825939Y-136872257D01*
X194825939Y-136872257D02*
X194883082Y-136943685D01*
X194883082Y-136943685D02*
X194940224Y-137086542D01*
X194940224Y-137086542D02*
X194940224Y-137515114D01*
X194940224Y-137515114D02*
X194883082Y-137657971D01*
X194883082Y-137657971D02*
X194825939Y-137729400D01*
X194825939Y-137729400D02*
X194711653Y-137800828D01*
X194711653Y-137800828D02*
X194483082Y-137800828D01*
X194483082Y-137800828D02*
X194368796Y-137729400D01*
X196597367Y-136300828D02*
X196825939Y-136300828D01*
X196825939Y-136300828D02*
X196940224Y-136372257D01*
X196940224Y-136372257D02*
X197054510Y-136515114D01*
X197054510Y-136515114D02*
X197111653Y-136800828D01*
X197111653Y-136800828D02*
X197111653Y-137300828D01*
X197111653Y-137300828D02*
X197054510Y-137586542D01*
X197054510Y-137586542D02*
X196940224Y-137729400D01*
X196940224Y-137729400D02*
X196825939Y-137800828D01*
X196825939Y-137800828D02*
X196597367Y-137800828D01*
X196597367Y-137800828D02*
X196483082Y-137729400D01*
X196483082Y-137729400D02*
X196368796Y-137586542D01*
X196368796Y-137586542D02*
X196311653Y-137300828D01*
X196311653Y-137300828D02*
X196311653Y-136800828D01*
X196311653Y-136800828D02*
X196368796Y-136515114D01*
X196368796Y-136515114D02*
X196483082Y-136372257D01*
X196483082Y-136372257D02*
X196597367Y-136300828D01*
X198140225Y-136800828D02*
X198140225Y-137800828D01*
X197625939Y-136800828D02*
X197625939Y-137586542D01*
X197625939Y-137586542D02*
X197683082Y-137729400D01*
X197683082Y-137729400D02*
X197797367Y-137800828D01*
X197797367Y-137800828D02*
X197968796Y-137800828D01*
X197968796Y-137800828D02*
X198083082Y-137729400D01*
X198083082Y-137729400D02*
X198140225Y-137657971D01*
X198540224Y-136800828D02*
X198997367Y-136800828D01*
X198711653Y-136300828D02*
X198711653Y-137586542D01*
X198711653Y-137586542D02*
X198768796Y-137729400D01*
X198768796Y-137729400D02*
X198883081Y-137800828D01*
X198883081Y-137800828D02*
X198997367Y-137800828D01*
D12*
X154750625Y-64554361D02*
X154655387Y-64649600D01*
X154655387Y-64649600D02*
X154369673Y-64744838D01*
X154369673Y-64744838D02*
X154179197Y-64744838D01*
X154179197Y-64744838D02*
X153893482Y-64649600D01*
X153893482Y-64649600D02*
X153703006Y-64459123D01*
X153703006Y-64459123D02*
X153607768Y-64268647D01*
X153607768Y-64268647D02*
X153512530Y-63887695D01*
X153512530Y-63887695D02*
X153512530Y-63601980D01*
X153512530Y-63601980D02*
X153607768Y-63221028D01*
X153607768Y-63221028D02*
X153703006Y-63030552D01*
X153703006Y-63030552D02*
X153893482Y-62840076D01*
X153893482Y-62840076D02*
X154179197Y-62744838D01*
X154179197Y-62744838D02*
X154369673Y-62744838D01*
X154369673Y-62744838D02*
X154655387Y-62840076D01*
X154655387Y-62840076D02*
X154750625Y-62935314D01*
X155893482Y-64744838D02*
X155703006Y-64649600D01*
X155703006Y-64649600D02*
X155607768Y-64554361D01*
X155607768Y-64554361D02*
X155512530Y-64363885D01*
X155512530Y-64363885D02*
X155512530Y-63792457D01*
X155512530Y-63792457D02*
X155607768Y-63601980D01*
X155607768Y-63601980D02*
X155703006Y-63506742D01*
X155703006Y-63506742D02*
X155893482Y-63411504D01*
X155893482Y-63411504D02*
X156179197Y-63411504D01*
X156179197Y-63411504D02*
X156369673Y-63506742D01*
X156369673Y-63506742D02*
X156464911Y-63601980D01*
X156464911Y-63601980D02*
X156560149Y-63792457D01*
X156560149Y-63792457D02*
X156560149Y-64363885D01*
X156560149Y-64363885D02*
X156464911Y-64554361D01*
X156464911Y-64554361D02*
X156369673Y-64649600D01*
X156369673Y-64649600D02*
X156179197Y-64744838D01*
X156179197Y-64744838D02*
X155893482Y-64744838D01*
X157417292Y-64744838D02*
X157417292Y-63411504D01*
X157417292Y-62744838D02*
X157322054Y-62840076D01*
X157322054Y-62840076D02*
X157417292Y-62935314D01*
X157417292Y-62935314D02*
X157512530Y-62840076D01*
X157512530Y-62840076D02*
X157417292Y-62744838D01*
X157417292Y-62744838D02*
X157417292Y-62935314D01*
X158655387Y-64744838D02*
X158464911Y-64649600D01*
X158464911Y-64649600D02*
X158369673Y-64459123D01*
X158369673Y-64459123D02*
X158369673Y-62744838D01*
X160845864Y-62935314D02*
X160941102Y-62840076D01*
X160941102Y-62840076D02*
X161131578Y-62744838D01*
X161131578Y-62744838D02*
X161607769Y-62744838D01*
X161607769Y-62744838D02*
X161798245Y-62840076D01*
X161798245Y-62840076D02*
X161893483Y-62935314D01*
X161893483Y-62935314D02*
X161988721Y-63125790D01*
X161988721Y-63125790D02*
X161988721Y-63316266D01*
X161988721Y-63316266D02*
X161893483Y-63601980D01*
X161893483Y-63601980D02*
X160750626Y-64744838D01*
X160750626Y-64744838D02*
X161988721Y-64744838D01*
X106750625Y-64554361D02*
X106655387Y-64649600D01*
X106655387Y-64649600D02*
X106369673Y-64744838D01*
X106369673Y-64744838D02*
X106179197Y-64744838D01*
X106179197Y-64744838D02*
X105893482Y-64649600D01*
X105893482Y-64649600D02*
X105703006Y-64459123D01*
X105703006Y-64459123D02*
X105607768Y-64268647D01*
X105607768Y-64268647D02*
X105512530Y-63887695D01*
X105512530Y-63887695D02*
X105512530Y-63601980D01*
X105512530Y-63601980D02*
X105607768Y-63221028D01*
X105607768Y-63221028D02*
X105703006Y-63030552D01*
X105703006Y-63030552D02*
X105893482Y-62840076D01*
X105893482Y-62840076D02*
X106179197Y-62744838D01*
X106179197Y-62744838D02*
X106369673Y-62744838D01*
X106369673Y-62744838D02*
X106655387Y-62840076D01*
X106655387Y-62840076D02*
X106750625Y-62935314D01*
X107893482Y-64744838D02*
X107703006Y-64649600D01*
X107703006Y-64649600D02*
X107607768Y-64554361D01*
X107607768Y-64554361D02*
X107512530Y-64363885D01*
X107512530Y-64363885D02*
X107512530Y-63792457D01*
X107512530Y-63792457D02*
X107607768Y-63601980D01*
X107607768Y-63601980D02*
X107703006Y-63506742D01*
X107703006Y-63506742D02*
X107893482Y-63411504D01*
X107893482Y-63411504D02*
X108179197Y-63411504D01*
X108179197Y-63411504D02*
X108369673Y-63506742D01*
X108369673Y-63506742D02*
X108464911Y-63601980D01*
X108464911Y-63601980D02*
X108560149Y-63792457D01*
X108560149Y-63792457D02*
X108560149Y-64363885D01*
X108560149Y-64363885D02*
X108464911Y-64554361D01*
X108464911Y-64554361D02*
X108369673Y-64649600D01*
X108369673Y-64649600D02*
X108179197Y-64744838D01*
X108179197Y-64744838D02*
X107893482Y-64744838D01*
X109417292Y-64744838D02*
X109417292Y-63411504D01*
X109417292Y-62744838D02*
X109322054Y-62840076D01*
X109322054Y-62840076D02*
X109417292Y-62935314D01*
X109417292Y-62935314D02*
X109512530Y-62840076D01*
X109512530Y-62840076D02*
X109417292Y-62744838D01*
X109417292Y-62744838D02*
X109417292Y-62935314D01*
X110655387Y-64744838D02*
X110464911Y-64649600D01*
X110464911Y-64649600D02*
X110369673Y-64459123D01*
X110369673Y-64459123D02*
X110369673Y-62744838D01*
X113988721Y-64744838D02*
X112845864Y-64744838D01*
X113417292Y-64744838D02*
X113417292Y-62744838D01*
X113417292Y-62744838D02*
X113226816Y-63030552D01*
X113226816Y-63030552D02*
X113036340Y-63221028D01*
X113036340Y-63221028D02*
X112845864Y-63316266D01*
D11*
X172389161Y-118683584D02*
X172484400Y-118778822D01*
X172484400Y-118778822D02*
X172579638Y-119064536D01*
X172579638Y-119064536D02*
X172579638Y-119255012D01*
X172579638Y-119255012D02*
X172484400Y-119540727D01*
X172484400Y-119540727D02*
X172293923Y-119731203D01*
X172293923Y-119731203D02*
X172103447Y-119826441D01*
X172103447Y-119826441D02*
X171722495Y-119921679D01*
X171722495Y-119921679D02*
X171436780Y-119921679D01*
X171436780Y-119921679D02*
X171055828Y-119826441D01*
X171055828Y-119826441D02*
X170865352Y-119731203D01*
X170865352Y-119731203D02*
X170674876Y-119540727D01*
X170674876Y-119540727D02*
X170579638Y-119255012D01*
X170579638Y-119255012D02*
X170579638Y-119064536D01*
X170579638Y-119064536D02*
X170674876Y-118778822D01*
X170674876Y-118778822D02*
X170770114Y-118683584D01*
X172579638Y-117540727D02*
X172484400Y-117731203D01*
X172484400Y-117731203D02*
X172389161Y-117826441D01*
X172389161Y-117826441D02*
X172198685Y-117921679D01*
X172198685Y-117921679D02*
X171627257Y-117921679D01*
X171627257Y-117921679D02*
X171436780Y-117826441D01*
X171436780Y-117826441D02*
X171341542Y-117731203D01*
X171341542Y-117731203D02*
X171246304Y-117540727D01*
X171246304Y-117540727D02*
X171246304Y-117255012D01*
X171246304Y-117255012D02*
X171341542Y-117064536D01*
X171341542Y-117064536D02*
X171436780Y-116969298D01*
X171436780Y-116969298D02*
X171627257Y-116874060D01*
X171627257Y-116874060D02*
X172198685Y-116874060D01*
X172198685Y-116874060D02*
X172389161Y-116969298D01*
X172389161Y-116969298D02*
X172484400Y-117064536D01*
X172484400Y-117064536D02*
X172579638Y-117255012D01*
X172579638Y-117255012D02*
X172579638Y-117540727D01*
X172579638Y-116016917D02*
X171246304Y-116016917D01*
X170579638Y-116016917D02*
X170674876Y-116112155D01*
X170674876Y-116112155D02*
X170770114Y-116016917D01*
X170770114Y-116016917D02*
X170674876Y-115921679D01*
X170674876Y-115921679D02*
X170579638Y-116016917D01*
X170579638Y-116016917D02*
X170770114Y-116016917D01*
X172579638Y-114778822D02*
X172484400Y-114969298D01*
X172484400Y-114969298D02*
X172293923Y-115064536D01*
X172293923Y-115064536D02*
X170579638Y-115064536D01*
X172484400Y-112588345D02*
X172579638Y-112302631D01*
X172579638Y-112302631D02*
X172579638Y-111826440D01*
X172579638Y-111826440D02*
X172484400Y-111635964D01*
X172484400Y-111635964D02*
X172389161Y-111540726D01*
X172389161Y-111540726D02*
X172198685Y-111445488D01*
X172198685Y-111445488D02*
X172008209Y-111445488D01*
X172008209Y-111445488D02*
X171817733Y-111540726D01*
X171817733Y-111540726D02*
X171722495Y-111635964D01*
X171722495Y-111635964D02*
X171627257Y-111826440D01*
X171627257Y-111826440D02*
X171532019Y-112207393D01*
X171532019Y-112207393D02*
X171436780Y-112397869D01*
X171436780Y-112397869D02*
X171341542Y-112493107D01*
X171341542Y-112493107D02*
X171151066Y-112588345D01*
X171151066Y-112588345D02*
X170960590Y-112588345D01*
X170960590Y-112588345D02*
X170770114Y-112493107D01*
X170770114Y-112493107D02*
X170674876Y-112397869D01*
X170674876Y-112397869D02*
X170579638Y-112207393D01*
X170579638Y-112207393D02*
X170579638Y-111731202D01*
X170579638Y-111731202D02*
X170674876Y-111445488D01*
X172579638Y-109731202D02*
X171532019Y-109731202D01*
X171532019Y-109731202D02*
X171341542Y-109826440D01*
X171341542Y-109826440D02*
X171246304Y-110016916D01*
X171246304Y-110016916D02*
X171246304Y-110397869D01*
X171246304Y-110397869D02*
X171341542Y-110588345D01*
X172484400Y-109731202D02*
X172579638Y-109921678D01*
X172579638Y-109921678D02*
X172579638Y-110397869D01*
X172579638Y-110397869D02*
X172484400Y-110588345D01*
X172484400Y-110588345D02*
X172293923Y-110683583D01*
X172293923Y-110683583D02*
X172103447Y-110683583D01*
X172103447Y-110683583D02*
X171912971Y-110588345D01*
X171912971Y-110588345D02*
X171817733Y-110397869D01*
X171817733Y-110397869D02*
X171817733Y-109921678D01*
X171817733Y-109921678D02*
X171722495Y-109731202D01*
X171246304Y-109064535D02*
X171246304Y-108302631D01*
X172579638Y-108778821D02*
X170865352Y-108778821D01*
X170865352Y-108778821D02*
X170674876Y-108683583D01*
X170674876Y-108683583D02*
X170579638Y-108493107D01*
X170579638Y-108493107D02*
X170579638Y-108302631D01*
X172484400Y-106874059D02*
X172579638Y-107064535D01*
X172579638Y-107064535D02*
X172579638Y-107445488D01*
X172579638Y-107445488D02*
X172484400Y-107635964D01*
X172484400Y-107635964D02*
X172293923Y-107731202D01*
X172293923Y-107731202D02*
X171532019Y-107731202D01*
X171532019Y-107731202D02*
X171341542Y-107635964D01*
X171341542Y-107635964D02*
X171246304Y-107445488D01*
X171246304Y-107445488D02*
X171246304Y-107064535D01*
X171246304Y-107064535D02*
X171341542Y-106874059D01*
X171341542Y-106874059D02*
X171532019Y-106778821D01*
X171532019Y-106778821D02*
X171722495Y-106778821D01*
X171722495Y-106778821D02*
X171912971Y-107731202D01*
X171246304Y-106207392D02*
X171246304Y-105445488D01*
X170579638Y-105921678D02*
X172293923Y-105921678D01*
X172293923Y-105921678D02*
X172484400Y-105826440D01*
X172484400Y-105826440D02*
X172579638Y-105635964D01*
X172579638Y-105635964D02*
X172579638Y-105445488D01*
X171246304Y-104969297D02*
X172579638Y-104493107D01*
X171246304Y-104016916D02*
X172579638Y-104493107D01*
X172579638Y-104493107D02*
X173055828Y-104683583D01*
X173055828Y-104683583D02*
X173151066Y-104778821D01*
X173151066Y-104778821D02*
X173246304Y-104969297D01*
X172389161Y-100588344D02*
X172484400Y-100683582D01*
X172484400Y-100683582D02*
X172579638Y-100969296D01*
X172579638Y-100969296D02*
X172579638Y-101159772D01*
X172579638Y-101159772D02*
X172484400Y-101445487D01*
X172484400Y-101445487D02*
X172293923Y-101635963D01*
X172293923Y-101635963D02*
X172103447Y-101731201D01*
X172103447Y-101731201D02*
X171722495Y-101826439D01*
X171722495Y-101826439D02*
X171436780Y-101826439D01*
X171436780Y-101826439D02*
X171055828Y-101731201D01*
X171055828Y-101731201D02*
X170865352Y-101635963D01*
X170865352Y-101635963D02*
X170674876Y-101445487D01*
X170674876Y-101445487D02*
X170579638Y-101159772D01*
X170579638Y-101159772D02*
X170579638Y-100969296D01*
X170579638Y-100969296D02*
X170674876Y-100683582D01*
X170674876Y-100683582D02*
X170770114Y-100588344D01*
X172579638Y-99731201D02*
X171246304Y-99731201D01*
X170579638Y-99731201D02*
X170674876Y-99826439D01*
X170674876Y-99826439D02*
X170770114Y-99731201D01*
X170770114Y-99731201D02*
X170674876Y-99635963D01*
X170674876Y-99635963D02*
X170579638Y-99731201D01*
X170579638Y-99731201D02*
X170770114Y-99731201D01*
X172579638Y-98778820D02*
X171246304Y-98778820D01*
X171627257Y-98778820D02*
X171436780Y-98683582D01*
X171436780Y-98683582D02*
X171341542Y-98588344D01*
X171341542Y-98588344D02*
X171246304Y-98397868D01*
X171246304Y-98397868D02*
X171246304Y-98207391D01*
X172484400Y-96683582D02*
X172579638Y-96874058D01*
X172579638Y-96874058D02*
X172579638Y-97255011D01*
X172579638Y-97255011D02*
X172484400Y-97445487D01*
X172484400Y-97445487D02*
X172389161Y-97540725D01*
X172389161Y-97540725D02*
X172198685Y-97635963D01*
X172198685Y-97635963D02*
X171627257Y-97635963D01*
X171627257Y-97635963D02*
X171436780Y-97540725D01*
X171436780Y-97540725D02*
X171341542Y-97445487D01*
X171341542Y-97445487D02*
X171246304Y-97255011D01*
X171246304Y-97255011D02*
X171246304Y-96874058D01*
X171246304Y-96874058D02*
X171341542Y-96683582D01*
X171246304Y-94969296D02*
X172579638Y-94969296D01*
X171246304Y-95826439D02*
X172293923Y-95826439D01*
X172293923Y-95826439D02*
X172484400Y-95731201D01*
X172484400Y-95731201D02*
X172579638Y-95540725D01*
X172579638Y-95540725D02*
X172579638Y-95255010D01*
X172579638Y-95255010D02*
X172484400Y-95064534D01*
X172484400Y-95064534D02*
X172389161Y-94969296D01*
X172579638Y-94016915D02*
X171246304Y-94016915D01*
X170579638Y-94016915D02*
X170674876Y-94112153D01*
X170674876Y-94112153D02*
X170770114Y-94016915D01*
X170770114Y-94016915D02*
X170674876Y-93921677D01*
X170674876Y-93921677D02*
X170579638Y-94016915D01*
X170579638Y-94016915D02*
X170770114Y-94016915D01*
X171246304Y-93350248D02*
X171246304Y-92588344D01*
X170579638Y-93064534D02*
X172293923Y-93064534D01*
X172293923Y-93064534D02*
X172484400Y-92969296D01*
X172484400Y-92969296D02*
X172579638Y-92778820D01*
X172579638Y-92778820D02*
X172579638Y-92588344D01*
X174751907Y-119159774D02*
X174847145Y-118874060D01*
X174847145Y-118874060D02*
X174942383Y-118778822D01*
X174942383Y-118778822D02*
X175132859Y-118683584D01*
X175132859Y-118683584D02*
X175418573Y-118683584D01*
X175418573Y-118683584D02*
X175609049Y-118778822D01*
X175609049Y-118778822D02*
X175704288Y-118874060D01*
X175704288Y-118874060D02*
X175799526Y-119064536D01*
X175799526Y-119064536D02*
X175799526Y-119826441D01*
X175799526Y-119826441D02*
X173799526Y-119826441D01*
X173799526Y-119826441D02*
X173799526Y-119159774D01*
X173799526Y-119159774D02*
X173894764Y-118969298D01*
X173894764Y-118969298D02*
X173990002Y-118874060D01*
X173990002Y-118874060D02*
X174180478Y-118778822D01*
X174180478Y-118778822D02*
X174370954Y-118778822D01*
X174370954Y-118778822D02*
X174561430Y-118874060D01*
X174561430Y-118874060D02*
X174656668Y-118969298D01*
X174656668Y-118969298D02*
X174751907Y-119159774D01*
X174751907Y-119159774D02*
X174751907Y-119826441D01*
X175799526Y-117826441D02*
X174466192Y-117826441D01*
X173799526Y-117826441D02*
X173894764Y-117921679D01*
X173894764Y-117921679D02*
X173990002Y-117826441D01*
X173990002Y-117826441D02*
X173894764Y-117731203D01*
X173894764Y-117731203D02*
X173799526Y-117826441D01*
X173799526Y-117826441D02*
X173990002Y-117826441D01*
X175704288Y-116112155D02*
X175799526Y-116302631D01*
X175799526Y-116302631D02*
X175799526Y-116683584D01*
X175799526Y-116683584D02*
X175704288Y-116874060D01*
X175704288Y-116874060D02*
X175513811Y-116969298D01*
X175513811Y-116969298D02*
X174751907Y-116969298D01*
X174751907Y-116969298D02*
X174561430Y-116874060D01*
X174561430Y-116874060D02*
X174466192Y-116683584D01*
X174466192Y-116683584D02*
X174466192Y-116302631D01*
X174466192Y-116302631D02*
X174561430Y-116112155D01*
X174561430Y-116112155D02*
X174751907Y-116016917D01*
X174751907Y-116016917D02*
X174942383Y-116016917D01*
X174942383Y-116016917D02*
X175132859Y-116969298D01*
X175799526Y-114302631D02*
X173799526Y-114302631D01*
X175704288Y-114302631D02*
X175799526Y-114493107D01*
X175799526Y-114493107D02*
X175799526Y-114874060D01*
X175799526Y-114874060D02*
X175704288Y-115064536D01*
X175704288Y-115064536D02*
X175609049Y-115159774D01*
X175609049Y-115159774D02*
X175418573Y-115255012D01*
X175418573Y-115255012D02*
X174847145Y-115255012D01*
X174847145Y-115255012D02*
X174656668Y-115159774D01*
X174656668Y-115159774D02*
X174561430Y-115064536D01*
X174561430Y-115064536D02*
X174466192Y-114874060D01*
X174466192Y-114874060D02*
X174466192Y-114493107D01*
X174466192Y-114493107D02*
X174561430Y-114302631D01*
X175704288Y-112588345D02*
X175799526Y-112778821D01*
X175799526Y-112778821D02*
X175799526Y-113159774D01*
X175799526Y-113159774D02*
X175704288Y-113350250D01*
X175704288Y-113350250D02*
X175513811Y-113445488D01*
X175513811Y-113445488D02*
X174751907Y-113445488D01*
X174751907Y-113445488D02*
X174561430Y-113350250D01*
X174561430Y-113350250D02*
X174466192Y-113159774D01*
X174466192Y-113159774D02*
X174466192Y-112778821D01*
X174466192Y-112778821D02*
X174561430Y-112588345D01*
X174561430Y-112588345D02*
X174751907Y-112493107D01*
X174751907Y-112493107D02*
X174942383Y-112493107D01*
X174942383Y-112493107D02*
X175132859Y-113445488D01*
X175799526Y-111635964D02*
X174466192Y-111635964D01*
X174847145Y-111635964D02*
X174656668Y-111540726D01*
X174656668Y-111540726D02*
X174561430Y-111445488D01*
X174561430Y-111445488D02*
X174466192Y-111255012D01*
X174466192Y-111255012D02*
X174466192Y-111064535D01*
X175799526Y-110397869D02*
X174466192Y-110397869D01*
X174656668Y-110397869D02*
X174561430Y-110302631D01*
X174561430Y-110302631D02*
X174466192Y-110112155D01*
X174466192Y-110112155D02*
X174466192Y-109826440D01*
X174466192Y-109826440D02*
X174561430Y-109635964D01*
X174561430Y-109635964D02*
X174751907Y-109540726D01*
X174751907Y-109540726D02*
X175799526Y-109540726D01*
X174751907Y-109540726D02*
X174561430Y-109445488D01*
X174561430Y-109445488D02*
X174466192Y-109255012D01*
X174466192Y-109255012D02*
X174466192Y-108969298D01*
X174466192Y-108969298D02*
X174561430Y-108778821D01*
X174561430Y-108778821D02*
X174751907Y-108683583D01*
X174751907Y-108683583D02*
X175799526Y-108683583D01*
X175799526Y-106874059D02*
X174751907Y-106874059D01*
X174751907Y-106874059D02*
X174561430Y-106969297D01*
X174561430Y-106969297D02*
X174466192Y-107159773D01*
X174466192Y-107159773D02*
X174466192Y-107540726D01*
X174466192Y-107540726D02*
X174561430Y-107731202D01*
X175704288Y-106874059D02*
X175799526Y-107064535D01*
X175799526Y-107064535D02*
X175799526Y-107540726D01*
X175799526Y-107540726D02*
X175704288Y-107731202D01*
X175704288Y-107731202D02*
X175513811Y-107826440D01*
X175513811Y-107826440D02*
X175323335Y-107826440D01*
X175323335Y-107826440D02*
X175132859Y-107731202D01*
X175132859Y-107731202D02*
X175037621Y-107540726D01*
X175037621Y-107540726D02*
X175037621Y-107064535D01*
X175037621Y-107064535D02*
X174942383Y-106874059D01*
X174466192Y-105921678D02*
X175799526Y-105921678D01*
X174656668Y-105921678D02*
X174561430Y-105826440D01*
X174561430Y-105826440D02*
X174466192Y-105635964D01*
X174466192Y-105635964D02*
X174466192Y-105350249D01*
X174466192Y-105350249D02*
X174561430Y-105159773D01*
X174561430Y-105159773D02*
X174751907Y-105064535D01*
X174751907Y-105064535D02*
X175799526Y-105064535D01*
X174466192Y-104112154D02*
X175799526Y-104112154D01*
X174656668Y-104112154D02*
X174561430Y-104016916D01*
X174561430Y-104016916D02*
X174466192Y-103826440D01*
X174466192Y-103826440D02*
X174466192Y-103540725D01*
X174466192Y-103540725D02*
X174561430Y-103350249D01*
X174561430Y-103350249D02*
X174751907Y-103255011D01*
X174751907Y-103255011D02*
X175799526Y-103255011D01*
X175799526Y-99826439D02*
X175799526Y-100778820D01*
X175799526Y-100778820D02*
X173799526Y-100778820D01*
X175799526Y-98302629D02*
X174751907Y-98302629D01*
X174751907Y-98302629D02*
X174561430Y-98397867D01*
X174561430Y-98397867D02*
X174466192Y-98588343D01*
X174466192Y-98588343D02*
X174466192Y-98969296D01*
X174466192Y-98969296D02*
X174561430Y-99159772D01*
X175704288Y-98302629D02*
X175799526Y-98493105D01*
X175799526Y-98493105D02*
X175799526Y-98969296D01*
X175799526Y-98969296D02*
X175704288Y-99159772D01*
X175704288Y-99159772D02*
X175513811Y-99255010D01*
X175513811Y-99255010D02*
X175323335Y-99255010D01*
X175323335Y-99255010D02*
X175132859Y-99159772D01*
X175132859Y-99159772D02*
X175037621Y-98969296D01*
X175037621Y-98969296D02*
X175037621Y-98493105D01*
X175037621Y-98493105D02*
X174942383Y-98302629D01*
X175799526Y-97350248D02*
X173799526Y-97350248D01*
X174561430Y-97350248D02*
X174466192Y-97159772D01*
X174466192Y-97159772D02*
X174466192Y-96778819D01*
X174466192Y-96778819D02*
X174561430Y-96588343D01*
X174561430Y-96588343D02*
X174656668Y-96493105D01*
X174656668Y-96493105D02*
X174847145Y-96397867D01*
X174847145Y-96397867D02*
X175418573Y-96397867D01*
X175418573Y-96397867D02*
X175609049Y-96493105D01*
X175609049Y-96493105D02*
X175704288Y-96588343D01*
X175704288Y-96588343D02*
X175799526Y-96778819D01*
X175799526Y-96778819D02*
X175799526Y-97159772D01*
X175799526Y-97159772D02*
X175704288Y-97350248D01*
X177686080Y-120016917D02*
X179019414Y-119540727D01*
X179019414Y-119540727D02*
X177686080Y-119064536D01*
X177209890Y-118397869D02*
X177114652Y-118302631D01*
X177114652Y-118302631D02*
X177019414Y-118112155D01*
X177019414Y-118112155D02*
X177019414Y-117635964D01*
X177019414Y-117635964D02*
X177114652Y-117445488D01*
X177114652Y-117445488D02*
X177209890Y-117350250D01*
X177209890Y-117350250D02*
X177400366Y-117255012D01*
X177400366Y-117255012D02*
X177590842Y-117255012D01*
X177590842Y-117255012D02*
X177876556Y-117350250D01*
X177876556Y-117350250D02*
X179019414Y-118493107D01*
X179019414Y-118493107D02*
X179019414Y-117255012D01*
D13*
X169000000Y-85466600D02*
X181000000Y-85466600D01*
X181000000Y-122000000D01*
X169000000Y-122000000D01*
X169000000Y-85466600D01*
D14*
X103533333Y-61239866D02*
X103533333Y-62239866D01*
X103533333Y-62239866D02*
X103466666Y-62439866D01*
X103466666Y-62439866D02*
X103333333Y-62573200D01*
X103333333Y-62573200D02*
X103133333Y-62639866D01*
X103133333Y-62639866D02*
X103000000Y-62639866D01*
X104800000Y-61706533D02*
X104800000Y-62639866D01*
X104466667Y-61173200D02*
X104133333Y-62173200D01*
X104133333Y-62173200D02*
X105000000Y-62173200D01*
X156190476Y-74534819D02*
X156190476Y-75249104D01*
X156190476Y-75249104D02*
X156142857Y-75391961D01*
X156142857Y-75391961D02*
X156047619Y-75487200D01*
X156047619Y-75487200D02*
X155904762Y-75534819D01*
X155904762Y-75534819D02*
X155809524Y-75534819D01*
X157190476Y-75534819D02*
X156619048Y-75534819D01*
X156904762Y-75534819D02*
X156904762Y-74534819D01*
X156904762Y-74534819D02*
X156809524Y-74677676D01*
X156809524Y-74677676D02*
X156714286Y-74772914D01*
X156714286Y-74772914D02*
X156619048Y-74820533D01*
X157809524Y-74534819D02*
X157904762Y-74534819D01*
X157904762Y-74534819D02*
X158000000Y-74582438D01*
X158000000Y-74582438D02*
X158047619Y-74630057D01*
X158047619Y-74630057D02*
X158095238Y-74725295D01*
X158095238Y-74725295D02*
X158142857Y-74915771D01*
X158142857Y-74915771D02*
X158142857Y-75153866D01*
X158142857Y-75153866D02*
X158095238Y-75344342D01*
X158095238Y-75344342D02*
X158047619Y-75439580D01*
X158047619Y-75439580D02*
X158000000Y-75487200D01*
X158000000Y-75487200D02*
X157904762Y-75534819D01*
X157904762Y-75534819D02*
X157809524Y-75534819D01*
X157809524Y-75534819D02*
X157714286Y-75487200D01*
X157714286Y-75487200D02*
X157666667Y-75439580D01*
X157666667Y-75439580D02*
X157619048Y-75344342D01*
X157619048Y-75344342D02*
X157571429Y-75153866D01*
X157571429Y-75153866D02*
X157571429Y-74915771D01*
X157571429Y-74915771D02*
X157619048Y-74725295D01*
X157619048Y-74725295D02*
X157666667Y-74630057D01*
X157666667Y-74630057D02*
X157714286Y-74582438D01*
X157714286Y-74582438D02*
X157809524Y-74534819D01*
X108190476Y-74534819D02*
X108190476Y-75249104D01*
X108190476Y-75249104D02*
X108142857Y-75391961D01*
X108142857Y-75391961D02*
X108047619Y-75487200D01*
X108047619Y-75487200D02*
X107904762Y-75534819D01*
X107904762Y-75534819D02*
X107809524Y-75534819D01*
X109190476Y-75534819D02*
X108619048Y-75534819D01*
X108904762Y-75534819D02*
X108904762Y-74534819D01*
X108904762Y-74534819D02*
X108809524Y-74677676D01*
X108809524Y-74677676D02*
X108714286Y-74772914D01*
X108714286Y-74772914D02*
X108619048Y-74820533D01*
X110142857Y-75534819D02*
X109571429Y-75534819D01*
X109857143Y-75534819D02*
X109857143Y-74534819D01*
X109857143Y-74534819D02*
X109761905Y-74677676D01*
X109761905Y-74677676D02*
X109666667Y-74772914D01*
X109666667Y-74772914D02*
X109571429Y-74820533D01*
X106666666Y-78154819D02*
X106333333Y-77678628D01*
X106095238Y-78154819D02*
X106095238Y-77154819D01*
X106095238Y-77154819D02*
X106476190Y-77154819D01*
X106476190Y-77154819D02*
X106571428Y-77202438D01*
X106571428Y-77202438D02*
X106619047Y-77250057D01*
X106619047Y-77250057D02*
X106666666Y-77345295D01*
X106666666Y-77345295D02*
X106666666Y-77488152D01*
X106666666Y-77488152D02*
X106619047Y-77583390D01*
X106619047Y-77583390D02*
X106571428Y-77631009D01*
X106571428Y-77631009D02*
X106476190Y-77678628D01*
X106476190Y-77678628D02*
X106095238Y-77678628D01*
X107095238Y-77631009D02*
X107428571Y-77631009D01*
X107571428Y-78154819D02*
X107095238Y-78154819D01*
X107095238Y-78154819D02*
X107095238Y-77154819D01*
X107095238Y-77154819D02*
X107571428Y-77154819D01*
X108333333Y-77631009D02*
X108000000Y-77631009D01*
X108000000Y-78154819D02*
X108000000Y-77154819D01*
X108000000Y-77154819D02*
X108476190Y-77154819D01*
X109000000Y-77154819D02*
X109000000Y-77392914D01*
X108761905Y-77297676D02*
X109000000Y-77392914D01*
X109000000Y-77392914D02*
X109238095Y-77297676D01*
X108857143Y-77583390D02*
X109000000Y-77392914D01*
X109000000Y-77392914D02*
X109142857Y-77583390D01*
X109761905Y-77154819D02*
X109761905Y-77392914D01*
X109523810Y-77297676D02*
X109761905Y-77392914D01*
X109761905Y-77392914D02*
X110000000Y-77297676D01*
X109619048Y-77583390D02*
X109761905Y-77392914D01*
X109761905Y-77392914D02*
X109904762Y-77583390D01*
X130833333Y-100104819D02*
X130500000Y-99628628D01*
X130261905Y-100104819D02*
X130261905Y-99104819D01*
X130261905Y-99104819D02*
X130642857Y-99104819D01*
X130642857Y-99104819D02*
X130738095Y-99152438D01*
X130738095Y-99152438D02*
X130785714Y-99200057D01*
X130785714Y-99200057D02*
X130833333Y-99295295D01*
X130833333Y-99295295D02*
X130833333Y-99438152D01*
X130833333Y-99438152D02*
X130785714Y-99533390D01*
X130785714Y-99533390D02*
X130738095Y-99581009D01*
X130738095Y-99581009D02*
X130642857Y-99628628D01*
X130642857Y-99628628D02*
X130261905Y-99628628D01*
X131785714Y-100104819D02*
X131214286Y-100104819D01*
X131500000Y-100104819D02*
X131500000Y-99104819D01*
X131500000Y-99104819D02*
X131404762Y-99247676D01*
X131404762Y-99247676D02*
X131309524Y-99342914D01*
X131309524Y-99342914D02*
X131214286Y-99390533D01*
X151533333Y-61239866D02*
X151533333Y-62239866D01*
X151533333Y-62239866D02*
X151466666Y-62439866D01*
X151466666Y-62439866D02*
X151333333Y-62573200D01*
X151333333Y-62573200D02*
X151133333Y-62639866D01*
X151133333Y-62639866D02*
X151000000Y-62639866D01*
X152066667Y-61239866D02*
X152933333Y-61239866D01*
X152933333Y-61239866D02*
X152466667Y-61773200D01*
X152466667Y-61773200D02*
X152666667Y-61773200D01*
X152666667Y-61773200D02*
X152800000Y-61839866D01*
X152800000Y-61839866D02*
X152866667Y-61906533D01*
X152866667Y-61906533D02*
X152933333Y-62039866D01*
X152933333Y-62039866D02*
X152933333Y-62373200D01*
X152933333Y-62373200D02*
X152866667Y-62506533D01*
X152866667Y-62506533D02*
X152800000Y-62573200D01*
X152800000Y-62573200D02*
X152666667Y-62639866D01*
X152666667Y-62639866D02*
X152266667Y-62639866D01*
X152266667Y-62639866D02*
X152133333Y-62573200D01*
X152133333Y-62573200D02*
X152066667Y-62506533D01*
D13*
X180238095Y-52957419D02*
X180238095Y-53766942D01*
X180238095Y-53766942D02*
X180285714Y-53862180D01*
X180285714Y-53862180D02*
X180333333Y-53909800D01*
X180333333Y-53909800D02*
X180428571Y-53957419D01*
X180428571Y-53957419D02*
X180619047Y-53957419D01*
X180619047Y-53957419D02*
X180714285Y-53909800D01*
X180714285Y-53909800D02*
X180761904Y-53862180D01*
X180761904Y-53862180D02*
X180809523Y-53766942D01*
X180809523Y-53766942D02*
X180809523Y-52957419D01*
X181809523Y-53957419D02*
X181238095Y-53957419D01*
X181523809Y-53957419D02*
X181523809Y-52957419D01*
X181523809Y-52957419D02*
X181428571Y-53100276D01*
X181428571Y-53100276D02*
X181333333Y-53195514D01*
X181333333Y-53195514D02*
X181238095Y-53243133D01*
D14*
X133630714Y-84989819D02*
X133630714Y-83989819D01*
X133630714Y-83989819D02*
X134011666Y-83989819D01*
X134011666Y-83989819D02*
X134106904Y-84037438D01*
X134106904Y-84037438D02*
X134154523Y-84085057D01*
X134154523Y-84085057D02*
X134202142Y-84180295D01*
X134202142Y-84180295D02*
X134202142Y-84323152D01*
X134202142Y-84323152D02*
X134154523Y-84418390D01*
X134154523Y-84418390D02*
X134106904Y-84466009D01*
X134106904Y-84466009D02*
X134011666Y-84513628D01*
X134011666Y-84513628D02*
X133630714Y-84513628D01*
X134583095Y-84942200D02*
X134725952Y-84989819D01*
X134725952Y-84989819D02*
X134964047Y-84989819D01*
X134964047Y-84989819D02*
X135059285Y-84942200D01*
X135059285Y-84942200D02*
X135106904Y-84894580D01*
X135106904Y-84894580D02*
X135154523Y-84799342D01*
X135154523Y-84799342D02*
X135154523Y-84704104D01*
X135154523Y-84704104D02*
X135106904Y-84608866D01*
X135106904Y-84608866D02*
X135059285Y-84561247D01*
X135059285Y-84561247D02*
X134964047Y-84513628D01*
X134964047Y-84513628D02*
X134773571Y-84466009D01*
X134773571Y-84466009D02*
X134678333Y-84418390D01*
X134678333Y-84418390D02*
X134630714Y-84370771D01*
X134630714Y-84370771D02*
X134583095Y-84275533D01*
X134583095Y-84275533D02*
X134583095Y-84180295D01*
X134583095Y-84180295D02*
X134630714Y-84085057D01*
X134630714Y-84085057D02*
X134678333Y-84037438D01*
X134678333Y-84037438D02*
X134773571Y-83989819D01*
X134773571Y-83989819D02*
X135011666Y-83989819D01*
X135011666Y-83989819D02*
X135154523Y-84037438D01*
X135535476Y-84085057D02*
X135583095Y-84037438D01*
X135583095Y-84037438D02*
X135678333Y-83989819D01*
X135678333Y-83989819D02*
X135916428Y-83989819D01*
X135916428Y-83989819D02*
X136011666Y-84037438D01*
X136011666Y-84037438D02*
X136059285Y-84085057D01*
X136059285Y-84085057D02*
X136106904Y-84180295D01*
X136106904Y-84180295D02*
X136106904Y-84275533D01*
X136106904Y-84275533D02*
X136059285Y-84418390D01*
X136059285Y-84418390D02*
X135487857Y-84989819D01*
X135487857Y-84989819D02*
X136106904Y-84989819D01*
X141454819Y-144214285D02*
X140454819Y-144214285D01*
X140454819Y-144214285D02*
X140454819Y-143833333D01*
X140454819Y-143833333D02*
X140502438Y-143738095D01*
X140502438Y-143738095D02*
X140550057Y-143690476D01*
X140550057Y-143690476D02*
X140645295Y-143642857D01*
X140645295Y-143642857D02*
X140788152Y-143642857D01*
X140788152Y-143642857D02*
X140883390Y-143690476D01*
X140883390Y-143690476D02*
X140931009Y-143738095D01*
X140931009Y-143738095D02*
X140978628Y-143833333D01*
X140978628Y-143833333D02*
X140978628Y-144214285D01*
X141407200Y-143261904D02*
X141454819Y-143119047D01*
X141454819Y-143119047D02*
X141454819Y-142880952D01*
X141454819Y-142880952D02*
X141407200Y-142785714D01*
X141407200Y-142785714D02*
X141359580Y-142738095D01*
X141359580Y-142738095D02*
X141264342Y-142690476D01*
X141264342Y-142690476D02*
X141169104Y-142690476D01*
X141169104Y-142690476D02*
X141073866Y-142738095D01*
X141073866Y-142738095D02*
X141026247Y-142785714D01*
X141026247Y-142785714D02*
X140978628Y-142880952D01*
X140978628Y-142880952D02*
X140931009Y-143071428D01*
X140931009Y-143071428D02*
X140883390Y-143166666D01*
X140883390Y-143166666D02*
X140835771Y-143214285D01*
X140835771Y-143214285D02*
X140740533Y-143261904D01*
X140740533Y-143261904D02*
X140645295Y-143261904D01*
X140645295Y-143261904D02*
X140550057Y-143214285D01*
X140550057Y-143214285D02*
X140502438Y-143166666D01*
X140502438Y-143166666D02*
X140454819Y-143071428D01*
X140454819Y-143071428D02*
X140454819Y-142833333D01*
X140454819Y-142833333D02*
X140502438Y-142690476D01*
X140454819Y-142357142D02*
X140454819Y-141738095D01*
X140454819Y-141738095D02*
X140835771Y-142071428D01*
X140835771Y-142071428D02*
X140835771Y-141928571D01*
X140835771Y-141928571D02*
X140883390Y-141833333D01*
X140883390Y-141833333D02*
X140931009Y-141785714D01*
X140931009Y-141785714D02*
X141026247Y-141738095D01*
X141026247Y-141738095D02*
X141264342Y-141738095D01*
X141264342Y-141738095D02*
X141359580Y-141785714D01*
X141359580Y-141785714D02*
X141407200Y-141833333D01*
X141407200Y-141833333D02*
X141454819Y-141928571D01*
X141454819Y-141928571D02*
X141454819Y-142214285D01*
X141454819Y-142214285D02*
X141407200Y-142309523D01*
X141407200Y-142309523D02*
X141359580Y-142357142D01*
X113239866Y-99466666D02*
X114239866Y-99466666D01*
X114239866Y-99466666D02*
X114439866Y-99533333D01*
X114439866Y-99533333D02*
X114573200Y-99666666D01*
X114573200Y-99666666D02*
X114639866Y-99866666D01*
X114639866Y-99866666D02*
X114639866Y-100000000D01*
X113373200Y-98866666D02*
X113306533Y-98799999D01*
X113306533Y-98799999D02*
X113239866Y-98666666D01*
X113239866Y-98666666D02*
X113239866Y-98333333D01*
X113239866Y-98333333D02*
X113306533Y-98199999D01*
X113306533Y-98199999D02*
X113373200Y-98133333D01*
X113373200Y-98133333D02*
X113506533Y-98066666D01*
X113506533Y-98066666D02*
X113639866Y-98066666D01*
X113639866Y-98066666D02*
X113839866Y-98133333D01*
X113839866Y-98133333D02*
X114639866Y-98933333D01*
X114639866Y-98933333D02*
X114639866Y-98066666D01*
X113666666Y-133454819D02*
X113666666Y-134169104D01*
X113666666Y-134169104D02*
X113619047Y-134311961D01*
X113619047Y-134311961D02*
X113523809Y-134407200D01*
X113523809Y-134407200D02*
X113380952Y-134454819D01*
X113380952Y-134454819D02*
X113285714Y-134454819D01*
X114190476Y-134454819D02*
X114380952Y-134454819D01*
X114380952Y-134454819D02*
X114476190Y-134407200D01*
X114476190Y-134407200D02*
X114523809Y-134359580D01*
X114523809Y-134359580D02*
X114619047Y-134216723D01*
X114619047Y-134216723D02*
X114666666Y-134026247D01*
X114666666Y-134026247D02*
X114666666Y-133645295D01*
X114666666Y-133645295D02*
X114619047Y-133550057D01*
X114619047Y-133550057D02*
X114571428Y-133502438D01*
X114571428Y-133502438D02*
X114476190Y-133454819D01*
X114476190Y-133454819D02*
X114285714Y-133454819D01*
X114285714Y-133454819D02*
X114190476Y-133502438D01*
X114190476Y-133502438D02*
X114142857Y-133550057D01*
X114142857Y-133550057D02*
X114095238Y-133645295D01*
X114095238Y-133645295D02*
X114095238Y-133883390D01*
X114095238Y-133883390D02*
X114142857Y-133978628D01*
X114142857Y-133978628D02*
X114190476Y-134026247D01*
X114190476Y-134026247D02*
X114285714Y-134073866D01*
X114285714Y-134073866D02*
X114476190Y-134073866D01*
X114476190Y-134073866D02*
X114571428Y-134026247D01*
X114571428Y-134026247D02*
X114619047Y-133978628D01*
X114619047Y-133978628D02*
X114666666Y-133883390D01*
X127666666Y-139454819D02*
X127333333Y-138978628D01*
X127095238Y-139454819D02*
X127095238Y-138454819D01*
X127095238Y-138454819D02*
X127476190Y-138454819D01*
X127476190Y-138454819D02*
X127571428Y-138502438D01*
X127571428Y-138502438D02*
X127619047Y-138550057D01*
X127619047Y-138550057D02*
X127666666Y-138645295D01*
X127666666Y-138645295D02*
X127666666Y-138788152D01*
X127666666Y-138788152D02*
X127619047Y-138883390D01*
X127619047Y-138883390D02*
X127571428Y-138931009D01*
X127571428Y-138931009D02*
X127476190Y-138978628D01*
X127476190Y-138978628D02*
X127095238Y-138978628D01*
X128095238Y-138931009D02*
X128428571Y-138931009D01*
X128571428Y-139454819D02*
X128095238Y-139454819D01*
X128095238Y-139454819D02*
X128095238Y-138454819D01*
X128095238Y-138454819D02*
X128571428Y-138454819D01*
X129333333Y-138931009D02*
X129000000Y-138931009D01*
X129000000Y-139454819D02*
X129000000Y-138454819D01*
X129000000Y-138454819D02*
X129476190Y-138454819D01*
X130000000Y-138454819D02*
X130000000Y-138692914D01*
X129761905Y-138597676D02*
X130000000Y-138692914D01*
X130000000Y-138692914D02*
X130238095Y-138597676D01*
X129857143Y-138883390D02*
X130000000Y-138692914D01*
X130000000Y-138692914D02*
X130142857Y-138883390D01*
X130761905Y-138454819D02*
X130761905Y-138692914D01*
X130523810Y-138597676D02*
X130761905Y-138692914D01*
X130761905Y-138692914D02*
X131000000Y-138597676D01*
X130619048Y-138883390D02*
X130761905Y-138692914D01*
X130761905Y-138692914D02*
X130904762Y-138883390D01*
X192666666Y-78154819D02*
X192333333Y-77678628D01*
X192095238Y-78154819D02*
X192095238Y-77154819D01*
X192095238Y-77154819D02*
X192476190Y-77154819D01*
X192476190Y-77154819D02*
X192571428Y-77202438D01*
X192571428Y-77202438D02*
X192619047Y-77250057D01*
X192619047Y-77250057D02*
X192666666Y-77345295D01*
X192666666Y-77345295D02*
X192666666Y-77488152D01*
X192666666Y-77488152D02*
X192619047Y-77583390D01*
X192619047Y-77583390D02*
X192571428Y-77631009D01*
X192571428Y-77631009D02*
X192476190Y-77678628D01*
X192476190Y-77678628D02*
X192095238Y-77678628D01*
X193095238Y-77631009D02*
X193428571Y-77631009D01*
X193571428Y-78154819D02*
X193095238Y-78154819D01*
X193095238Y-78154819D02*
X193095238Y-77154819D01*
X193095238Y-77154819D02*
X193571428Y-77154819D01*
X194333333Y-77631009D02*
X194000000Y-77631009D01*
X194000000Y-78154819D02*
X194000000Y-77154819D01*
X194000000Y-77154819D02*
X194476190Y-77154819D01*
X195000000Y-77154819D02*
X195000000Y-77392914D01*
X194761905Y-77297676D02*
X195000000Y-77392914D01*
X195000000Y-77392914D02*
X195238095Y-77297676D01*
X194857143Y-77583390D02*
X195000000Y-77392914D01*
X195000000Y-77392914D02*
X195142857Y-77583390D01*
X195761905Y-77154819D02*
X195761905Y-77392914D01*
X195523810Y-77297676D02*
X195761905Y-77392914D01*
X195761905Y-77392914D02*
X196000000Y-77297676D01*
X195619048Y-77583390D02*
X195761905Y-77392914D01*
X195761905Y-77392914D02*
X195904762Y-77583390D01*
X130833333Y-106104819D02*
X130500000Y-105628628D01*
X130261905Y-106104819D02*
X130261905Y-105104819D01*
X130261905Y-105104819D02*
X130642857Y-105104819D01*
X130642857Y-105104819D02*
X130738095Y-105152438D01*
X130738095Y-105152438D02*
X130785714Y-105200057D01*
X130785714Y-105200057D02*
X130833333Y-105295295D01*
X130833333Y-105295295D02*
X130833333Y-105438152D01*
X130833333Y-105438152D02*
X130785714Y-105533390D01*
X130785714Y-105533390D02*
X130738095Y-105581009D01*
X130738095Y-105581009D02*
X130642857Y-105628628D01*
X130642857Y-105628628D02*
X130261905Y-105628628D01*
X131214286Y-105200057D02*
X131261905Y-105152438D01*
X131261905Y-105152438D02*
X131357143Y-105104819D01*
X131357143Y-105104819D02*
X131595238Y-105104819D01*
X131595238Y-105104819D02*
X131690476Y-105152438D01*
X131690476Y-105152438D02*
X131738095Y-105200057D01*
X131738095Y-105200057D02*
X131785714Y-105295295D01*
X131785714Y-105295295D02*
X131785714Y-105390533D01*
X131785714Y-105390533D02*
X131738095Y-105533390D01*
X131738095Y-105533390D02*
X131166667Y-106104819D01*
X131166667Y-106104819D02*
X131785714Y-106104819D01*
X130833333Y-112104819D02*
X130500000Y-111628628D01*
X130261905Y-112104819D02*
X130261905Y-111104819D01*
X130261905Y-111104819D02*
X130642857Y-111104819D01*
X130642857Y-111104819D02*
X130738095Y-111152438D01*
X130738095Y-111152438D02*
X130785714Y-111200057D01*
X130785714Y-111200057D02*
X130833333Y-111295295D01*
X130833333Y-111295295D02*
X130833333Y-111438152D01*
X130833333Y-111438152D02*
X130785714Y-111533390D01*
X130785714Y-111533390D02*
X130738095Y-111581009D01*
X130738095Y-111581009D02*
X130642857Y-111628628D01*
X130642857Y-111628628D02*
X130261905Y-111628628D01*
X131166667Y-111104819D02*
X131785714Y-111104819D01*
X131785714Y-111104819D02*
X131452381Y-111485771D01*
X131452381Y-111485771D02*
X131595238Y-111485771D01*
X131595238Y-111485771D02*
X131690476Y-111533390D01*
X131690476Y-111533390D02*
X131738095Y-111581009D01*
X131738095Y-111581009D02*
X131785714Y-111676247D01*
X131785714Y-111676247D02*
X131785714Y-111914342D01*
X131785714Y-111914342D02*
X131738095Y-112009580D01*
X131738095Y-112009580D02*
X131690476Y-112057200D01*
X131690476Y-112057200D02*
X131595238Y-112104819D01*
X131595238Y-112104819D02*
X131309524Y-112104819D01*
X131309524Y-112104819D02*
X131214286Y-112057200D01*
X131214286Y-112057200D02*
X131166667Y-112009580D01*
X130833333Y-118104819D02*
X130500000Y-117628628D01*
X130261905Y-118104819D02*
X130261905Y-117104819D01*
X130261905Y-117104819D02*
X130642857Y-117104819D01*
X130642857Y-117104819D02*
X130738095Y-117152438D01*
X130738095Y-117152438D02*
X130785714Y-117200057D01*
X130785714Y-117200057D02*
X130833333Y-117295295D01*
X130833333Y-117295295D02*
X130833333Y-117438152D01*
X130833333Y-117438152D02*
X130785714Y-117533390D01*
X130785714Y-117533390D02*
X130738095Y-117581009D01*
X130738095Y-117581009D02*
X130642857Y-117628628D01*
X130642857Y-117628628D02*
X130261905Y-117628628D01*
X131690476Y-117438152D02*
X131690476Y-118104819D01*
X131452381Y-117057200D02*
X131214286Y-117771485D01*
X131214286Y-117771485D02*
X131833333Y-117771485D01*
X154344276Y-90510279D02*
X154344276Y-89510279D01*
X154344276Y-89510279D02*
X154677609Y-90224564D01*
X154677609Y-90224564D02*
X155010942Y-89510279D01*
X155010942Y-89510279D02*
X155010942Y-90510279D01*
X156010942Y-90510279D02*
X155439514Y-90510279D01*
X155725228Y-90510279D02*
X155725228Y-89510279D01*
X155725228Y-89510279D02*
X155629990Y-89653136D01*
X155629990Y-89653136D02*
X155534752Y-89748374D01*
X155534752Y-89748374D02*
X155439514Y-89795993D01*
X162751601Y-127962698D02*
X162656363Y-127915079D01*
X162656363Y-127915079D02*
X162513506Y-127915079D01*
X162513506Y-127915079D02*
X162370649Y-127962698D01*
X162370649Y-127962698D02*
X162275411Y-128057936D01*
X162275411Y-128057936D02*
X162227792Y-128153174D01*
X162227792Y-128153174D02*
X162180173Y-128343650D01*
X162180173Y-128343650D02*
X162180173Y-128486507D01*
X162180173Y-128486507D02*
X162227792Y-128676983D01*
X162227792Y-128676983D02*
X162275411Y-128772221D01*
X162275411Y-128772221D02*
X162370649Y-128867460D01*
X162370649Y-128867460D02*
X162513506Y-128915079D01*
X162513506Y-128915079D02*
X162608744Y-128915079D01*
X162608744Y-128915079D02*
X162751601Y-128867460D01*
X162751601Y-128867460D02*
X162799220Y-128819840D01*
X162799220Y-128819840D02*
X162799220Y-128486507D01*
X162799220Y-128486507D02*
X162608744Y-128486507D01*
X163227792Y-128915079D02*
X163227792Y-127915079D01*
X163227792Y-127915079D02*
X163799220Y-128915079D01*
X163799220Y-128915079D02*
X163799220Y-127915079D01*
X164275411Y-128915079D02*
X164275411Y-127915079D01*
X164275411Y-127915079D02*
X164513506Y-127915079D01*
X164513506Y-127915079D02*
X164656363Y-127962698D01*
X164656363Y-127962698D02*
X164751601Y-128057936D01*
X164751601Y-128057936D02*
X164799220Y-128153174D01*
X164799220Y-128153174D02*
X164846839Y-128343650D01*
X164846839Y-128343650D02*
X164846839Y-128486507D01*
X164846839Y-128486507D02*
X164799220Y-128676983D01*
X164799220Y-128676983D02*
X164751601Y-128772221D01*
X164751601Y-128772221D02*
X164656363Y-128867460D01*
X164656363Y-128867460D02*
X164513506Y-128915079D01*
X164513506Y-128915079D02*
X164275411Y-128915079D01*
X160370649Y-107642698D02*
X160275411Y-107595079D01*
X160275411Y-107595079D02*
X160132554Y-107595079D01*
X160132554Y-107595079D02*
X159989697Y-107642698D01*
X159989697Y-107642698D02*
X159894459Y-107737936D01*
X159894459Y-107737936D02*
X159846840Y-107833174D01*
X159846840Y-107833174D02*
X159799221Y-108023650D01*
X159799221Y-108023650D02*
X159799221Y-108166507D01*
X159799221Y-108166507D02*
X159846840Y-108356983D01*
X159846840Y-108356983D02*
X159894459Y-108452221D01*
X159894459Y-108452221D02*
X159989697Y-108547460D01*
X159989697Y-108547460D02*
X160132554Y-108595079D01*
X160132554Y-108595079D02*
X160227792Y-108595079D01*
X160227792Y-108595079D02*
X160370649Y-108547460D01*
X160370649Y-108547460D02*
X160418268Y-108499840D01*
X160418268Y-108499840D02*
X160418268Y-108166507D01*
X160418268Y-108166507D02*
X160227792Y-108166507D01*
X160846840Y-108595079D02*
X160846840Y-107595079D01*
X160846840Y-107595079D02*
X161227792Y-107595079D01*
X161227792Y-107595079D02*
X161323030Y-107642698D01*
X161323030Y-107642698D02*
X161370649Y-107690317D01*
X161370649Y-107690317D02*
X161418268Y-107785555D01*
X161418268Y-107785555D02*
X161418268Y-107928412D01*
X161418268Y-107928412D02*
X161370649Y-108023650D01*
X161370649Y-108023650D02*
X161323030Y-108071269D01*
X161323030Y-108071269D02*
X161227792Y-108118888D01*
X161227792Y-108118888D02*
X160846840Y-108118888D01*
X161846840Y-108595079D02*
X161846840Y-107595079D01*
X162513506Y-107595079D02*
X162703982Y-107595079D01*
X162703982Y-107595079D02*
X162799220Y-107642698D01*
X162799220Y-107642698D02*
X162894458Y-107737936D01*
X162894458Y-107737936D02*
X162942077Y-107928412D01*
X162942077Y-107928412D02*
X162942077Y-108261745D01*
X162942077Y-108261745D02*
X162894458Y-108452221D01*
X162894458Y-108452221D02*
X162799220Y-108547460D01*
X162799220Y-108547460D02*
X162703982Y-108595079D01*
X162703982Y-108595079D02*
X162513506Y-108595079D01*
X162513506Y-108595079D02*
X162418268Y-108547460D01*
X162418268Y-108547460D02*
X162323030Y-108452221D01*
X162323030Y-108452221D02*
X162275411Y-108261745D01*
X162275411Y-108261745D02*
X162275411Y-107928412D01*
X162275411Y-107928412D02*
X162323030Y-107737936D01*
X162323030Y-107737936D02*
X162418268Y-107642698D01*
X162418268Y-107642698D02*
X162513506Y-107595079D01*
X163323030Y-107690317D02*
X163370649Y-107642698D01*
X163370649Y-107642698D02*
X163465887Y-107595079D01*
X163465887Y-107595079D02*
X163703982Y-107595079D01*
X163703982Y-107595079D02*
X163799220Y-107642698D01*
X163799220Y-107642698D02*
X163846839Y-107690317D01*
X163846839Y-107690317D02*
X163894458Y-107785555D01*
X163894458Y-107785555D02*
X163894458Y-107880793D01*
X163894458Y-107880793D02*
X163846839Y-108023650D01*
X163846839Y-108023650D02*
X163275411Y-108595079D01*
X163275411Y-108595079D02*
X163894458Y-108595079D01*
X164513506Y-107595079D02*
X164608744Y-107595079D01*
X164608744Y-107595079D02*
X164703982Y-107642698D01*
X164703982Y-107642698D02*
X164751601Y-107690317D01*
X164751601Y-107690317D02*
X164799220Y-107785555D01*
X164799220Y-107785555D02*
X164846839Y-107976031D01*
X164846839Y-107976031D02*
X164846839Y-108214126D01*
X164846839Y-108214126D02*
X164799220Y-108404602D01*
X164799220Y-108404602D02*
X164751601Y-108499840D01*
X164751601Y-108499840D02*
X164703982Y-108547460D01*
X164703982Y-108547460D02*
X164608744Y-108595079D01*
X164608744Y-108595079D02*
X164513506Y-108595079D01*
X164513506Y-108595079D02*
X164418268Y-108547460D01*
X164418268Y-108547460D02*
X164370649Y-108499840D01*
X164370649Y-108499840D02*
X164323030Y-108404602D01*
X164323030Y-108404602D02*
X164275411Y-108214126D01*
X164275411Y-108214126D02*
X164275411Y-107976031D01*
X164275411Y-107976031D02*
X164323030Y-107785555D01*
X164323030Y-107785555D02*
X164370649Y-107690317D01*
X164370649Y-107690317D02*
X164418268Y-107642698D01*
X164418268Y-107642698D02*
X164513506Y-107595079D01*
X145676588Y-107642698D02*
X145581350Y-107595079D01*
X145581350Y-107595079D02*
X145438493Y-107595079D01*
X145438493Y-107595079D02*
X145295636Y-107642698D01*
X145295636Y-107642698D02*
X145200398Y-107737936D01*
X145200398Y-107737936D02*
X145152779Y-107833174D01*
X145152779Y-107833174D02*
X145105160Y-108023650D01*
X145105160Y-108023650D02*
X145105160Y-108166507D01*
X145105160Y-108166507D02*
X145152779Y-108356983D01*
X145152779Y-108356983D02*
X145200398Y-108452221D01*
X145200398Y-108452221D02*
X145295636Y-108547460D01*
X145295636Y-108547460D02*
X145438493Y-108595079D01*
X145438493Y-108595079D02*
X145533731Y-108595079D01*
X145533731Y-108595079D02*
X145676588Y-108547460D01*
X145676588Y-108547460D02*
X145724207Y-108499840D01*
X145724207Y-108499840D02*
X145724207Y-108166507D01*
X145724207Y-108166507D02*
X145533731Y-108166507D01*
X146152779Y-108595079D02*
X146152779Y-107595079D01*
X146152779Y-107595079D02*
X146533731Y-107595079D01*
X146533731Y-107595079D02*
X146628969Y-107642698D01*
X146628969Y-107642698D02*
X146676588Y-107690317D01*
X146676588Y-107690317D02*
X146724207Y-107785555D01*
X146724207Y-107785555D02*
X146724207Y-107928412D01*
X146724207Y-107928412D02*
X146676588Y-108023650D01*
X146676588Y-108023650D02*
X146628969Y-108071269D01*
X146628969Y-108071269D02*
X146533731Y-108118888D01*
X146533731Y-108118888D02*
X146152779Y-108118888D01*
X147152779Y-108595079D02*
X147152779Y-107595079D01*
X147819445Y-107595079D02*
X148009921Y-107595079D01*
X148009921Y-107595079D02*
X148105159Y-107642698D01*
X148105159Y-107642698D02*
X148200397Y-107737936D01*
X148200397Y-107737936D02*
X148248016Y-107928412D01*
X148248016Y-107928412D02*
X148248016Y-108261745D01*
X148248016Y-108261745D02*
X148200397Y-108452221D01*
X148200397Y-108452221D02*
X148105159Y-108547460D01*
X148105159Y-108547460D02*
X148009921Y-108595079D01*
X148009921Y-108595079D02*
X147819445Y-108595079D01*
X147819445Y-108595079D02*
X147724207Y-108547460D01*
X147724207Y-108547460D02*
X147628969Y-108452221D01*
X147628969Y-108452221D02*
X147581350Y-108261745D01*
X147581350Y-108261745D02*
X147581350Y-107928412D01*
X147581350Y-107928412D02*
X147628969Y-107737936D01*
X147628969Y-107737936D02*
X147724207Y-107642698D01*
X147724207Y-107642698D02*
X147819445Y-107595079D01*
X148867064Y-107595079D02*
X148962302Y-107595079D01*
X148962302Y-107595079D02*
X149057540Y-107642698D01*
X149057540Y-107642698D02*
X149105159Y-107690317D01*
X149105159Y-107690317D02*
X149152778Y-107785555D01*
X149152778Y-107785555D02*
X149200397Y-107976031D01*
X149200397Y-107976031D02*
X149200397Y-108214126D01*
X149200397Y-108214126D02*
X149152778Y-108404602D01*
X149152778Y-108404602D02*
X149105159Y-108499840D01*
X149105159Y-108499840D02*
X149057540Y-108547460D01*
X149057540Y-108547460D02*
X148962302Y-108595079D01*
X148962302Y-108595079D02*
X148867064Y-108595079D01*
X148867064Y-108595079D02*
X148771826Y-108547460D01*
X148771826Y-108547460D02*
X148724207Y-108499840D01*
X148724207Y-108499840D02*
X148676588Y-108404602D01*
X148676588Y-108404602D02*
X148628969Y-108214126D01*
X148628969Y-108214126D02*
X148628969Y-107976031D01*
X148628969Y-107976031D02*
X148676588Y-107785555D01*
X148676588Y-107785555D02*
X148724207Y-107690317D01*
X148724207Y-107690317D02*
X148771826Y-107642698D01*
X148771826Y-107642698D02*
X148867064Y-107595079D01*
X149486112Y-108214126D02*
X149533731Y-108166507D01*
X149533731Y-108166507D02*
X149628969Y-108118888D01*
X149628969Y-108118888D02*
X149819445Y-108214126D01*
X149819445Y-108214126D02*
X149914683Y-108166507D01*
X149914683Y-108166507D02*
X149962302Y-108118888D01*
X160370649Y-115262698D02*
X160275411Y-115215079D01*
X160275411Y-115215079D02*
X160132554Y-115215079D01*
X160132554Y-115215079D02*
X159989697Y-115262698D01*
X159989697Y-115262698D02*
X159894459Y-115357936D01*
X159894459Y-115357936D02*
X159846840Y-115453174D01*
X159846840Y-115453174D02*
X159799221Y-115643650D01*
X159799221Y-115643650D02*
X159799221Y-115786507D01*
X159799221Y-115786507D02*
X159846840Y-115976983D01*
X159846840Y-115976983D02*
X159894459Y-116072221D01*
X159894459Y-116072221D02*
X159989697Y-116167460D01*
X159989697Y-116167460D02*
X160132554Y-116215079D01*
X160132554Y-116215079D02*
X160227792Y-116215079D01*
X160227792Y-116215079D02*
X160370649Y-116167460D01*
X160370649Y-116167460D02*
X160418268Y-116119840D01*
X160418268Y-116119840D02*
X160418268Y-115786507D01*
X160418268Y-115786507D02*
X160227792Y-115786507D01*
X160846840Y-116215079D02*
X160846840Y-115215079D01*
X160846840Y-115215079D02*
X161227792Y-115215079D01*
X161227792Y-115215079D02*
X161323030Y-115262698D01*
X161323030Y-115262698D02*
X161370649Y-115310317D01*
X161370649Y-115310317D02*
X161418268Y-115405555D01*
X161418268Y-115405555D02*
X161418268Y-115548412D01*
X161418268Y-115548412D02*
X161370649Y-115643650D01*
X161370649Y-115643650D02*
X161323030Y-115691269D01*
X161323030Y-115691269D02*
X161227792Y-115738888D01*
X161227792Y-115738888D02*
X160846840Y-115738888D01*
X161846840Y-116215079D02*
X161846840Y-115215079D01*
X162513506Y-115215079D02*
X162703982Y-115215079D01*
X162703982Y-115215079D02*
X162799220Y-115262698D01*
X162799220Y-115262698D02*
X162894458Y-115357936D01*
X162894458Y-115357936D02*
X162942077Y-115548412D01*
X162942077Y-115548412D02*
X162942077Y-115881745D01*
X162942077Y-115881745D02*
X162894458Y-116072221D01*
X162894458Y-116072221D02*
X162799220Y-116167460D01*
X162799220Y-116167460D02*
X162703982Y-116215079D01*
X162703982Y-116215079D02*
X162513506Y-116215079D01*
X162513506Y-116215079D02*
X162418268Y-116167460D01*
X162418268Y-116167460D02*
X162323030Y-116072221D01*
X162323030Y-116072221D02*
X162275411Y-115881745D01*
X162275411Y-115881745D02*
X162275411Y-115548412D01*
X162275411Y-115548412D02*
X162323030Y-115357936D01*
X162323030Y-115357936D02*
X162418268Y-115262698D01*
X162418268Y-115262698D02*
X162513506Y-115215079D01*
X163894458Y-116215079D02*
X163323030Y-116215079D01*
X163608744Y-116215079D02*
X163608744Y-115215079D01*
X163608744Y-115215079D02*
X163513506Y-115357936D01*
X163513506Y-115357936D02*
X163418268Y-115453174D01*
X163418268Y-115453174D02*
X163323030Y-115500793D01*
X164799220Y-115215079D02*
X164323030Y-115215079D01*
X164323030Y-115215079D02*
X164275411Y-115691269D01*
X164275411Y-115691269D02*
X164323030Y-115643650D01*
X164323030Y-115643650D02*
X164418268Y-115596031D01*
X164418268Y-115596031D02*
X164656363Y-115596031D01*
X164656363Y-115596031D02*
X164751601Y-115643650D01*
X164751601Y-115643650D02*
X164799220Y-115691269D01*
X164799220Y-115691269D02*
X164846839Y-115786507D01*
X164846839Y-115786507D02*
X164846839Y-116024602D01*
X164846839Y-116024602D02*
X164799220Y-116119840D01*
X164799220Y-116119840D02*
X164751601Y-116167460D01*
X164751601Y-116167460D02*
X164656363Y-116215079D01*
X164656363Y-116215079D02*
X164418268Y-116215079D01*
X164418268Y-116215079D02*
X164323030Y-116167460D01*
X164323030Y-116167460D02*
X164275411Y-116119840D01*
X145628969Y-125375079D02*
X145152779Y-125375079D01*
X145152779Y-125375079D02*
X145105160Y-125851269D01*
X145105160Y-125851269D02*
X145152779Y-125803650D01*
X145152779Y-125803650D02*
X145248017Y-125756031D01*
X145248017Y-125756031D02*
X145486112Y-125756031D01*
X145486112Y-125756031D02*
X145581350Y-125803650D01*
X145581350Y-125803650D02*
X145628969Y-125851269D01*
X145628969Y-125851269D02*
X145676588Y-125946507D01*
X145676588Y-125946507D02*
X145676588Y-126184602D01*
X145676588Y-126184602D02*
X145628969Y-126279840D01*
X145628969Y-126279840D02*
X145581350Y-126327460D01*
X145581350Y-126327460D02*
X145486112Y-126375079D01*
X145486112Y-126375079D02*
X145248017Y-126375079D01*
X145248017Y-126375079D02*
X145152779Y-126327460D01*
X145152779Y-126327460D02*
X145105160Y-126279840D01*
X145962303Y-125375079D02*
X146295636Y-126375079D01*
X146295636Y-126375079D02*
X146628969Y-125375079D01*
X145676588Y-127962698D02*
X145581350Y-127915079D01*
X145581350Y-127915079D02*
X145438493Y-127915079D01*
X145438493Y-127915079D02*
X145295636Y-127962698D01*
X145295636Y-127962698D02*
X145200398Y-128057936D01*
X145200398Y-128057936D02*
X145152779Y-128153174D01*
X145152779Y-128153174D02*
X145105160Y-128343650D01*
X145105160Y-128343650D02*
X145105160Y-128486507D01*
X145105160Y-128486507D02*
X145152779Y-128676983D01*
X145152779Y-128676983D02*
X145200398Y-128772221D01*
X145200398Y-128772221D02*
X145295636Y-128867460D01*
X145295636Y-128867460D02*
X145438493Y-128915079D01*
X145438493Y-128915079D02*
X145533731Y-128915079D01*
X145533731Y-128915079D02*
X145676588Y-128867460D01*
X145676588Y-128867460D02*
X145724207Y-128819840D01*
X145724207Y-128819840D02*
X145724207Y-128486507D01*
X145724207Y-128486507D02*
X145533731Y-128486507D01*
X146152779Y-128915079D02*
X146152779Y-127915079D01*
X146152779Y-127915079D02*
X146724207Y-128915079D01*
X146724207Y-128915079D02*
X146724207Y-127915079D01*
X147200398Y-128915079D02*
X147200398Y-127915079D01*
X147200398Y-127915079D02*
X147438493Y-127915079D01*
X147438493Y-127915079D02*
X147581350Y-127962698D01*
X147581350Y-127962698D02*
X147676588Y-128057936D01*
X147676588Y-128057936D02*
X147724207Y-128153174D01*
X147724207Y-128153174D02*
X147771826Y-128343650D01*
X147771826Y-128343650D02*
X147771826Y-128486507D01*
X147771826Y-128486507D02*
X147724207Y-128676983D01*
X147724207Y-128676983D02*
X147676588Y-128772221D01*
X147676588Y-128772221D02*
X147581350Y-128867460D01*
X147581350Y-128867460D02*
X147438493Y-128915079D01*
X147438493Y-128915079D02*
X147200398Y-128915079D01*
X145057541Y-92355079D02*
X145676588Y-92355079D01*
X145676588Y-92355079D02*
X145343255Y-92736031D01*
X145343255Y-92736031D02*
X145486112Y-92736031D01*
X145486112Y-92736031D02*
X145581350Y-92783650D01*
X145581350Y-92783650D02*
X145628969Y-92831269D01*
X145628969Y-92831269D02*
X145676588Y-92926507D01*
X145676588Y-92926507D02*
X145676588Y-93164602D01*
X145676588Y-93164602D02*
X145628969Y-93259840D01*
X145628969Y-93259840D02*
X145581350Y-93307460D01*
X145581350Y-93307460D02*
X145486112Y-93355079D01*
X145486112Y-93355079D02*
X145200398Y-93355079D01*
X145200398Y-93355079D02*
X145105160Y-93307460D01*
X145105160Y-93307460D02*
X145057541Y-93259840D01*
X145962303Y-92355079D02*
X146295636Y-93355079D01*
X146295636Y-93355079D02*
X146628969Y-92355079D01*
X146867065Y-92355079D02*
X147486112Y-92355079D01*
X147486112Y-92355079D02*
X147152779Y-92736031D01*
X147152779Y-92736031D02*
X147295636Y-92736031D01*
X147295636Y-92736031D02*
X147390874Y-92783650D01*
X147390874Y-92783650D02*
X147438493Y-92831269D01*
X147438493Y-92831269D02*
X147486112Y-92926507D01*
X147486112Y-92926507D02*
X147486112Y-93164602D01*
X147486112Y-93164602D02*
X147438493Y-93259840D01*
X147438493Y-93259840D02*
X147390874Y-93307460D01*
X147390874Y-93307460D02*
X147295636Y-93355079D01*
X147295636Y-93355079D02*
X147009922Y-93355079D01*
X147009922Y-93355079D02*
X146914684Y-93307460D01*
X146914684Y-93307460D02*
X146867065Y-93259840D01*
X146270562Y-135759879D02*
X146270562Y-136569402D01*
X146270562Y-136569402D02*
X146318181Y-136664640D01*
X146318181Y-136664640D02*
X146365800Y-136712260D01*
X146365800Y-136712260D02*
X146461038Y-136759879D01*
X146461038Y-136759879D02*
X146651514Y-136759879D01*
X146651514Y-136759879D02*
X146746752Y-136712260D01*
X146746752Y-136712260D02*
X146794371Y-136664640D01*
X146794371Y-136664640D02*
X146841990Y-136569402D01*
X146841990Y-136569402D02*
X146841990Y-135759879D01*
X147270562Y-136474164D02*
X147746752Y-136474164D01*
X147175324Y-136759879D02*
X147508657Y-135759879D01*
X147508657Y-135759879D02*
X147841990Y-136759879D01*
X148746752Y-136759879D02*
X148413419Y-136283688D01*
X148175324Y-136759879D02*
X148175324Y-135759879D01*
X148175324Y-135759879D02*
X148556276Y-135759879D01*
X148556276Y-135759879D02*
X148651514Y-135807498D01*
X148651514Y-135807498D02*
X148699133Y-135855117D01*
X148699133Y-135855117D02*
X148746752Y-135950355D01*
X148746752Y-135950355D02*
X148746752Y-136093212D01*
X148746752Y-136093212D02*
X148699133Y-136188450D01*
X148699133Y-136188450D02*
X148651514Y-136236069D01*
X148651514Y-136236069D02*
X148556276Y-136283688D01*
X148556276Y-136283688D02*
X148175324Y-136283688D01*
X149032467Y-135759879D02*
X149603895Y-135759879D01*
X149318181Y-136759879D02*
X149318181Y-135759879D01*
X145047921Y-95371269D02*
X145381254Y-95371269D01*
X145524111Y-95895079D02*
X145047921Y-95895079D01*
X145047921Y-95895079D02*
X145047921Y-94895079D01*
X145047921Y-94895079D02*
X145524111Y-94895079D01*
X145952683Y-95895079D02*
X145952683Y-94895079D01*
X145952683Y-94895079D02*
X146524111Y-95895079D01*
X146524111Y-95895079D02*
X146524111Y-94895079D01*
X147714587Y-94847460D02*
X146857445Y-96133174D01*
X148619349Y-95895079D02*
X148286016Y-95418888D01*
X148047921Y-95895079D02*
X148047921Y-94895079D01*
X148047921Y-94895079D02*
X148428873Y-94895079D01*
X148428873Y-94895079D02*
X148524111Y-94942698D01*
X148524111Y-94942698D02*
X148571730Y-94990317D01*
X148571730Y-94990317D02*
X148619349Y-95085555D01*
X148619349Y-95085555D02*
X148619349Y-95228412D01*
X148619349Y-95228412D02*
X148571730Y-95323650D01*
X148571730Y-95323650D02*
X148524111Y-95371269D01*
X148524111Y-95371269D02*
X148428873Y-95418888D01*
X148428873Y-95418888D02*
X148047921Y-95418888D01*
X149047921Y-95371269D02*
X149381254Y-95371269D01*
X149524111Y-95895079D02*
X149047921Y-95895079D01*
X149047921Y-95895079D02*
X149047921Y-94895079D01*
X149047921Y-94895079D02*
X149524111Y-94895079D01*
X149905064Y-95847460D02*
X150047921Y-95895079D01*
X150047921Y-95895079D02*
X150286016Y-95895079D01*
X150286016Y-95895079D02*
X150381254Y-95847460D01*
X150381254Y-95847460D02*
X150428873Y-95799840D01*
X150428873Y-95799840D02*
X150476492Y-95704602D01*
X150476492Y-95704602D02*
X150476492Y-95609364D01*
X150476492Y-95609364D02*
X150428873Y-95514126D01*
X150428873Y-95514126D02*
X150381254Y-95466507D01*
X150381254Y-95466507D02*
X150286016Y-95418888D01*
X150286016Y-95418888D02*
X150095540Y-95371269D01*
X150095540Y-95371269D02*
X150000302Y-95323650D01*
X150000302Y-95323650D02*
X149952683Y-95276031D01*
X149952683Y-95276031D02*
X149905064Y-95180793D01*
X149905064Y-95180793D02*
X149905064Y-95085555D01*
X149905064Y-95085555D02*
X149952683Y-94990317D01*
X149952683Y-94990317D02*
X150000302Y-94942698D01*
X150000302Y-94942698D02*
X150095540Y-94895079D01*
X150095540Y-94895079D02*
X150333635Y-94895079D01*
X150333635Y-94895079D02*
X150476492Y-94942698D01*
X150905064Y-95371269D02*
X151238397Y-95371269D01*
X151381254Y-95895079D02*
X150905064Y-95895079D01*
X150905064Y-95895079D02*
X150905064Y-94895079D01*
X150905064Y-94895079D02*
X151381254Y-94895079D01*
X151666969Y-94895079D02*
X152238397Y-94895079D01*
X151952683Y-95895079D02*
X151952683Y-94895079D01*
X145676588Y-120342698D02*
X145581350Y-120295079D01*
X145581350Y-120295079D02*
X145438493Y-120295079D01*
X145438493Y-120295079D02*
X145295636Y-120342698D01*
X145295636Y-120342698D02*
X145200398Y-120437936D01*
X145200398Y-120437936D02*
X145152779Y-120533174D01*
X145152779Y-120533174D02*
X145105160Y-120723650D01*
X145105160Y-120723650D02*
X145105160Y-120866507D01*
X145105160Y-120866507D02*
X145152779Y-121056983D01*
X145152779Y-121056983D02*
X145200398Y-121152221D01*
X145200398Y-121152221D02*
X145295636Y-121247460D01*
X145295636Y-121247460D02*
X145438493Y-121295079D01*
X145438493Y-121295079D02*
X145533731Y-121295079D01*
X145533731Y-121295079D02*
X145676588Y-121247460D01*
X145676588Y-121247460D02*
X145724207Y-121199840D01*
X145724207Y-121199840D02*
X145724207Y-120866507D01*
X145724207Y-120866507D02*
X145533731Y-120866507D01*
X146152779Y-121295079D02*
X146152779Y-120295079D01*
X146152779Y-120295079D02*
X146533731Y-120295079D01*
X146533731Y-120295079D02*
X146628969Y-120342698D01*
X146628969Y-120342698D02*
X146676588Y-120390317D01*
X146676588Y-120390317D02*
X146724207Y-120485555D01*
X146724207Y-120485555D02*
X146724207Y-120628412D01*
X146724207Y-120628412D02*
X146676588Y-120723650D01*
X146676588Y-120723650D02*
X146628969Y-120771269D01*
X146628969Y-120771269D02*
X146533731Y-120818888D01*
X146533731Y-120818888D02*
X146152779Y-120818888D01*
X147152779Y-121295079D02*
X147152779Y-120295079D01*
X147819445Y-120295079D02*
X148009921Y-120295079D01*
X148009921Y-120295079D02*
X148105159Y-120342698D01*
X148105159Y-120342698D02*
X148200397Y-120437936D01*
X148200397Y-120437936D02*
X148248016Y-120628412D01*
X148248016Y-120628412D02*
X148248016Y-120961745D01*
X148248016Y-120961745D02*
X148200397Y-121152221D01*
X148200397Y-121152221D02*
X148105159Y-121247460D01*
X148105159Y-121247460D02*
X148009921Y-121295079D01*
X148009921Y-121295079D02*
X147819445Y-121295079D01*
X147819445Y-121295079D02*
X147724207Y-121247460D01*
X147724207Y-121247460D02*
X147628969Y-121152221D01*
X147628969Y-121152221D02*
X147581350Y-120961745D01*
X147581350Y-120961745D02*
X147581350Y-120628412D01*
X147581350Y-120628412D02*
X147628969Y-120437936D01*
X147628969Y-120437936D02*
X147724207Y-120342698D01*
X147724207Y-120342698D02*
X147819445Y-120295079D01*
X149200397Y-121295079D02*
X148628969Y-121295079D01*
X148914683Y-121295079D02*
X148914683Y-120295079D01*
X148914683Y-120295079D02*
X148819445Y-120437936D01*
X148819445Y-120437936D02*
X148724207Y-120533174D01*
X148724207Y-120533174D02*
X148628969Y-120580793D01*
X150057540Y-120628412D02*
X150057540Y-121295079D01*
X149819445Y-120247460D02*
X149581350Y-120961745D01*
X149581350Y-120961745D02*
X150200397Y-120961745D01*
X152608744Y-125422698D02*
X152513506Y-125375079D01*
X152513506Y-125375079D02*
X152370649Y-125375079D01*
X152370649Y-125375079D02*
X152227792Y-125422698D01*
X152227792Y-125422698D02*
X152132554Y-125517936D01*
X152132554Y-125517936D02*
X152084935Y-125613174D01*
X152084935Y-125613174D02*
X152037316Y-125803650D01*
X152037316Y-125803650D02*
X152037316Y-125946507D01*
X152037316Y-125946507D02*
X152084935Y-126136983D01*
X152084935Y-126136983D02*
X152132554Y-126232221D01*
X152132554Y-126232221D02*
X152227792Y-126327460D01*
X152227792Y-126327460D02*
X152370649Y-126375079D01*
X152370649Y-126375079D02*
X152465887Y-126375079D01*
X152465887Y-126375079D02*
X152608744Y-126327460D01*
X152608744Y-126327460D02*
X152656363Y-126279840D01*
X152656363Y-126279840D02*
X152656363Y-125946507D01*
X152656363Y-125946507D02*
X152465887Y-125946507D01*
X153084935Y-126375079D02*
X153084935Y-125375079D01*
X153084935Y-125375079D02*
X153465887Y-125375079D01*
X153465887Y-125375079D02*
X153561125Y-125422698D01*
X153561125Y-125422698D02*
X153608744Y-125470317D01*
X153608744Y-125470317D02*
X153656363Y-125565555D01*
X153656363Y-125565555D02*
X153656363Y-125708412D01*
X153656363Y-125708412D02*
X153608744Y-125803650D01*
X153608744Y-125803650D02*
X153561125Y-125851269D01*
X153561125Y-125851269D02*
X153465887Y-125898888D01*
X153465887Y-125898888D02*
X153084935Y-125898888D01*
X154084935Y-126375079D02*
X154084935Y-125375079D01*
X154751601Y-125375079D02*
X154942077Y-125375079D01*
X154942077Y-125375079D02*
X155037315Y-125422698D01*
X155037315Y-125422698D02*
X155132553Y-125517936D01*
X155132553Y-125517936D02*
X155180172Y-125708412D01*
X155180172Y-125708412D02*
X155180172Y-126041745D01*
X155180172Y-126041745D02*
X155132553Y-126232221D01*
X155132553Y-126232221D02*
X155037315Y-126327460D01*
X155037315Y-126327460D02*
X154942077Y-126375079D01*
X154942077Y-126375079D02*
X154751601Y-126375079D01*
X154751601Y-126375079D02*
X154656363Y-126327460D01*
X154656363Y-126327460D02*
X154561125Y-126232221D01*
X154561125Y-126232221D02*
X154513506Y-126041745D01*
X154513506Y-126041745D02*
X154513506Y-125708412D01*
X154513506Y-125708412D02*
X154561125Y-125517936D01*
X154561125Y-125517936D02*
X154656363Y-125422698D01*
X154656363Y-125422698D02*
X154751601Y-125375079D01*
X156132553Y-126375079D02*
X155561125Y-126375079D01*
X155846839Y-126375079D02*
X155846839Y-125375079D01*
X155846839Y-125375079D02*
X155751601Y-125517936D01*
X155751601Y-125517936D02*
X155656363Y-125613174D01*
X155656363Y-125613174D02*
X155561125Y-125660793D01*
X156513506Y-125470317D02*
X156561125Y-125422698D01*
X156561125Y-125422698D02*
X156656363Y-125375079D01*
X156656363Y-125375079D02*
X156894458Y-125375079D01*
X156894458Y-125375079D02*
X156989696Y-125422698D01*
X156989696Y-125422698D02*
X157037315Y-125470317D01*
X157037315Y-125470317D02*
X157084934Y-125565555D01*
X157084934Y-125565555D02*
X157084934Y-125660793D01*
X157084934Y-125660793D02*
X157037315Y-125803650D01*
X157037315Y-125803650D02*
X156465887Y-126375079D01*
X156465887Y-126375079D02*
X157084934Y-126375079D01*
X157370649Y-125994126D02*
X157418268Y-125946507D01*
X157418268Y-125946507D02*
X157513506Y-125898888D01*
X157513506Y-125898888D02*
X157703982Y-125994126D01*
X157703982Y-125994126D02*
X157799220Y-125946507D01*
X157799220Y-125946507D02*
X157846839Y-125898888D01*
X158942077Y-125327460D02*
X158084935Y-126613174D01*
X159275411Y-125375079D02*
X159275411Y-126184602D01*
X159275411Y-126184602D02*
X159323030Y-126279840D01*
X159323030Y-126279840D02*
X159370649Y-126327460D01*
X159370649Y-126327460D02*
X159465887Y-126375079D01*
X159465887Y-126375079D02*
X159656363Y-126375079D01*
X159656363Y-126375079D02*
X159751601Y-126327460D01*
X159751601Y-126327460D02*
X159799220Y-126279840D01*
X159799220Y-126279840D02*
X159846839Y-126184602D01*
X159846839Y-126184602D02*
X159846839Y-125375079D01*
X160275411Y-126327460D02*
X160418268Y-126375079D01*
X160418268Y-126375079D02*
X160656363Y-126375079D01*
X160656363Y-126375079D02*
X160751601Y-126327460D01*
X160751601Y-126327460D02*
X160799220Y-126279840D01*
X160799220Y-126279840D02*
X160846839Y-126184602D01*
X160846839Y-126184602D02*
X160846839Y-126089364D01*
X160846839Y-126089364D02*
X160799220Y-125994126D01*
X160799220Y-125994126D02*
X160751601Y-125946507D01*
X160751601Y-125946507D02*
X160656363Y-125898888D01*
X160656363Y-125898888D02*
X160465887Y-125851269D01*
X160465887Y-125851269D02*
X160370649Y-125803650D01*
X160370649Y-125803650D02*
X160323030Y-125756031D01*
X160323030Y-125756031D02*
X160275411Y-125660793D01*
X160275411Y-125660793D02*
X160275411Y-125565555D01*
X160275411Y-125565555D02*
X160323030Y-125470317D01*
X160323030Y-125470317D02*
X160370649Y-125422698D01*
X160370649Y-125422698D02*
X160465887Y-125375079D01*
X160465887Y-125375079D02*
X160703982Y-125375079D01*
X160703982Y-125375079D02*
X160846839Y-125422698D01*
X161608744Y-125851269D02*
X161751601Y-125898888D01*
X161751601Y-125898888D02*
X161799220Y-125946507D01*
X161799220Y-125946507D02*
X161846839Y-126041745D01*
X161846839Y-126041745D02*
X161846839Y-126184602D01*
X161846839Y-126184602D02*
X161799220Y-126279840D01*
X161799220Y-126279840D02*
X161751601Y-126327460D01*
X161751601Y-126327460D02*
X161656363Y-126375079D01*
X161656363Y-126375079D02*
X161275411Y-126375079D01*
X161275411Y-126375079D02*
X161275411Y-125375079D01*
X161275411Y-125375079D02*
X161608744Y-125375079D01*
X161608744Y-125375079D02*
X161703982Y-125422698D01*
X161703982Y-125422698D02*
X161751601Y-125470317D01*
X161751601Y-125470317D02*
X161799220Y-125565555D01*
X161799220Y-125565555D02*
X161799220Y-125660793D01*
X161799220Y-125660793D02*
X161751601Y-125756031D01*
X161751601Y-125756031D02*
X161703982Y-125803650D01*
X161703982Y-125803650D02*
X161608744Y-125851269D01*
X161608744Y-125851269D02*
X161275411Y-125851269D01*
X162037316Y-126470317D02*
X162799220Y-126470317D01*
X163037316Y-126375079D02*
X163037316Y-125375079D01*
X163037316Y-125375079D02*
X163275411Y-125375079D01*
X163275411Y-125375079D02*
X163418268Y-125422698D01*
X163418268Y-125422698D02*
X163513506Y-125517936D01*
X163513506Y-125517936D02*
X163561125Y-125613174D01*
X163561125Y-125613174D02*
X163608744Y-125803650D01*
X163608744Y-125803650D02*
X163608744Y-125946507D01*
X163608744Y-125946507D02*
X163561125Y-126136983D01*
X163561125Y-126136983D02*
X163513506Y-126232221D01*
X163513506Y-126232221D02*
X163418268Y-126327460D01*
X163418268Y-126327460D02*
X163275411Y-126375079D01*
X163275411Y-126375079D02*
X163037316Y-126375079D01*
X164037316Y-125994126D02*
X164799221Y-125994126D01*
X160370649Y-110182698D02*
X160275411Y-110135079D01*
X160275411Y-110135079D02*
X160132554Y-110135079D01*
X160132554Y-110135079D02*
X159989697Y-110182698D01*
X159989697Y-110182698D02*
X159894459Y-110277936D01*
X159894459Y-110277936D02*
X159846840Y-110373174D01*
X159846840Y-110373174D02*
X159799221Y-110563650D01*
X159799221Y-110563650D02*
X159799221Y-110706507D01*
X159799221Y-110706507D02*
X159846840Y-110896983D01*
X159846840Y-110896983D02*
X159894459Y-110992221D01*
X159894459Y-110992221D02*
X159989697Y-111087460D01*
X159989697Y-111087460D02*
X160132554Y-111135079D01*
X160132554Y-111135079D02*
X160227792Y-111135079D01*
X160227792Y-111135079D02*
X160370649Y-111087460D01*
X160370649Y-111087460D02*
X160418268Y-111039840D01*
X160418268Y-111039840D02*
X160418268Y-110706507D01*
X160418268Y-110706507D02*
X160227792Y-110706507D01*
X160846840Y-111135079D02*
X160846840Y-110135079D01*
X160846840Y-110135079D02*
X161227792Y-110135079D01*
X161227792Y-110135079D02*
X161323030Y-110182698D01*
X161323030Y-110182698D02*
X161370649Y-110230317D01*
X161370649Y-110230317D02*
X161418268Y-110325555D01*
X161418268Y-110325555D02*
X161418268Y-110468412D01*
X161418268Y-110468412D02*
X161370649Y-110563650D01*
X161370649Y-110563650D02*
X161323030Y-110611269D01*
X161323030Y-110611269D02*
X161227792Y-110658888D01*
X161227792Y-110658888D02*
X160846840Y-110658888D01*
X161846840Y-111135079D02*
X161846840Y-110135079D01*
X162513506Y-110135079D02*
X162703982Y-110135079D01*
X162703982Y-110135079D02*
X162799220Y-110182698D01*
X162799220Y-110182698D02*
X162894458Y-110277936D01*
X162894458Y-110277936D02*
X162942077Y-110468412D01*
X162942077Y-110468412D02*
X162942077Y-110801745D01*
X162942077Y-110801745D02*
X162894458Y-110992221D01*
X162894458Y-110992221D02*
X162799220Y-111087460D01*
X162799220Y-111087460D02*
X162703982Y-111135079D01*
X162703982Y-111135079D02*
X162513506Y-111135079D01*
X162513506Y-111135079D02*
X162418268Y-111087460D01*
X162418268Y-111087460D02*
X162323030Y-110992221D01*
X162323030Y-110992221D02*
X162275411Y-110801745D01*
X162275411Y-110801745D02*
X162275411Y-110468412D01*
X162275411Y-110468412D02*
X162323030Y-110277936D01*
X162323030Y-110277936D02*
X162418268Y-110182698D01*
X162418268Y-110182698D02*
X162513506Y-110135079D01*
X163894458Y-111135079D02*
X163323030Y-111135079D01*
X163608744Y-111135079D02*
X163608744Y-110135079D01*
X163608744Y-110135079D02*
X163513506Y-110277936D01*
X163513506Y-110277936D02*
X163418268Y-110373174D01*
X163418268Y-110373174D02*
X163323030Y-110420793D01*
X164370649Y-111135079D02*
X164561125Y-111135079D01*
X164561125Y-111135079D02*
X164656363Y-111087460D01*
X164656363Y-111087460D02*
X164703982Y-111039840D01*
X164703982Y-111039840D02*
X164799220Y-110896983D01*
X164799220Y-110896983D02*
X164846839Y-110706507D01*
X164846839Y-110706507D02*
X164846839Y-110325555D01*
X164846839Y-110325555D02*
X164799220Y-110230317D01*
X164799220Y-110230317D02*
X164751601Y-110182698D01*
X164751601Y-110182698D02*
X164656363Y-110135079D01*
X164656363Y-110135079D02*
X164465887Y-110135079D01*
X164465887Y-110135079D02*
X164370649Y-110182698D01*
X164370649Y-110182698D02*
X164323030Y-110230317D01*
X164323030Y-110230317D02*
X164275411Y-110325555D01*
X164275411Y-110325555D02*
X164275411Y-110563650D01*
X164275411Y-110563650D02*
X164323030Y-110658888D01*
X164323030Y-110658888D02*
X164370649Y-110706507D01*
X164370649Y-110706507D02*
X164465887Y-110754126D01*
X164465887Y-110754126D02*
X164656363Y-110754126D01*
X164656363Y-110754126D02*
X164751601Y-110706507D01*
X164751601Y-110706507D02*
X164799220Y-110658888D01*
X164799220Y-110658888D02*
X164846839Y-110563650D01*
X145676588Y-112722698D02*
X145581350Y-112675079D01*
X145581350Y-112675079D02*
X145438493Y-112675079D01*
X145438493Y-112675079D02*
X145295636Y-112722698D01*
X145295636Y-112722698D02*
X145200398Y-112817936D01*
X145200398Y-112817936D02*
X145152779Y-112913174D01*
X145152779Y-112913174D02*
X145105160Y-113103650D01*
X145105160Y-113103650D02*
X145105160Y-113246507D01*
X145105160Y-113246507D02*
X145152779Y-113436983D01*
X145152779Y-113436983D02*
X145200398Y-113532221D01*
X145200398Y-113532221D02*
X145295636Y-113627460D01*
X145295636Y-113627460D02*
X145438493Y-113675079D01*
X145438493Y-113675079D02*
X145533731Y-113675079D01*
X145533731Y-113675079D02*
X145676588Y-113627460D01*
X145676588Y-113627460D02*
X145724207Y-113579840D01*
X145724207Y-113579840D02*
X145724207Y-113246507D01*
X145724207Y-113246507D02*
X145533731Y-113246507D01*
X146152779Y-113675079D02*
X146152779Y-112675079D01*
X146152779Y-112675079D02*
X146533731Y-112675079D01*
X146533731Y-112675079D02*
X146628969Y-112722698D01*
X146628969Y-112722698D02*
X146676588Y-112770317D01*
X146676588Y-112770317D02*
X146724207Y-112865555D01*
X146724207Y-112865555D02*
X146724207Y-113008412D01*
X146724207Y-113008412D02*
X146676588Y-113103650D01*
X146676588Y-113103650D02*
X146628969Y-113151269D01*
X146628969Y-113151269D02*
X146533731Y-113198888D01*
X146533731Y-113198888D02*
X146152779Y-113198888D01*
X147152779Y-113675079D02*
X147152779Y-112675079D01*
X147819445Y-112675079D02*
X148009921Y-112675079D01*
X148009921Y-112675079D02*
X148105159Y-112722698D01*
X148105159Y-112722698D02*
X148200397Y-112817936D01*
X148200397Y-112817936D02*
X148248016Y-113008412D01*
X148248016Y-113008412D02*
X148248016Y-113341745D01*
X148248016Y-113341745D02*
X148200397Y-113532221D01*
X148200397Y-113532221D02*
X148105159Y-113627460D01*
X148105159Y-113627460D02*
X148009921Y-113675079D01*
X148009921Y-113675079D02*
X147819445Y-113675079D01*
X147819445Y-113675079D02*
X147724207Y-113627460D01*
X147724207Y-113627460D02*
X147628969Y-113532221D01*
X147628969Y-113532221D02*
X147581350Y-113341745D01*
X147581350Y-113341745D02*
X147581350Y-113008412D01*
X147581350Y-113008412D02*
X147628969Y-112817936D01*
X147628969Y-112817936D02*
X147724207Y-112722698D01*
X147724207Y-112722698D02*
X147819445Y-112675079D01*
X148819445Y-113103650D02*
X148724207Y-113056031D01*
X148724207Y-113056031D02*
X148676588Y-113008412D01*
X148676588Y-113008412D02*
X148628969Y-112913174D01*
X148628969Y-112913174D02*
X148628969Y-112865555D01*
X148628969Y-112865555D02*
X148676588Y-112770317D01*
X148676588Y-112770317D02*
X148724207Y-112722698D01*
X148724207Y-112722698D02*
X148819445Y-112675079D01*
X148819445Y-112675079D02*
X149009921Y-112675079D01*
X149009921Y-112675079D02*
X149105159Y-112722698D01*
X149105159Y-112722698D02*
X149152778Y-112770317D01*
X149152778Y-112770317D02*
X149200397Y-112865555D01*
X149200397Y-112865555D02*
X149200397Y-112913174D01*
X149200397Y-112913174D02*
X149152778Y-113008412D01*
X149152778Y-113008412D02*
X149105159Y-113056031D01*
X149105159Y-113056031D02*
X149009921Y-113103650D01*
X149009921Y-113103650D02*
X148819445Y-113103650D01*
X148819445Y-113103650D02*
X148724207Y-113151269D01*
X148724207Y-113151269D02*
X148676588Y-113198888D01*
X148676588Y-113198888D02*
X148628969Y-113294126D01*
X148628969Y-113294126D02*
X148628969Y-113484602D01*
X148628969Y-113484602D02*
X148676588Y-113579840D01*
X148676588Y-113579840D02*
X148724207Y-113627460D01*
X148724207Y-113627460D02*
X148819445Y-113675079D01*
X148819445Y-113675079D02*
X149009921Y-113675079D01*
X149009921Y-113675079D02*
X149105159Y-113627460D01*
X149105159Y-113627460D02*
X149152778Y-113579840D01*
X149152778Y-113579840D02*
X149200397Y-113484602D01*
X149200397Y-113484602D02*
X149200397Y-113294126D01*
X149200397Y-113294126D02*
X149152778Y-113198888D01*
X149152778Y-113198888D02*
X149105159Y-113151269D01*
X149105159Y-113151269D02*
X149009921Y-113103650D01*
X155703982Y-117802698D02*
X155608744Y-117755079D01*
X155608744Y-117755079D02*
X155465887Y-117755079D01*
X155465887Y-117755079D02*
X155323030Y-117802698D01*
X155323030Y-117802698D02*
X155227792Y-117897936D01*
X155227792Y-117897936D02*
X155180173Y-117993174D01*
X155180173Y-117993174D02*
X155132554Y-118183650D01*
X155132554Y-118183650D02*
X155132554Y-118326507D01*
X155132554Y-118326507D02*
X155180173Y-118516983D01*
X155180173Y-118516983D02*
X155227792Y-118612221D01*
X155227792Y-118612221D02*
X155323030Y-118707460D01*
X155323030Y-118707460D02*
X155465887Y-118755079D01*
X155465887Y-118755079D02*
X155561125Y-118755079D01*
X155561125Y-118755079D02*
X155703982Y-118707460D01*
X155703982Y-118707460D02*
X155751601Y-118659840D01*
X155751601Y-118659840D02*
X155751601Y-118326507D01*
X155751601Y-118326507D02*
X155561125Y-118326507D01*
X156180173Y-118755079D02*
X156180173Y-117755079D01*
X156180173Y-117755079D02*
X156561125Y-117755079D01*
X156561125Y-117755079D02*
X156656363Y-117802698D01*
X156656363Y-117802698D02*
X156703982Y-117850317D01*
X156703982Y-117850317D02*
X156751601Y-117945555D01*
X156751601Y-117945555D02*
X156751601Y-118088412D01*
X156751601Y-118088412D02*
X156703982Y-118183650D01*
X156703982Y-118183650D02*
X156656363Y-118231269D01*
X156656363Y-118231269D02*
X156561125Y-118278888D01*
X156561125Y-118278888D02*
X156180173Y-118278888D01*
X157180173Y-118755079D02*
X157180173Y-117755079D01*
X157846839Y-117755079D02*
X158037315Y-117755079D01*
X158037315Y-117755079D02*
X158132553Y-117802698D01*
X158132553Y-117802698D02*
X158227791Y-117897936D01*
X158227791Y-117897936D02*
X158275410Y-118088412D01*
X158275410Y-118088412D02*
X158275410Y-118421745D01*
X158275410Y-118421745D02*
X158227791Y-118612221D01*
X158227791Y-118612221D02*
X158132553Y-118707460D01*
X158132553Y-118707460D02*
X158037315Y-118755079D01*
X158037315Y-118755079D02*
X157846839Y-118755079D01*
X157846839Y-118755079D02*
X157751601Y-118707460D01*
X157751601Y-118707460D02*
X157656363Y-118612221D01*
X157656363Y-118612221D02*
X157608744Y-118421745D01*
X157608744Y-118421745D02*
X157608744Y-118088412D01*
X157608744Y-118088412D02*
X157656363Y-117897936D01*
X157656363Y-117897936D02*
X157751601Y-117802698D01*
X157751601Y-117802698D02*
X157846839Y-117755079D01*
X158751601Y-118755079D02*
X158942077Y-118755079D01*
X158942077Y-118755079D02*
X159037315Y-118707460D01*
X159037315Y-118707460D02*
X159084934Y-118659840D01*
X159084934Y-118659840D02*
X159180172Y-118516983D01*
X159180172Y-118516983D02*
X159227791Y-118326507D01*
X159227791Y-118326507D02*
X159227791Y-117945555D01*
X159227791Y-117945555D02*
X159180172Y-117850317D01*
X159180172Y-117850317D02*
X159132553Y-117802698D01*
X159132553Y-117802698D02*
X159037315Y-117755079D01*
X159037315Y-117755079D02*
X158846839Y-117755079D01*
X158846839Y-117755079D02*
X158751601Y-117802698D01*
X158751601Y-117802698D02*
X158703982Y-117850317D01*
X158703982Y-117850317D02*
X158656363Y-117945555D01*
X158656363Y-117945555D02*
X158656363Y-118183650D01*
X158656363Y-118183650D02*
X158703982Y-118278888D01*
X158703982Y-118278888D02*
X158751601Y-118326507D01*
X158751601Y-118326507D02*
X158846839Y-118374126D01*
X158846839Y-118374126D02*
X159037315Y-118374126D01*
X159037315Y-118374126D02*
X159132553Y-118326507D01*
X159132553Y-118326507D02*
X159180172Y-118278888D01*
X159180172Y-118278888D02*
X159227791Y-118183650D01*
X159513506Y-118374126D02*
X159561125Y-118326507D01*
X159561125Y-118326507D02*
X159656363Y-118278888D01*
X159656363Y-118278888D02*
X159846839Y-118374126D01*
X159846839Y-118374126D02*
X159942077Y-118326507D01*
X159942077Y-118326507D02*
X159989696Y-118278888D01*
X161084934Y-117707460D02*
X160227792Y-118993174D01*
X161751601Y-118231269D02*
X161894458Y-118278888D01*
X161894458Y-118278888D02*
X161942077Y-118326507D01*
X161942077Y-118326507D02*
X161989696Y-118421745D01*
X161989696Y-118421745D02*
X161989696Y-118564602D01*
X161989696Y-118564602D02*
X161942077Y-118659840D01*
X161942077Y-118659840D02*
X161894458Y-118707460D01*
X161894458Y-118707460D02*
X161799220Y-118755079D01*
X161799220Y-118755079D02*
X161418268Y-118755079D01*
X161418268Y-118755079D02*
X161418268Y-117755079D01*
X161418268Y-117755079D02*
X161751601Y-117755079D01*
X161751601Y-117755079D02*
X161846839Y-117802698D01*
X161846839Y-117802698D02*
X161894458Y-117850317D01*
X161894458Y-117850317D02*
X161942077Y-117945555D01*
X161942077Y-117945555D02*
X161942077Y-118040793D01*
X161942077Y-118040793D02*
X161894458Y-118136031D01*
X161894458Y-118136031D02*
X161846839Y-118183650D01*
X161846839Y-118183650D02*
X161751601Y-118231269D01*
X161751601Y-118231269D02*
X161418268Y-118231269D01*
X162608744Y-117755079D02*
X162799220Y-117755079D01*
X162799220Y-117755079D02*
X162894458Y-117802698D01*
X162894458Y-117802698D02*
X162989696Y-117897936D01*
X162989696Y-117897936D02*
X163037315Y-118088412D01*
X163037315Y-118088412D02*
X163037315Y-118421745D01*
X163037315Y-118421745D02*
X162989696Y-118612221D01*
X162989696Y-118612221D02*
X162894458Y-118707460D01*
X162894458Y-118707460D02*
X162799220Y-118755079D01*
X162799220Y-118755079D02*
X162608744Y-118755079D01*
X162608744Y-118755079D02*
X162513506Y-118707460D01*
X162513506Y-118707460D02*
X162418268Y-118612221D01*
X162418268Y-118612221D02*
X162370649Y-118421745D01*
X162370649Y-118421745D02*
X162370649Y-118088412D01*
X162370649Y-118088412D02*
X162418268Y-117897936D01*
X162418268Y-117897936D02*
X162513506Y-117802698D01*
X162513506Y-117802698D02*
X162608744Y-117755079D01*
X163656363Y-117755079D02*
X163846839Y-117755079D01*
X163846839Y-117755079D02*
X163942077Y-117802698D01*
X163942077Y-117802698D02*
X164037315Y-117897936D01*
X164037315Y-117897936D02*
X164084934Y-118088412D01*
X164084934Y-118088412D02*
X164084934Y-118421745D01*
X164084934Y-118421745D02*
X164037315Y-118612221D01*
X164037315Y-118612221D02*
X163942077Y-118707460D01*
X163942077Y-118707460D02*
X163846839Y-118755079D01*
X163846839Y-118755079D02*
X163656363Y-118755079D01*
X163656363Y-118755079D02*
X163561125Y-118707460D01*
X163561125Y-118707460D02*
X163465887Y-118612221D01*
X163465887Y-118612221D02*
X163418268Y-118421745D01*
X163418268Y-118421745D02*
X163418268Y-118088412D01*
X163418268Y-118088412D02*
X163465887Y-117897936D01*
X163465887Y-117897936D02*
X163561125Y-117802698D01*
X163561125Y-117802698D02*
X163656363Y-117755079D01*
X164370649Y-117755079D02*
X164942077Y-117755079D01*
X164656363Y-118755079D02*
X164656363Y-117755079D01*
X152608744Y-122882698D02*
X152513506Y-122835079D01*
X152513506Y-122835079D02*
X152370649Y-122835079D01*
X152370649Y-122835079D02*
X152227792Y-122882698D01*
X152227792Y-122882698D02*
X152132554Y-122977936D01*
X152132554Y-122977936D02*
X152084935Y-123073174D01*
X152084935Y-123073174D02*
X152037316Y-123263650D01*
X152037316Y-123263650D02*
X152037316Y-123406507D01*
X152037316Y-123406507D02*
X152084935Y-123596983D01*
X152084935Y-123596983D02*
X152132554Y-123692221D01*
X152132554Y-123692221D02*
X152227792Y-123787460D01*
X152227792Y-123787460D02*
X152370649Y-123835079D01*
X152370649Y-123835079D02*
X152465887Y-123835079D01*
X152465887Y-123835079D02*
X152608744Y-123787460D01*
X152608744Y-123787460D02*
X152656363Y-123739840D01*
X152656363Y-123739840D02*
X152656363Y-123406507D01*
X152656363Y-123406507D02*
X152465887Y-123406507D01*
X153084935Y-123835079D02*
X153084935Y-122835079D01*
X153084935Y-122835079D02*
X153465887Y-122835079D01*
X153465887Y-122835079D02*
X153561125Y-122882698D01*
X153561125Y-122882698D02*
X153608744Y-122930317D01*
X153608744Y-122930317D02*
X153656363Y-123025555D01*
X153656363Y-123025555D02*
X153656363Y-123168412D01*
X153656363Y-123168412D02*
X153608744Y-123263650D01*
X153608744Y-123263650D02*
X153561125Y-123311269D01*
X153561125Y-123311269D02*
X153465887Y-123358888D01*
X153465887Y-123358888D02*
X153084935Y-123358888D01*
X154084935Y-123835079D02*
X154084935Y-122835079D01*
X154751601Y-122835079D02*
X154942077Y-122835079D01*
X154942077Y-122835079D02*
X155037315Y-122882698D01*
X155037315Y-122882698D02*
X155132553Y-122977936D01*
X155132553Y-122977936D02*
X155180172Y-123168412D01*
X155180172Y-123168412D02*
X155180172Y-123501745D01*
X155180172Y-123501745D02*
X155132553Y-123692221D01*
X155132553Y-123692221D02*
X155037315Y-123787460D01*
X155037315Y-123787460D02*
X154942077Y-123835079D01*
X154942077Y-123835079D02*
X154751601Y-123835079D01*
X154751601Y-123835079D02*
X154656363Y-123787460D01*
X154656363Y-123787460D02*
X154561125Y-123692221D01*
X154561125Y-123692221D02*
X154513506Y-123501745D01*
X154513506Y-123501745D02*
X154513506Y-123168412D01*
X154513506Y-123168412D02*
X154561125Y-122977936D01*
X154561125Y-122977936D02*
X154656363Y-122882698D01*
X154656363Y-122882698D02*
X154751601Y-122835079D01*
X156132553Y-123835079D02*
X155561125Y-123835079D01*
X155846839Y-123835079D02*
X155846839Y-122835079D01*
X155846839Y-122835079D02*
X155751601Y-122977936D01*
X155751601Y-122977936D02*
X155656363Y-123073174D01*
X155656363Y-123073174D02*
X155561125Y-123120793D01*
X156465887Y-122835079D02*
X157084934Y-122835079D01*
X157084934Y-122835079D02*
X156751601Y-123216031D01*
X156751601Y-123216031D02*
X156894458Y-123216031D01*
X156894458Y-123216031D02*
X156989696Y-123263650D01*
X156989696Y-123263650D02*
X157037315Y-123311269D01*
X157037315Y-123311269D02*
X157084934Y-123406507D01*
X157084934Y-123406507D02*
X157084934Y-123644602D01*
X157084934Y-123644602D02*
X157037315Y-123739840D01*
X157037315Y-123739840D02*
X156989696Y-123787460D01*
X156989696Y-123787460D02*
X156894458Y-123835079D01*
X156894458Y-123835079D02*
X156608744Y-123835079D01*
X156608744Y-123835079D02*
X156513506Y-123787460D01*
X156513506Y-123787460D02*
X156465887Y-123739840D01*
X157370649Y-123454126D02*
X157418268Y-123406507D01*
X157418268Y-123406507D02*
X157513506Y-123358888D01*
X157513506Y-123358888D02*
X157703982Y-123454126D01*
X157703982Y-123454126D02*
X157799220Y-123406507D01*
X157799220Y-123406507D02*
X157846839Y-123358888D01*
X158942077Y-122787460D02*
X158084935Y-124073174D01*
X159275411Y-122835079D02*
X159275411Y-123644602D01*
X159275411Y-123644602D02*
X159323030Y-123739840D01*
X159323030Y-123739840D02*
X159370649Y-123787460D01*
X159370649Y-123787460D02*
X159465887Y-123835079D01*
X159465887Y-123835079D02*
X159656363Y-123835079D01*
X159656363Y-123835079D02*
X159751601Y-123787460D01*
X159751601Y-123787460D02*
X159799220Y-123739840D01*
X159799220Y-123739840D02*
X159846839Y-123644602D01*
X159846839Y-123644602D02*
X159846839Y-122835079D01*
X160275411Y-123787460D02*
X160418268Y-123835079D01*
X160418268Y-123835079D02*
X160656363Y-123835079D01*
X160656363Y-123835079D02*
X160751601Y-123787460D01*
X160751601Y-123787460D02*
X160799220Y-123739840D01*
X160799220Y-123739840D02*
X160846839Y-123644602D01*
X160846839Y-123644602D02*
X160846839Y-123549364D01*
X160846839Y-123549364D02*
X160799220Y-123454126D01*
X160799220Y-123454126D02*
X160751601Y-123406507D01*
X160751601Y-123406507D02*
X160656363Y-123358888D01*
X160656363Y-123358888D02*
X160465887Y-123311269D01*
X160465887Y-123311269D02*
X160370649Y-123263650D01*
X160370649Y-123263650D02*
X160323030Y-123216031D01*
X160323030Y-123216031D02*
X160275411Y-123120793D01*
X160275411Y-123120793D02*
X160275411Y-123025555D01*
X160275411Y-123025555D02*
X160323030Y-122930317D01*
X160323030Y-122930317D02*
X160370649Y-122882698D01*
X160370649Y-122882698D02*
X160465887Y-122835079D01*
X160465887Y-122835079D02*
X160703982Y-122835079D01*
X160703982Y-122835079D02*
X160846839Y-122882698D01*
X161608744Y-123311269D02*
X161751601Y-123358888D01*
X161751601Y-123358888D02*
X161799220Y-123406507D01*
X161799220Y-123406507D02*
X161846839Y-123501745D01*
X161846839Y-123501745D02*
X161846839Y-123644602D01*
X161846839Y-123644602D02*
X161799220Y-123739840D01*
X161799220Y-123739840D02*
X161751601Y-123787460D01*
X161751601Y-123787460D02*
X161656363Y-123835079D01*
X161656363Y-123835079D02*
X161275411Y-123835079D01*
X161275411Y-123835079D02*
X161275411Y-122835079D01*
X161275411Y-122835079D02*
X161608744Y-122835079D01*
X161608744Y-122835079D02*
X161703982Y-122882698D01*
X161703982Y-122882698D02*
X161751601Y-122930317D01*
X161751601Y-122930317D02*
X161799220Y-123025555D01*
X161799220Y-123025555D02*
X161799220Y-123120793D01*
X161799220Y-123120793D02*
X161751601Y-123216031D01*
X161751601Y-123216031D02*
X161703982Y-123263650D01*
X161703982Y-123263650D02*
X161608744Y-123311269D01*
X161608744Y-123311269D02*
X161275411Y-123311269D01*
X162037316Y-123930317D02*
X162799220Y-123930317D01*
X163037316Y-123835079D02*
X163037316Y-122835079D01*
X163037316Y-122835079D02*
X163275411Y-122835079D01*
X163275411Y-122835079D02*
X163418268Y-122882698D01*
X163418268Y-122882698D02*
X163513506Y-122977936D01*
X163513506Y-122977936D02*
X163561125Y-123073174D01*
X163561125Y-123073174D02*
X163608744Y-123263650D01*
X163608744Y-123263650D02*
X163608744Y-123406507D01*
X163608744Y-123406507D02*
X163561125Y-123596983D01*
X163561125Y-123596983D02*
X163513506Y-123692221D01*
X163513506Y-123692221D02*
X163418268Y-123787460D01*
X163418268Y-123787460D02*
X163275411Y-123835079D01*
X163275411Y-123835079D02*
X163037316Y-123835079D01*
X164037316Y-123454126D02*
X164799221Y-123454126D01*
X164418268Y-123835079D02*
X164418268Y-123073174D01*
X160370649Y-112722698D02*
X160275411Y-112675079D01*
X160275411Y-112675079D02*
X160132554Y-112675079D01*
X160132554Y-112675079D02*
X159989697Y-112722698D01*
X159989697Y-112722698D02*
X159894459Y-112817936D01*
X159894459Y-112817936D02*
X159846840Y-112913174D01*
X159846840Y-112913174D02*
X159799221Y-113103650D01*
X159799221Y-113103650D02*
X159799221Y-113246507D01*
X159799221Y-113246507D02*
X159846840Y-113436983D01*
X159846840Y-113436983D02*
X159894459Y-113532221D01*
X159894459Y-113532221D02*
X159989697Y-113627460D01*
X159989697Y-113627460D02*
X160132554Y-113675079D01*
X160132554Y-113675079D02*
X160227792Y-113675079D01*
X160227792Y-113675079D02*
X160370649Y-113627460D01*
X160370649Y-113627460D02*
X160418268Y-113579840D01*
X160418268Y-113579840D02*
X160418268Y-113246507D01*
X160418268Y-113246507D02*
X160227792Y-113246507D01*
X160846840Y-113675079D02*
X160846840Y-112675079D01*
X160846840Y-112675079D02*
X161227792Y-112675079D01*
X161227792Y-112675079D02*
X161323030Y-112722698D01*
X161323030Y-112722698D02*
X161370649Y-112770317D01*
X161370649Y-112770317D02*
X161418268Y-112865555D01*
X161418268Y-112865555D02*
X161418268Y-113008412D01*
X161418268Y-113008412D02*
X161370649Y-113103650D01*
X161370649Y-113103650D02*
X161323030Y-113151269D01*
X161323030Y-113151269D02*
X161227792Y-113198888D01*
X161227792Y-113198888D02*
X160846840Y-113198888D01*
X161846840Y-113675079D02*
X161846840Y-112675079D01*
X162513506Y-112675079D02*
X162703982Y-112675079D01*
X162703982Y-112675079D02*
X162799220Y-112722698D01*
X162799220Y-112722698D02*
X162894458Y-112817936D01*
X162894458Y-112817936D02*
X162942077Y-113008412D01*
X162942077Y-113008412D02*
X162942077Y-113341745D01*
X162942077Y-113341745D02*
X162894458Y-113532221D01*
X162894458Y-113532221D02*
X162799220Y-113627460D01*
X162799220Y-113627460D02*
X162703982Y-113675079D01*
X162703982Y-113675079D02*
X162513506Y-113675079D01*
X162513506Y-113675079D02*
X162418268Y-113627460D01*
X162418268Y-113627460D02*
X162323030Y-113532221D01*
X162323030Y-113532221D02*
X162275411Y-113341745D01*
X162275411Y-113341745D02*
X162275411Y-113008412D01*
X162275411Y-113008412D02*
X162323030Y-112817936D01*
X162323030Y-112817936D02*
X162418268Y-112722698D01*
X162418268Y-112722698D02*
X162513506Y-112675079D01*
X163894458Y-113675079D02*
X163323030Y-113675079D01*
X163608744Y-113675079D02*
X163608744Y-112675079D01*
X163608744Y-112675079D02*
X163513506Y-112817936D01*
X163513506Y-112817936D02*
X163418268Y-112913174D01*
X163418268Y-112913174D02*
X163323030Y-112960793D01*
X164465887Y-113103650D02*
X164370649Y-113056031D01*
X164370649Y-113056031D02*
X164323030Y-113008412D01*
X164323030Y-113008412D02*
X164275411Y-112913174D01*
X164275411Y-112913174D02*
X164275411Y-112865555D01*
X164275411Y-112865555D02*
X164323030Y-112770317D01*
X164323030Y-112770317D02*
X164370649Y-112722698D01*
X164370649Y-112722698D02*
X164465887Y-112675079D01*
X164465887Y-112675079D02*
X164656363Y-112675079D01*
X164656363Y-112675079D02*
X164751601Y-112722698D01*
X164751601Y-112722698D02*
X164799220Y-112770317D01*
X164799220Y-112770317D02*
X164846839Y-112865555D01*
X164846839Y-112865555D02*
X164846839Y-112913174D01*
X164846839Y-112913174D02*
X164799220Y-113008412D01*
X164799220Y-113008412D02*
X164751601Y-113056031D01*
X164751601Y-113056031D02*
X164656363Y-113103650D01*
X164656363Y-113103650D02*
X164465887Y-113103650D01*
X164465887Y-113103650D02*
X164370649Y-113151269D01*
X164370649Y-113151269D02*
X164323030Y-113198888D01*
X164323030Y-113198888D02*
X164275411Y-113294126D01*
X164275411Y-113294126D02*
X164275411Y-113484602D01*
X164275411Y-113484602D02*
X164323030Y-113579840D01*
X164323030Y-113579840D02*
X164370649Y-113627460D01*
X164370649Y-113627460D02*
X164465887Y-113675079D01*
X164465887Y-113675079D02*
X164656363Y-113675079D01*
X164656363Y-113675079D02*
X164751601Y-113627460D01*
X164751601Y-113627460D02*
X164799220Y-113579840D01*
X164799220Y-113579840D02*
X164846839Y-113484602D01*
X164846839Y-113484602D02*
X164846839Y-113294126D01*
X164846839Y-113294126D02*
X164799220Y-113198888D01*
X164799220Y-113198888D02*
X164751601Y-113151269D01*
X164751601Y-113151269D02*
X164656363Y-113103650D01*
X145676588Y-117802698D02*
X145581350Y-117755079D01*
X145581350Y-117755079D02*
X145438493Y-117755079D01*
X145438493Y-117755079D02*
X145295636Y-117802698D01*
X145295636Y-117802698D02*
X145200398Y-117897936D01*
X145200398Y-117897936D02*
X145152779Y-117993174D01*
X145152779Y-117993174D02*
X145105160Y-118183650D01*
X145105160Y-118183650D02*
X145105160Y-118326507D01*
X145105160Y-118326507D02*
X145152779Y-118516983D01*
X145152779Y-118516983D02*
X145200398Y-118612221D01*
X145200398Y-118612221D02*
X145295636Y-118707460D01*
X145295636Y-118707460D02*
X145438493Y-118755079D01*
X145438493Y-118755079D02*
X145533731Y-118755079D01*
X145533731Y-118755079D02*
X145676588Y-118707460D01*
X145676588Y-118707460D02*
X145724207Y-118659840D01*
X145724207Y-118659840D02*
X145724207Y-118326507D01*
X145724207Y-118326507D02*
X145533731Y-118326507D01*
X146152779Y-118755079D02*
X146152779Y-117755079D01*
X146152779Y-117755079D02*
X146533731Y-117755079D01*
X146533731Y-117755079D02*
X146628969Y-117802698D01*
X146628969Y-117802698D02*
X146676588Y-117850317D01*
X146676588Y-117850317D02*
X146724207Y-117945555D01*
X146724207Y-117945555D02*
X146724207Y-118088412D01*
X146724207Y-118088412D02*
X146676588Y-118183650D01*
X146676588Y-118183650D02*
X146628969Y-118231269D01*
X146628969Y-118231269D02*
X146533731Y-118278888D01*
X146533731Y-118278888D02*
X146152779Y-118278888D01*
X147152779Y-118755079D02*
X147152779Y-117755079D01*
X147819445Y-117755079D02*
X148009921Y-117755079D01*
X148009921Y-117755079D02*
X148105159Y-117802698D01*
X148105159Y-117802698D02*
X148200397Y-117897936D01*
X148200397Y-117897936D02*
X148248016Y-118088412D01*
X148248016Y-118088412D02*
X148248016Y-118421745D01*
X148248016Y-118421745D02*
X148200397Y-118612221D01*
X148200397Y-118612221D02*
X148105159Y-118707460D01*
X148105159Y-118707460D02*
X148009921Y-118755079D01*
X148009921Y-118755079D02*
X147819445Y-118755079D01*
X147819445Y-118755079D02*
X147724207Y-118707460D01*
X147724207Y-118707460D02*
X147628969Y-118612221D01*
X147628969Y-118612221D02*
X147581350Y-118421745D01*
X147581350Y-118421745D02*
X147581350Y-118088412D01*
X147581350Y-118088412D02*
X147628969Y-117897936D01*
X147628969Y-117897936D02*
X147724207Y-117802698D01*
X147724207Y-117802698D02*
X147819445Y-117755079D01*
X148581350Y-117755079D02*
X149248016Y-117755079D01*
X149248016Y-117755079D02*
X148819445Y-118755079D01*
X145676588Y-115262698D02*
X145581350Y-115215079D01*
X145581350Y-115215079D02*
X145438493Y-115215079D01*
X145438493Y-115215079D02*
X145295636Y-115262698D01*
X145295636Y-115262698D02*
X145200398Y-115357936D01*
X145200398Y-115357936D02*
X145152779Y-115453174D01*
X145152779Y-115453174D02*
X145105160Y-115643650D01*
X145105160Y-115643650D02*
X145105160Y-115786507D01*
X145105160Y-115786507D02*
X145152779Y-115976983D01*
X145152779Y-115976983D02*
X145200398Y-116072221D01*
X145200398Y-116072221D02*
X145295636Y-116167460D01*
X145295636Y-116167460D02*
X145438493Y-116215079D01*
X145438493Y-116215079D02*
X145533731Y-116215079D01*
X145533731Y-116215079D02*
X145676588Y-116167460D01*
X145676588Y-116167460D02*
X145724207Y-116119840D01*
X145724207Y-116119840D02*
X145724207Y-115786507D01*
X145724207Y-115786507D02*
X145533731Y-115786507D01*
X146152779Y-116215079D02*
X146152779Y-115215079D01*
X146152779Y-115215079D02*
X146533731Y-115215079D01*
X146533731Y-115215079D02*
X146628969Y-115262698D01*
X146628969Y-115262698D02*
X146676588Y-115310317D01*
X146676588Y-115310317D02*
X146724207Y-115405555D01*
X146724207Y-115405555D02*
X146724207Y-115548412D01*
X146724207Y-115548412D02*
X146676588Y-115643650D01*
X146676588Y-115643650D02*
X146628969Y-115691269D01*
X146628969Y-115691269D02*
X146533731Y-115738888D01*
X146533731Y-115738888D02*
X146152779Y-115738888D01*
X147152779Y-116215079D02*
X147152779Y-115215079D01*
X147819445Y-115215079D02*
X148009921Y-115215079D01*
X148009921Y-115215079D02*
X148105159Y-115262698D01*
X148105159Y-115262698D02*
X148200397Y-115357936D01*
X148200397Y-115357936D02*
X148248016Y-115548412D01*
X148248016Y-115548412D02*
X148248016Y-115881745D01*
X148248016Y-115881745D02*
X148200397Y-116072221D01*
X148200397Y-116072221D02*
X148105159Y-116167460D01*
X148105159Y-116167460D02*
X148009921Y-116215079D01*
X148009921Y-116215079D02*
X147819445Y-116215079D01*
X147819445Y-116215079D02*
X147724207Y-116167460D01*
X147724207Y-116167460D02*
X147628969Y-116072221D01*
X147628969Y-116072221D02*
X147581350Y-115881745D01*
X147581350Y-115881745D02*
X147581350Y-115548412D01*
X147581350Y-115548412D02*
X147628969Y-115357936D01*
X147628969Y-115357936D02*
X147724207Y-115262698D01*
X147724207Y-115262698D02*
X147819445Y-115215079D01*
X149105159Y-115215079D02*
X148914683Y-115215079D01*
X148914683Y-115215079D02*
X148819445Y-115262698D01*
X148819445Y-115262698D02*
X148771826Y-115310317D01*
X148771826Y-115310317D02*
X148676588Y-115453174D01*
X148676588Y-115453174D02*
X148628969Y-115643650D01*
X148628969Y-115643650D02*
X148628969Y-116024602D01*
X148628969Y-116024602D02*
X148676588Y-116119840D01*
X148676588Y-116119840D02*
X148724207Y-116167460D01*
X148724207Y-116167460D02*
X148819445Y-116215079D01*
X148819445Y-116215079D02*
X149009921Y-116215079D01*
X149009921Y-116215079D02*
X149105159Y-116167460D01*
X149105159Y-116167460D02*
X149152778Y-116119840D01*
X149152778Y-116119840D02*
X149200397Y-116024602D01*
X149200397Y-116024602D02*
X149200397Y-115786507D01*
X149200397Y-115786507D02*
X149152778Y-115691269D01*
X149152778Y-115691269D02*
X149105159Y-115643650D01*
X149105159Y-115643650D02*
X149009921Y-115596031D01*
X149009921Y-115596031D02*
X148819445Y-115596031D01*
X148819445Y-115596031D02*
X148724207Y-115643650D01*
X148724207Y-115643650D02*
X148676588Y-115691269D01*
X148676588Y-115691269D02*
X148628969Y-115786507D01*
X149486112Y-115834126D02*
X149533731Y-115786507D01*
X149533731Y-115786507D02*
X149628969Y-115738888D01*
X149628969Y-115738888D02*
X149819445Y-115834126D01*
X149819445Y-115834126D02*
X149914683Y-115786507D01*
X149914683Y-115786507D02*
X149962302Y-115738888D01*
X145676588Y-102562698D02*
X145581350Y-102515079D01*
X145581350Y-102515079D02*
X145438493Y-102515079D01*
X145438493Y-102515079D02*
X145295636Y-102562698D01*
X145295636Y-102562698D02*
X145200398Y-102657936D01*
X145200398Y-102657936D02*
X145152779Y-102753174D01*
X145152779Y-102753174D02*
X145105160Y-102943650D01*
X145105160Y-102943650D02*
X145105160Y-103086507D01*
X145105160Y-103086507D02*
X145152779Y-103276983D01*
X145152779Y-103276983D02*
X145200398Y-103372221D01*
X145200398Y-103372221D02*
X145295636Y-103467460D01*
X145295636Y-103467460D02*
X145438493Y-103515079D01*
X145438493Y-103515079D02*
X145533731Y-103515079D01*
X145533731Y-103515079D02*
X145676588Y-103467460D01*
X145676588Y-103467460D02*
X145724207Y-103419840D01*
X145724207Y-103419840D02*
X145724207Y-103086507D01*
X145724207Y-103086507D02*
X145533731Y-103086507D01*
X146152779Y-103515079D02*
X146152779Y-102515079D01*
X146152779Y-102515079D02*
X146533731Y-102515079D01*
X146533731Y-102515079D02*
X146628969Y-102562698D01*
X146628969Y-102562698D02*
X146676588Y-102610317D01*
X146676588Y-102610317D02*
X146724207Y-102705555D01*
X146724207Y-102705555D02*
X146724207Y-102848412D01*
X146724207Y-102848412D02*
X146676588Y-102943650D01*
X146676588Y-102943650D02*
X146628969Y-102991269D01*
X146628969Y-102991269D02*
X146533731Y-103038888D01*
X146533731Y-103038888D02*
X146152779Y-103038888D01*
X147152779Y-103515079D02*
X147152779Y-102515079D01*
X147819445Y-102515079D02*
X148009921Y-102515079D01*
X148009921Y-102515079D02*
X148105159Y-102562698D01*
X148105159Y-102562698D02*
X148200397Y-102657936D01*
X148200397Y-102657936D02*
X148248016Y-102848412D01*
X148248016Y-102848412D02*
X148248016Y-103181745D01*
X148248016Y-103181745D02*
X148200397Y-103372221D01*
X148200397Y-103372221D02*
X148105159Y-103467460D01*
X148105159Y-103467460D02*
X148009921Y-103515079D01*
X148009921Y-103515079D02*
X147819445Y-103515079D01*
X147819445Y-103515079D02*
X147724207Y-103467460D01*
X147724207Y-103467460D02*
X147628969Y-103372221D01*
X147628969Y-103372221D02*
X147581350Y-103181745D01*
X147581350Y-103181745D02*
X147581350Y-102848412D01*
X147581350Y-102848412D02*
X147628969Y-102657936D01*
X147628969Y-102657936D02*
X147724207Y-102562698D01*
X147724207Y-102562698D02*
X147819445Y-102515079D01*
X149105159Y-102848412D02*
X149105159Y-103515079D01*
X148867064Y-102467460D02*
X148628969Y-103181745D01*
X148628969Y-103181745D02*
X149248016Y-103181745D01*
X149486112Y-103134126D02*
X149533731Y-103086507D01*
X149533731Y-103086507D02*
X149628969Y-103038888D01*
X149628969Y-103038888D02*
X149819445Y-103134126D01*
X149819445Y-103134126D02*
X149914683Y-103086507D01*
X149914683Y-103086507D02*
X149962302Y-103038888D01*
X153656363Y-97482698D02*
X153561125Y-97435079D01*
X153561125Y-97435079D02*
X153418268Y-97435079D01*
X153418268Y-97435079D02*
X153275411Y-97482698D01*
X153275411Y-97482698D02*
X153180173Y-97577936D01*
X153180173Y-97577936D02*
X153132554Y-97673174D01*
X153132554Y-97673174D02*
X153084935Y-97863650D01*
X153084935Y-97863650D02*
X153084935Y-98006507D01*
X153084935Y-98006507D02*
X153132554Y-98196983D01*
X153132554Y-98196983D02*
X153180173Y-98292221D01*
X153180173Y-98292221D02*
X153275411Y-98387460D01*
X153275411Y-98387460D02*
X153418268Y-98435079D01*
X153418268Y-98435079D02*
X153513506Y-98435079D01*
X153513506Y-98435079D02*
X153656363Y-98387460D01*
X153656363Y-98387460D02*
X153703982Y-98339840D01*
X153703982Y-98339840D02*
X153703982Y-98006507D01*
X153703982Y-98006507D02*
X153513506Y-98006507D01*
X154132554Y-98435079D02*
X154132554Y-97435079D01*
X154132554Y-97435079D02*
X154513506Y-97435079D01*
X154513506Y-97435079D02*
X154608744Y-97482698D01*
X154608744Y-97482698D02*
X154656363Y-97530317D01*
X154656363Y-97530317D02*
X154703982Y-97625555D01*
X154703982Y-97625555D02*
X154703982Y-97768412D01*
X154703982Y-97768412D02*
X154656363Y-97863650D01*
X154656363Y-97863650D02*
X154608744Y-97911269D01*
X154608744Y-97911269D02*
X154513506Y-97958888D01*
X154513506Y-97958888D02*
X154132554Y-97958888D01*
X155132554Y-98435079D02*
X155132554Y-97435079D01*
X155799220Y-97435079D02*
X155989696Y-97435079D01*
X155989696Y-97435079D02*
X156084934Y-97482698D01*
X156084934Y-97482698D02*
X156180172Y-97577936D01*
X156180172Y-97577936D02*
X156227791Y-97768412D01*
X156227791Y-97768412D02*
X156227791Y-98101745D01*
X156227791Y-98101745D02*
X156180172Y-98292221D01*
X156180172Y-98292221D02*
X156084934Y-98387460D01*
X156084934Y-98387460D02*
X155989696Y-98435079D01*
X155989696Y-98435079D02*
X155799220Y-98435079D01*
X155799220Y-98435079D02*
X155703982Y-98387460D01*
X155703982Y-98387460D02*
X155608744Y-98292221D01*
X155608744Y-98292221D02*
X155561125Y-98101745D01*
X155561125Y-98101745D02*
X155561125Y-97768412D01*
X155561125Y-97768412D02*
X155608744Y-97577936D01*
X155608744Y-97577936D02*
X155703982Y-97482698D01*
X155703982Y-97482698D02*
X155799220Y-97435079D01*
X157180172Y-98435079D02*
X156608744Y-98435079D01*
X156894458Y-98435079D02*
X156894458Y-97435079D01*
X156894458Y-97435079D02*
X156799220Y-97577936D01*
X156799220Y-97577936D02*
X156703982Y-97673174D01*
X156703982Y-97673174D02*
X156608744Y-97720793D01*
X157513506Y-97435079D02*
X158180172Y-97435079D01*
X158180172Y-97435079D02*
X157751601Y-98435079D01*
X158418268Y-98054126D02*
X158465887Y-98006507D01*
X158465887Y-98006507D02*
X158561125Y-97958888D01*
X158561125Y-97958888D02*
X158751601Y-98054126D01*
X158751601Y-98054126D02*
X158846839Y-98006507D01*
X158846839Y-98006507D02*
X158894458Y-97958888D01*
X159989696Y-97387460D02*
X159132554Y-98673174D01*
X160323030Y-97435079D02*
X160323030Y-98244602D01*
X160323030Y-98244602D02*
X160370649Y-98339840D01*
X160370649Y-98339840D02*
X160418268Y-98387460D01*
X160418268Y-98387460D02*
X160513506Y-98435079D01*
X160513506Y-98435079D02*
X160703982Y-98435079D01*
X160703982Y-98435079D02*
X160799220Y-98387460D01*
X160799220Y-98387460D02*
X160846839Y-98339840D01*
X160846839Y-98339840D02*
X160894458Y-98244602D01*
X160894458Y-98244602D02*
X160894458Y-97435079D01*
X161561125Y-97435079D02*
X161656363Y-97435079D01*
X161656363Y-97435079D02*
X161751601Y-97482698D01*
X161751601Y-97482698D02*
X161799220Y-97530317D01*
X161799220Y-97530317D02*
X161846839Y-97625555D01*
X161846839Y-97625555D02*
X161894458Y-97816031D01*
X161894458Y-97816031D02*
X161894458Y-98054126D01*
X161894458Y-98054126D02*
X161846839Y-98244602D01*
X161846839Y-98244602D02*
X161799220Y-98339840D01*
X161799220Y-98339840D02*
X161751601Y-98387460D01*
X161751601Y-98387460D02*
X161656363Y-98435079D01*
X161656363Y-98435079D02*
X161561125Y-98435079D01*
X161561125Y-98435079D02*
X161465887Y-98387460D01*
X161465887Y-98387460D02*
X161418268Y-98339840D01*
X161418268Y-98339840D02*
X161370649Y-98244602D01*
X161370649Y-98244602D02*
X161323030Y-98054126D01*
X161323030Y-98054126D02*
X161323030Y-97816031D01*
X161323030Y-97816031D02*
X161370649Y-97625555D01*
X161370649Y-97625555D02*
X161418268Y-97530317D01*
X161418268Y-97530317D02*
X161465887Y-97482698D01*
X161465887Y-97482698D02*
X161561125Y-97435079D01*
X162894458Y-98435079D02*
X162561125Y-97958888D01*
X162323030Y-98435079D02*
X162323030Y-97435079D01*
X162323030Y-97435079D02*
X162703982Y-97435079D01*
X162703982Y-97435079D02*
X162799220Y-97482698D01*
X162799220Y-97482698D02*
X162846839Y-97530317D01*
X162846839Y-97530317D02*
X162894458Y-97625555D01*
X162894458Y-97625555D02*
X162894458Y-97768412D01*
X162894458Y-97768412D02*
X162846839Y-97863650D01*
X162846839Y-97863650D02*
X162799220Y-97911269D01*
X162799220Y-97911269D02*
X162703982Y-97958888D01*
X162703982Y-97958888D02*
X162323030Y-97958888D01*
X163227792Y-97435079D02*
X163894458Y-98435079D01*
X163894458Y-97435079D02*
X163227792Y-98435079D01*
X164275411Y-98435079D02*
X164275411Y-97435079D01*
X164275411Y-97435079D02*
X164513506Y-97435079D01*
X164513506Y-97435079D02*
X164656363Y-97482698D01*
X164656363Y-97482698D02*
X164751601Y-97577936D01*
X164751601Y-97577936D02*
X164799220Y-97673174D01*
X164799220Y-97673174D02*
X164846839Y-97863650D01*
X164846839Y-97863650D02*
X164846839Y-98006507D01*
X164846839Y-98006507D02*
X164799220Y-98196983D01*
X164799220Y-98196983D02*
X164751601Y-98292221D01*
X164751601Y-98292221D02*
X164656363Y-98387460D01*
X164656363Y-98387460D02*
X164513506Y-98435079D01*
X164513506Y-98435079D02*
X164275411Y-98435079D01*
X145676588Y-100022698D02*
X145581350Y-99975079D01*
X145581350Y-99975079D02*
X145438493Y-99975079D01*
X145438493Y-99975079D02*
X145295636Y-100022698D01*
X145295636Y-100022698D02*
X145200398Y-100117936D01*
X145200398Y-100117936D02*
X145152779Y-100213174D01*
X145152779Y-100213174D02*
X145105160Y-100403650D01*
X145105160Y-100403650D02*
X145105160Y-100546507D01*
X145105160Y-100546507D02*
X145152779Y-100736983D01*
X145152779Y-100736983D02*
X145200398Y-100832221D01*
X145200398Y-100832221D02*
X145295636Y-100927460D01*
X145295636Y-100927460D02*
X145438493Y-100975079D01*
X145438493Y-100975079D02*
X145533731Y-100975079D01*
X145533731Y-100975079D02*
X145676588Y-100927460D01*
X145676588Y-100927460D02*
X145724207Y-100879840D01*
X145724207Y-100879840D02*
X145724207Y-100546507D01*
X145724207Y-100546507D02*
X145533731Y-100546507D01*
X146152779Y-100975079D02*
X146152779Y-99975079D01*
X146152779Y-99975079D02*
X146533731Y-99975079D01*
X146533731Y-99975079D02*
X146628969Y-100022698D01*
X146628969Y-100022698D02*
X146676588Y-100070317D01*
X146676588Y-100070317D02*
X146724207Y-100165555D01*
X146724207Y-100165555D02*
X146724207Y-100308412D01*
X146724207Y-100308412D02*
X146676588Y-100403650D01*
X146676588Y-100403650D02*
X146628969Y-100451269D01*
X146628969Y-100451269D02*
X146533731Y-100498888D01*
X146533731Y-100498888D02*
X146152779Y-100498888D01*
X147152779Y-100975079D02*
X147152779Y-99975079D01*
X147819445Y-99975079D02*
X148009921Y-99975079D01*
X148009921Y-99975079D02*
X148105159Y-100022698D01*
X148105159Y-100022698D02*
X148200397Y-100117936D01*
X148200397Y-100117936D02*
X148248016Y-100308412D01*
X148248016Y-100308412D02*
X148248016Y-100641745D01*
X148248016Y-100641745D02*
X148200397Y-100832221D01*
X148200397Y-100832221D02*
X148105159Y-100927460D01*
X148105159Y-100927460D02*
X148009921Y-100975079D01*
X148009921Y-100975079D02*
X147819445Y-100975079D01*
X147819445Y-100975079D02*
X147724207Y-100927460D01*
X147724207Y-100927460D02*
X147628969Y-100832221D01*
X147628969Y-100832221D02*
X147581350Y-100641745D01*
X147581350Y-100641745D02*
X147581350Y-100308412D01*
X147581350Y-100308412D02*
X147628969Y-100117936D01*
X147628969Y-100117936D02*
X147724207Y-100022698D01*
X147724207Y-100022698D02*
X147819445Y-99975079D01*
X148581350Y-99975079D02*
X149200397Y-99975079D01*
X149200397Y-99975079D02*
X148867064Y-100356031D01*
X148867064Y-100356031D02*
X149009921Y-100356031D01*
X149009921Y-100356031D02*
X149105159Y-100403650D01*
X149105159Y-100403650D02*
X149152778Y-100451269D01*
X149152778Y-100451269D02*
X149200397Y-100546507D01*
X149200397Y-100546507D02*
X149200397Y-100784602D01*
X149200397Y-100784602D02*
X149152778Y-100879840D01*
X149152778Y-100879840D02*
X149105159Y-100927460D01*
X149105159Y-100927460D02*
X149009921Y-100975079D01*
X149009921Y-100975079D02*
X148724207Y-100975079D01*
X148724207Y-100975079D02*
X148628969Y-100927460D01*
X148628969Y-100927460D02*
X148581350Y-100879840D01*
X149486112Y-100594126D02*
X149533731Y-100546507D01*
X149533731Y-100546507D02*
X149628969Y-100498888D01*
X149628969Y-100498888D02*
X149819445Y-100594126D01*
X149819445Y-100594126D02*
X149914683Y-100546507D01*
X149914683Y-100546507D02*
X149962302Y-100498888D01*
X145676588Y-122882698D02*
X145581350Y-122835079D01*
X145581350Y-122835079D02*
X145438493Y-122835079D01*
X145438493Y-122835079D02*
X145295636Y-122882698D01*
X145295636Y-122882698D02*
X145200398Y-122977936D01*
X145200398Y-122977936D02*
X145152779Y-123073174D01*
X145152779Y-123073174D02*
X145105160Y-123263650D01*
X145105160Y-123263650D02*
X145105160Y-123406507D01*
X145105160Y-123406507D02*
X145152779Y-123596983D01*
X145152779Y-123596983D02*
X145200398Y-123692221D01*
X145200398Y-123692221D02*
X145295636Y-123787460D01*
X145295636Y-123787460D02*
X145438493Y-123835079D01*
X145438493Y-123835079D02*
X145533731Y-123835079D01*
X145533731Y-123835079D02*
X145676588Y-123787460D01*
X145676588Y-123787460D02*
X145724207Y-123739840D01*
X145724207Y-123739840D02*
X145724207Y-123406507D01*
X145724207Y-123406507D02*
X145533731Y-123406507D01*
X146152779Y-123835079D02*
X146152779Y-122835079D01*
X146152779Y-122835079D02*
X146724207Y-123835079D01*
X146724207Y-123835079D02*
X146724207Y-122835079D01*
X147200398Y-123835079D02*
X147200398Y-122835079D01*
X147200398Y-122835079D02*
X147438493Y-122835079D01*
X147438493Y-122835079D02*
X147581350Y-122882698D01*
X147581350Y-122882698D02*
X147676588Y-122977936D01*
X147676588Y-122977936D02*
X147724207Y-123073174D01*
X147724207Y-123073174D02*
X147771826Y-123263650D01*
X147771826Y-123263650D02*
X147771826Y-123406507D01*
X147771826Y-123406507D02*
X147724207Y-123596983D01*
X147724207Y-123596983D02*
X147676588Y-123692221D01*
X147676588Y-123692221D02*
X147581350Y-123787460D01*
X147581350Y-123787460D02*
X147438493Y-123835079D01*
X147438493Y-123835079D02*
X147200398Y-123835079D01*
X145676588Y-110182698D02*
X145581350Y-110135079D01*
X145581350Y-110135079D02*
X145438493Y-110135079D01*
X145438493Y-110135079D02*
X145295636Y-110182698D01*
X145295636Y-110182698D02*
X145200398Y-110277936D01*
X145200398Y-110277936D02*
X145152779Y-110373174D01*
X145152779Y-110373174D02*
X145105160Y-110563650D01*
X145105160Y-110563650D02*
X145105160Y-110706507D01*
X145105160Y-110706507D02*
X145152779Y-110896983D01*
X145152779Y-110896983D02*
X145200398Y-110992221D01*
X145200398Y-110992221D02*
X145295636Y-111087460D01*
X145295636Y-111087460D02*
X145438493Y-111135079D01*
X145438493Y-111135079D02*
X145533731Y-111135079D01*
X145533731Y-111135079D02*
X145676588Y-111087460D01*
X145676588Y-111087460D02*
X145724207Y-111039840D01*
X145724207Y-111039840D02*
X145724207Y-110706507D01*
X145724207Y-110706507D02*
X145533731Y-110706507D01*
X146152779Y-111135079D02*
X146152779Y-110135079D01*
X146152779Y-110135079D02*
X146533731Y-110135079D01*
X146533731Y-110135079D02*
X146628969Y-110182698D01*
X146628969Y-110182698D02*
X146676588Y-110230317D01*
X146676588Y-110230317D02*
X146724207Y-110325555D01*
X146724207Y-110325555D02*
X146724207Y-110468412D01*
X146724207Y-110468412D02*
X146676588Y-110563650D01*
X146676588Y-110563650D02*
X146628969Y-110611269D01*
X146628969Y-110611269D02*
X146533731Y-110658888D01*
X146533731Y-110658888D02*
X146152779Y-110658888D01*
X147152779Y-111135079D02*
X147152779Y-110135079D01*
X147819445Y-110135079D02*
X148009921Y-110135079D01*
X148009921Y-110135079D02*
X148105159Y-110182698D01*
X148105159Y-110182698D02*
X148200397Y-110277936D01*
X148200397Y-110277936D02*
X148248016Y-110468412D01*
X148248016Y-110468412D02*
X148248016Y-110801745D01*
X148248016Y-110801745D02*
X148200397Y-110992221D01*
X148200397Y-110992221D02*
X148105159Y-111087460D01*
X148105159Y-111087460D02*
X148009921Y-111135079D01*
X148009921Y-111135079D02*
X147819445Y-111135079D01*
X147819445Y-111135079D02*
X147724207Y-111087460D01*
X147724207Y-111087460D02*
X147628969Y-110992221D01*
X147628969Y-110992221D02*
X147581350Y-110801745D01*
X147581350Y-110801745D02*
X147581350Y-110468412D01*
X147581350Y-110468412D02*
X147628969Y-110277936D01*
X147628969Y-110277936D02*
X147724207Y-110182698D01*
X147724207Y-110182698D02*
X147819445Y-110135079D01*
X149200397Y-111135079D02*
X148628969Y-111135079D01*
X148914683Y-111135079D02*
X148914683Y-110135079D01*
X148914683Y-110135079D02*
X148819445Y-110277936D01*
X148819445Y-110277936D02*
X148724207Y-110373174D01*
X148724207Y-110373174D02*
X148628969Y-110420793D01*
X149486112Y-110754126D02*
X149533731Y-110706507D01*
X149533731Y-110706507D02*
X149628969Y-110658888D01*
X149628969Y-110658888D02*
X149819445Y-110754126D01*
X149819445Y-110754126D02*
X149914683Y-110706507D01*
X149914683Y-110706507D02*
X149962302Y-110658888D01*
X153894458Y-94942698D02*
X153799220Y-94895079D01*
X153799220Y-94895079D02*
X153656363Y-94895079D01*
X153656363Y-94895079D02*
X153513506Y-94942698D01*
X153513506Y-94942698D02*
X153418268Y-95037936D01*
X153418268Y-95037936D02*
X153370649Y-95133174D01*
X153370649Y-95133174D02*
X153323030Y-95323650D01*
X153323030Y-95323650D02*
X153323030Y-95466507D01*
X153323030Y-95466507D02*
X153370649Y-95656983D01*
X153370649Y-95656983D02*
X153418268Y-95752221D01*
X153418268Y-95752221D02*
X153513506Y-95847460D01*
X153513506Y-95847460D02*
X153656363Y-95895079D01*
X153656363Y-95895079D02*
X153751601Y-95895079D01*
X153751601Y-95895079D02*
X153894458Y-95847460D01*
X153894458Y-95847460D02*
X153942077Y-95799840D01*
X153942077Y-95799840D02*
X153942077Y-95466507D01*
X153942077Y-95466507D02*
X153751601Y-95466507D01*
X154370649Y-95895079D02*
X154370649Y-94895079D01*
X154370649Y-94895079D02*
X154751601Y-94895079D01*
X154751601Y-94895079D02*
X154846839Y-94942698D01*
X154846839Y-94942698D02*
X154894458Y-94990317D01*
X154894458Y-94990317D02*
X154942077Y-95085555D01*
X154942077Y-95085555D02*
X154942077Y-95228412D01*
X154942077Y-95228412D02*
X154894458Y-95323650D01*
X154894458Y-95323650D02*
X154846839Y-95371269D01*
X154846839Y-95371269D02*
X154751601Y-95418888D01*
X154751601Y-95418888D02*
X154370649Y-95418888D01*
X155370649Y-95895079D02*
X155370649Y-94895079D01*
X156037315Y-94895079D02*
X156227791Y-94895079D01*
X156227791Y-94895079D02*
X156323029Y-94942698D01*
X156323029Y-94942698D02*
X156418267Y-95037936D01*
X156418267Y-95037936D02*
X156465886Y-95228412D01*
X156465886Y-95228412D02*
X156465886Y-95561745D01*
X156465886Y-95561745D02*
X156418267Y-95752221D01*
X156418267Y-95752221D02*
X156323029Y-95847460D01*
X156323029Y-95847460D02*
X156227791Y-95895079D01*
X156227791Y-95895079D02*
X156037315Y-95895079D01*
X156037315Y-95895079D02*
X155942077Y-95847460D01*
X155942077Y-95847460D02*
X155846839Y-95752221D01*
X155846839Y-95752221D02*
X155799220Y-95561745D01*
X155799220Y-95561745D02*
X155799220Y-95228412D01*
X155799220Y-95228412D02*
X155846839Y-95037936D01*
X155846839Y-95037936D02*
X155942077Y-94942698D01*
X155942077Y-94942698D02*
X156037315Y-94895079D01*
X157418267Y-95895079D02*
X156846839Y-95895079D01*
X157132553Y-95895079D02*
X157132553Y-94895079D01*
X157132553Y-94895079D02*
X157037315Y-95037936D01*
X157037315Y-95037936D02*
X156942077Y-95133174D01*
X156942077Y-95133174D02*
X156846839Y-95180793D01*
X158275410Y-94895079D02*
X158084934Y-94895079D01*
X158084934Y-94895079D02*
X157989696Y-94942698D01*
X157989696Y-94942698D02*
X157942077Y-94990317D01*
X157942077Y-94990317D02*
X157846839Y-95133174D01*
X157846839Y-95133174D02*
X157799220Y-95323650D01*
X157799220Y-95323650D02*
X157799220Y-95704602D01*
X157799220Y-95704602D02*
X157846839Y-95799840D01*
X157846839Y-95799840D02*
X157894458Y-95847460D01*
X157894458Y-95847460D02*
X157989696Y-95895079D01*
X157989696Y-95895079D02*
X158180172Y-95895079D01*
X158180172Y-95895079D02*
X158275410Y-95847460D01*
X158275410Y-95847460D02*
X158323029Y-95799840D01*
X158323029Y-95799840D02*
X158370648Y-95704602D01*
X158370648Y-95704602D02*
X158370648Y-95466507D01*
X158370648Y-95466507D02*
X158323029Y-95371269D01*
X158323029Y-95371269D02*
X158275410Y-95323650D01*
X158275410Y-95323650D02*
X158180172Y-95276031D01*
X158180172Y-95276031D02*
X157989696Y-95276031D01*
X157989696Y-95276031D02*
X157894458Y-95323650D01*
X157894458Y-95323650D02*
X157846839Y-95371269D01*
X157846839Y-95371269D02*
X157799220Y-95466507D01*
X158656363Y-95514126D02*
X158703982Y-95466507D01*
X158703982Y-95466507D02*
X158799220Y-95418888D01*
X158799220Y-95418888D02*
X158989696Y-95514126D01*
X158989696Y-95514126D02*
X159084934Y-95466507D01*
X159084934Y-95466507D02*
X159132553Y-95418888D01*
X160227791Y-94847460D02*
X159370649Y-96133174D01*
X160561125Y-94895079D02*
X160561125Y-95704602D01*
X160561125Y-95704602D02*
X160608744Y-95799840D01*
X160608744Y-95799840D02*
X160656363Y-95847460D01*
X160656363Y-95847460D02*
X160751601Y-95895079D01*
X160751601Y-95895079D02*
X160942077Y-95895079D01*
X160942077Y-95895079D02*
X161037315Y-95847460D01*
X161037315Y-95847460D02*
X161084934Y-95799840D01*
X161084934Y-95799840D02*
X161132553Y-95704602D01*
X161132553Y-95704602D02*
X161132553Y-94895079D01*
X161799220Y-94895079D02*
X161894458Y-94895079D01*
X161894458Y-94895079D02*
X161989696Y-94942698D01*
X161989696Y-94942698D02*
X162037315Y-94990317D01*
X162037315Y-94990317D02*
X162084934Y-95085555D01*
X162084934Y-95085555D02*
X162132553Y-95276031D01*
X162132553Y-95276031D02*
X162132553Y-95514126D01*
X162132553Y-95514126D02*
X162084934Y-95704602D01*
X162084934Y-95704602D02*
X162037315Y-95799840D01*
X162037315Y-95799840D02*
X161989696Y-95847460D01*
X161989696Y-95847460D02*
X161894458Y-95895079D01*
X161894458Y-95895079D02*
X161799220Y-95895079D01*
X161799220Y-95895079D02*
X161703982Y-95847460D01*
X161703982Y-95847460D02*
X161656363Y-95799840D01*
X161656363Y-95799840D02*
X161608744Y-95704602D01*
X161608744Y-95704602D02*
X161561125Y-95514126D01*
X161561125Y-95514126D02*
X161561125Y-95276031D01*
X161561125Y-95276031D02*
X161608744Y-95085555D01*
X161608744Y-95085555D02*
X161656363Y-94990317D01*
X161656363Y-94990317D02*
X161703982Y-94942698D01*
X161703982Y-94942698D02*
X161799220Y-94895079D01*
X162418268Y-94895079D02*
X162989696Y-94895079D01*
X162703982Y-95895079D02*
X162703982Y-94895079D01*
X163227792Y-94895079D02*
X163894458Y-95895079D01*
X163894458Y-94895079D02*
X163227792Y-95895079D01*
X164275411Y-95895079D02*
X164275411Y-94895079D01*
X164275411Y-94895079D02*
X164513506Y-94895079D01*
X164513506Y-94895079D02*
X164656363Y-94942698D01*
X164656363Y-94942698D02*
X164751601Y-95037936D01*
X164751601Y-95037936D02*
X164799220Y-95133174D01*
X164799220Y-95133174D02*
X164846839Y-95323650D01*
X164846839Y-95323650D02*
X164846839Y-95466507D01*
X164846839Y-95466507D02*
X164799220Y-95656983D01*
X164799220Y-95656983D02*
X164751601Y-95752221D01*
X164751601Y-95752221D02*
X164656363Y-95847460D01*
X164656363Y-95847460D02*
X164513506Y-95895079D01*
X164513506Y-95895079D02*
X164275411Y-95895079D01*
X160370649Y-102562698D02*
X160275411Y-102515079D01*
X160275411Y-102515079D02*
X160132554Y-102515079D01*
X160132554Y-102515079D02*
X159989697Y-102562698D01*
X159989697Y-102562698D02*
X159894459Y-102657936D01*
X159894459Y-102657936D02*
X159846840Y-102753174D01*
X159846840Y-102753174D02*
X159799221Y-102943650D01*
X159799221Y-102943650D02*
X159799221Y-103086507D01*
X159799221Y-103086507D02*
X159846840Y-103276983D01*
X159846840Y-103276983D02*
X159894459Y-103372221D01*
X159894459Y-103372221D02*
X159989697Y-103467460D01*
X159989697Y-103467460D02*
X160132554Y-103515079D01*
X160132554Y-103515079D02*
X160227792Y-103515079D01*
X160227792Y-103515079D02*
X160370649Y-103467460D01*
X160370649Y-103467460D02*
X160418268Y-103419840D01*
X160418268Y-103419840D02*
X160418268Y-103086507D01*
X160418268Y-103086507D02*
X160227792Y-103086507D01*
X160846840Y-103515079D02*
X160846840Y-102515079D01*
X160846840Y-102515079D02*
X161227792Y-102515079D01*
X161227792Y-102515079D02*
X161323030Y-102562698D01*
X161323030Y-102562698D02*
X161370649Y-102610317D01*
X161370649Y-102610317D02*
X161418268Y-102705555D01*
X161418268Y-102705555D02*
X161418268Y-102848412D01*
X161418268Y-102848412D02*
X161370649Y-102943650D01*
X161370649Y-102943650D02*
X161323030Y-102991269D01*
X161323030Y-102991269D02*
X161227792Y-103038888D01*
X161227792Y-103038888D02*
X160846840Y-103038888D01*
X161846840Y-103515079D02*
X161846840Y-102515079D01*
X162513506Y-102515079D02*
X162703982Y-102515079D01*
X162703982Y-102515079D02*
X162799220Y-102562698D01*
X162799220Y-102562698D02*
X162894458Y-102657936D01*
X162894458Y-102657936D02*
X162942077Y-102848412D01*
X162942077Y-102848412D02*
X162942077Y-103181745D01*
X162942077Y-103181745D02*
X162894458Y-103372221D01*
X162894458Y-103372221D02*
X162799220Y-103467460D01*
X162799220Y-103467460D02*
X162703982Y-103515079D01*
X162703982Y-103515079D02*
X162513506Y-103515079D01*
X162513506Y-103515079D02*
X162418268Y-103467460D01*
X162418268Y-103467460D02*
X162323030Y-103372221D01*
X162323030Y-103372221D02*
X162275411Y-103181745D01*
X162275411Y-103181745D02*
X162275411Y-102848412D01*
X162275411Y-102848412D02*
X162323030Y-102657936D01*
X162323030Y-102657936D02*
X162418268Y-102562698D01*
X162418268Y-102562698D02*
X162513506Y-102515079D01*
X163323030Y-102610317D02*
X163370649Y-102562698D01*
X163370649Y-102562698D02*
X163465887Y-102515079D01*
X163465887Y-102515079D02*
X163703982Y-102515079D01*
X163703982Y-102515079D02*
X163799220Y-102562698D01*
X163799220Y-102562698D02*
X163846839Y-102610317D01*
X163846839Y-102610317D02*
X163894458Y-102705555D01*
X163894458Y-102705555D02*
X163894458Y-102800793D01*
X163894458Y-102800793D02*
X163846839Y-102943650D01*
X163846839Y-102943650D02*
X163275411Y-103515079D01*
X163275411Y-103515079D02*
X163894458Y-103515079D01*
X164275411Y-102610317D02*
X164323030Y-102562698D01*
X164323030Y-102562698D02*
X164418268Y-102515079D01*
X164418268Y-102515079D02*
X164656363Y-102515079D01*
X164656363Y-102515079D02*
X164751601Y-102562698D01*
X164751601Y-102562698D02*
X164799220Y-102610317D01*
X164799220Y-102610317D02*
X164846839Y-102705555D01*
X164846839Y-102705555D02*
X164846839Y-102800793D01*
X164846839Y-102800793D02*
X164799220Y-102943650D01*
X164799220Y-102943650D02*
X164227792Y-103515079D01*
X164227792Y-103515079D02*
X164846839Y-103515079D01*
X160370649Y-100022698D02*
X160275411Y-99975079D01*
X160275411Y-99975079D02*
X160132554Y-99975079D01*
X160132554Y-99975079D02*
X159989697Y-100022698D01*
X159989697Y-100022698D02*
X159894459Y-100117936D01*
X159894459Y-100117936D02*
X159846840Y-100213174D01*
X159846840Y-100213174D02*
X159799221Y-100403650D01*
X159799221Y-100403650D02*
X159799221Y-100546507D01*
X159799221Y-100546507D02*
X159846840Y-100736983D01*
X159846840Y-100736983D02*
X159894459Y-100832221D01*
X159894459Y-100832221D02*
X159989697Y-100927460D01*
X159989697Y-100927460D02*
X160132554Y-100975079D01*
X160132554Y-100975079D02*
X160227792Y-100975079D01*
X160227792Y-100975079D02*
X160370649Y-100927460D01*
X160370649Y-100927460D02*
X160418268Y-100879840D01*
X160418268Y-100879840D02*
X160418268Y-100546507D01*
X160418268Y-100546507D02*
X160227792Y-100546507D01*
X160846840Y-100975079D02*
X160846840Y-99975079D01*
X160846840Y-99975079D02*
X161227792Y-99975079D01*
X161227792Y-99975079D02*
X161323030Y-100022698D01*
X161323030Y-100022698D02*
X161370649Y-100070317D01*
X161370649Y-100070317D02*
X161418268Y-100165555D01*
X161418268Y-100165555D02*
X161418268Y-100308412D01*
X161418268Y-100308412D02*
X161370649Y-100403650D01*
X161370649Y-100403650D02*
X161323030Y-100451269D01*
X161323030Y-100451269D02*
X161227792Y-100498888D01*
X161227792Y-100498888D02*
X160846840Y-100498888D01*
X161846840Y-100975079D02*
X161846840Y-99975079D01*
X162513506Y-99975079D02*
X162703982Y-99975079D01*
X162703982Y-99975079D02*
X162799220Y-100022698D01*
X162799220Y-100022698D02*
X162894458Y-100117936D01*
X162894458Y-100117936D02*
X162942077Y-100308412D01*
X162942077Y-100308412D02*
X162942077Y-100641745D01*
X162942077Y-100641745D02*
X162894458Y-100832221D01*
X162894458Y-100832221D02*
X162799220Y-100927460D01*
X162799220Y-100927460D02*
X162703982Y-100975079D01*
X162703982Y-100975079D02*
X162513506Y-100975079D01*
X162513506Y-100975079D02*
X162418268Y-100927460D01*
X162418268Y-100927460D02*
X162323030Y-100832221D01*
X162323030Y-100832221D02*
X162275411Y-100641745D01*
X162275411Y-100641745D02*
X162275411Y-100308412D01*
X162275411Y-100308412D02*
X162323030Y-100117936D01*
X162323030Y-100117936D02*
X162418268Y-100022698D01*
X162418268Y-100022698D02*
X162513506Y-99975079D01*
X163323030Y-100070317D02*
X163370649Y-100022698D01*
X163370649Y-100022698D02*
X163465887Y-99975079D01*
X163465887Y-99975079D02*
X163703982Y-99975079D01*
X163703982Y-99975079D02*
X163799220Y-100022698D01*
X163799220Y-100022698D02*
X163846839Y-100070317D01*
X163846839Y-100070317D02*
X163894458Y-100165555D01*
X163894458Y-100165555D02*
X163894458Y-100260793D01*
X163894458Y-100260793D02*
X163846839Y-100403650D01*
X163846839Y-100403650D02*
X163275411Y-100975079D01*
X163275411Y-100975079D02*
X163894458Y-100975079D01*
X164227792Y-99975079D02*
X164846839Y-99975079D01*
X164846839Y-99975079D02*
X164513506Y-100356031D01*
X164513506Y-100356031D02*
X164656363Y-100356031D01*
X164656363Y-100356031D02*
X164751601Y-100403650D01*
X164751601Y-100403650D02*
X164799220Y-100451269D01*
X164799220Y-100451269D02*
X164846839Y-100546507D01*
X164846839Y-100546507D02*
X164846839Y-100784602D01*
X164846839Y-100784602D02*
X164799220Y-100879840D01*
X164799220Y-100879840D02*
X164751601Y-100927460D01*
X164751601Y-100927460D02*
X164656363Y-100975079D01*
X164656363Y-100975079D02*
X164370649Y-100975079D01*
X164370649Y-100975079D02*
X164275411Y-100927460D01*
X164275411Y-100927460D02*
X164227792Y-100879840D01*
X162751601Y-120342698D02*
X162656363Y-120295079D01*
X162656363Y-120295079D02*
X162513506Y-120295079D01*
X162513506Y-120295079D02*
X162370649Y-120342698D01*
X162370649Y-120342698D02*
X162275411Y-120437936D01*
X162275411Y-120437936D02*
X162227792Y-120533174D01*
X162227792Y-120533174D02*
X162180173Y-120723650D01*
X162180173Y-120723650D02*
X162180173Y-120866507D01*
X162180173Y-120866507D02*
X162227792Y-121056983D01*
X162227792Y-121056983D02*
X162275411Y-121152221D01*
X162275411Y-121152221D02*
X162370649Y-121247460D01*
X162370649Y-121247460D02*
X162513506Y-121295079D01*
X162513506Y-121295079D02*
X162608744Y-121295079D01*
X162608744Y-121295079D02*
X162751601Y-121247460D01*
X162751601Y-121247460D02*
X162799220Y-121199840D01*
X162799220Y-121199840D02*
X162799220Y-120866507D01*
X162799220Y-120866507D02*
X162608744Y-120866507D01*
X163227792Y-121295079D02*
X163227792Y-120295079D01*
X163227792Y-120295079D02*
X163799220Y-121295079D01*
X163799220Y-121295079D02*
X163799220Y-120295079D01*
X164275411Y-121295079D02*
X164275411Y-120295079D01*
X164275411Y-120295079D02*
X164513506Y-120295079D01*
X164513506Y-120295079D02*
X164656363Y-120342698D01*
X164656363Y-120342698D02*
X164751601Y-120437936D01*
X164751601Y-120437936D02*
X164799220Y-120533174D01*
X164799220Y-120533174D02*
X164846839Y-120723650D01*
X164846839Y-120723650D02*
X164846839Y-120866507D01*
X164846839Y-120866507D02*
X164799220Y-121056983D01*
X164799220Y-121056983D02*
X164751601Y-121152221D01*
X164751601Y-121152221D02*
X164656363Y-121247460D01*
X164656363Y-121247460D02*
X164513506Y-121295079D01*
X164513506Y-121295079D02*
X164275411Y-121295079D01*
X145676588Y-105102698D02*
X145581350Y-105055079D01*
X145581350Y-105055079D02*
X145438493Y-105055079D01*
X145438493Y-105055079D02*
X145295636Y-105102698D01*
X145295636Y-105102698D02*
X145200398Y-105197936D01*
X145200398Y-105197936D02*
X145152779Y-105293174D01*
X145152779Y-105293174D02*
X145105160Y-105483650D01*
X145105160Y-105483650D02*
X145105160Y-105626507D01*
X145105160Y-105626507D02*
X145152779Y-105816983D01*
X145152779Y-105816983D02*
X145200398Y-105912221D01*
X145200398Y-105912221D02*
X145295636Y-106007460D01*
X145295636Y-106007460D02*
X145438493Y-106055079D01*
X145438493Y-106055079D02*
X145533731Y-106055079D01*
X145533731Y-106055079D02*
X145676588Y-106007460D01*
X145676588Y-106007460D02*
X145724207Y-105959840D01*
X145724207Y-105959840D02*
X145724207Y-105626507D01*
X145724207Y-105626507D02*
X145533731Y-105626507D01*
X146152779Y-106055079D02*
X146152779Y-105055079D01*
X146152779Y-105055079D02*
X146533731Y-105055079D01*
X146533731Y-105055079D02*
X146628969Y-105102698D01*
X146628969Y-105102698D02*
X146676588Y-105150317D01*
X146676588Y-105150317D02*
X146724207Y-105245555D01*
X146724207Y-105245555D02*
X146724207Y-105388412D01*
X146724207Y-105388412D02*
X146676588Y-105483650D01*
X146676588Y-105483650D02*
X146628969Y-105531269D01*
X146628969Y-105531269D02*
X146533731Y-105578888D01*
X146533731Y-105578888D02*
X146152779Y-105578888D01*
X147152779Y-106055079D02*
X147152779Y-105055079D01*
X147819445Y-105055079D02*
X148009921Y-105055079D01*
X148009921Y-105055079D02*
X148105159Y-105102698D01*
X148105159Y-105102698D02*
X148200397Y-105197936D01*
X148200397Y-105197936D02*
X148248016Y-105388412D01*
X148248016Y-105388412D02*
X148248016Y-105721745D01*
X148248016Y-105721745D02*
X148200397Y-105912221D01*
X148200397Y-105912221D02*
X148105159Y-106007460D01*
X148105159Y-106007460D02*
X148009921Y-106055079D01*
X148009921Y-106055079D02*
X147819445Y-106055079D01*
X147819445Y-106055079D02*
X147724207Y-106007460D01*
X147724207Y-106007460D02*
X147628969Y-105912221D01*
X147628969Y-105912221D02*
X147581350Y-105721745D01*
X147581350Y-105721745D02*
X147581350Y-105388412D01*
X147581350Y-105388412D02*
X147628969Y-105197936D01*
X147628969Y-105197936D02*
X147724207Y-105102698D01*
X147724207Y-105102698D02*
X147819445Y-105055079D01*
X149152778Y-105055079D02*
X148676588Y-105055079D01*
X148676588Y-105055079D02*
X148628969Y-105531269D01*
X148628969Y-105531269D02*
X148676588Y-105483650D01*
X148676588Y-105483650D02*
X148771826Y-105436031D01*
X148771826Y-105436031D02*
X149009921Y-105436031D01*
X149009921Y-105436031D02*
X149105159Y-105483650D01*
X149105159Y-105483650D02*
X149152778Y-105531269D01*
X149152778Y-105531269D02*
X149200397Y-105626507D01*
X149200397Y-105626507D02*
X149200397Y-105864602D01*
X149200397Y-105864602D02*
X149152778Y-105959840D01*
X149152778Y-105959840D02*
X149105159Y-106007460D01*
X149105159Y-106007460D02*
X149009921Y-106055079D01*
X149009921Y-106055079D02*
X148771826Y-106055079D01*
X148771826Y-106055079D02*
X148676588Y-106007460D01*
X148676588Y-106007460D02*
X148628969Y-105959840D01*
X149486112Y-105674126D02*
X149533731Y-105626507D01*
X149533731Y-105626507D02*
X149628969Y-105578888D01*
X149628969Y-105578888D02*
X149819445Y-105674126D01*
X149819445Y-105674126D02*
X149914683Y-105626507D01*
X149914683Y-105626507D02*
X149962302Y-105578888D01*
X161003895Y-135759879D02*
X161003895Y-136569402D01*
X161003895Y-136569402D02*
X161051514Y-136664640D01*
X161051514Y-136664640D02*
X161099133Y-136712260D01*
X161099133Y-136712260D02*
X161194371Y-136759879D01*
X161194371Y-136759879D02*
X161384847Y-136759879D01*
X161384847Y-136759879D02*
X161480085Y-136712260D01*
X161480085Y-136712260D02*
X161527704Y-136664640D01*
X161527704Y-136664640D02*
X161575323Y-136569402D01*
X161575323Y-136569402D02*
X161575323Y-135759879D01*
X162003895Y-136712260D02*
X162146752Y-136759879D01*
X162146752Y-136759879D02*
X162384847Y-136759879D01*
X162384847Y-136759879D02*
X162480085Y-136712260D01*
X162480085Y-136712260D02*
X162527704Y-136664640D01*
X162527704Y-136664640D02*
X162575323Y-136569402D01*
X162575323Y-136569402D02*
X162575323Y-136474164D01*
X162575323Y-136474164D02*
X162527704Y-136378926D01*
X162527704Y-136378926D02*
X162480085Y-136331307D01*
X162480085Y-136331307D02*
X162384847Y-136283688D01*
X162384847Y-136283688D02*
X162194371Y-136236069D01*
X162194371Y-136236069D02*
X162099133Y-136188450D01*
X162099133Y-136188450D02*
X162051514Y-136140831D01*
X162051514Y-136140831D02*
X162003895Y-136045593D01*
X162003895Y-136045593D02*
X162003895Y-135950355D01*
X162003895Y-135950355D02*
X162051514Y-135855117D01*
X162051514Y-135855117D02*
X162099133Y-135807498D01*
X162099133Y-135807498D02*
X162194371Y-135759879D01*
X162194371Y-135759879D02*
X162432466Y-135759879D01*
X162432466Y-135759879D02*
X162575323Y-135807498D01*
X163337228Y-136236069D02*
X163480085Y-136283688D01*
X163480085Y-136283688D02*
X163527704Y-136331307D01*
X163527704Y-136331307D02*
X163575323Y-136426545D01*
X163575323Y-136426545D02*
X163575323Y-136569402D01*
X163575323Y-136569402D02*
X163527704Y-136664640D01*
X163527704Y-136664640D02*
X163480085Y-136712260D01*
X163480085Y-136712260D02*
X163384847Y-136759879D01*
X163384847Y-136759879D02*
X163003895Y-136759879D01*
X163003895Y-136759879D02*
X163003895Y-135759879D01*
X163003895Y-135759879D02*
X163337228Y-135759879D01*
X163337228Y-135759879D02*
X163432466Y-135807498D01*
X163432466Y-135807498D02*
X163480085Y-135855117D01*
X163480085Y-135855117D02*
X163527704Y-135950355D01*
X163527704Y-135950355D02*
X163527704Y-136045593D01*
X163527704Y-136045593D02*
X163480085Y-136140831D01*
X163480085Y-136140831D02*
X163432466Y-136188450D01*
X163432466Y-136188450D02*
X163337228Y-136236069D01*
X163337228Y-136236069D02*
X163003895Y-136236069D01*
X160370649Y-105102698D02*
X160275411Y-105055079D01*
X160275411Y-105055079D02*
X160132554Y-105055079D01*
X160132554Y-105055079D02*
X159989697Y-105102698D01*
X159989697Y-105102698D02*
X159894459Y-105197936D01*
X159894459Y-105197936D02*
X159846840Y-105293174D01*
X159846840Y-105293174D02*
X159799221Y-105483650D01*
X159799221Y-105483650D02*
X159799221Y-105626507D01*
X159799221Y-105626507D02*
X159846840Y-105816983D01*
X159846840Y-105816983D02*
X159894459Y-105912221D01*
X159894459Y-105912221D02*
X159989697Y-106007460D01*
X159989697Y-106007460D02*
X160132554Y-106055079D01*
X160132554Y-106055079D02*
X160227792Y-106055079D01*
X160227792Y-106055079D02*
X160370649Y-106007460D01*
X160370649Y-106007460D02*
X160418268Y-105959840D01*
X160418268Y-105959840D02*
X160418268Y-105626507D01*
X160418268Y-105626507D02*
X160227792Y-105626507D01*
X160846840Y-106055079D02*
X160846840Y-105055079D01*
X160846840Y-105055079D02*
X161227792Y-105055079D01*
X161227792Y-105055079D02*
X161323030Y-105102698D01*
X161323030Y-105102698D02*
X161370649Y-105150317D01*
X161370649Y-105150317D02*
X161418268Y-105245555D01*
X161418268Y-105245555D02*
X161418268Y-105388412D01*
X161418268Y-105388412D02*
X161370649Y-105483650D01*
X161370649Y-105483650D02*
X161323030Y-105531269D01*
X161323030Y-105531269D02*
X161227792Y-105578888D01*
X161227792Y-105578888D02*
X160846840Y-105578888D01*
X161846840Y-106055079D02*
X161846840Y-105055079D01*
X162513506Y-105055079D02*
X162703982Y-105055079D01*
X162703982Y-105055079D02*
X162799220Y-105102698D01*
X162799220Y-105102698D02*
X162894458Y-105197936D01*
X162894458Y-105197936D02*
X162942077Y-105388412D01*
X162942077Y-105388412D02*
X162942077Y-105721745D01*
X162942077Y-105721745D02*
X162894458Y-105912221D01*
X162894458Y-105912221D02*
X162799220Y-106007460D01*
X162799220Y-106007460D02*
X162703982Y-106055079D01*
X162703982Y-106055079D02*
X162513506Y-106055079D01*
X162513506Y-106055079D02*
X162418268Y-106007460D01*
X162418268Y-106007460D02*
X162323030Y-105912221D01*
X162323030Y-105912221D02*
X162275411Y-105721745D01*
X162275411Y-105721745D02*
X162275411Y-105388412D01*
X162275411Y-105388412D02*
X162323030Y-105197936D01*
X162323030Y-105197936D02*
X162418268Y-105102698D01*
X162418268Y-105102698D02*
X162513506Y-105055079D01*
X163323030Y-105150317D02*
X163370649Y-105102698D01*
X163370649Y-105102698D02*
X163465887Y-105055079D01*
X163465887Y-105055079D02*
X163703982Y-105055079D01*
X163703982Y-105055079D02*
X163799220Y-105102698D01*
X163799220Y-105102698D02*
X163846839Y-105150317D01*
X163846839Y-105150317D02*
X163894458Y-105245555D01*
X163894458Y-105245555D02*
X163894458Y-105340793D01*
X163894458Y-105340793D02*
X163846839Y-105483650D01*
X163846839Y-105483650D02*
X163275411Y-106055079D01*
X163275411Y-106055079D02*
X163894458Y-106055079D01*
X164846839Y-106055079D02*
X164275411Y-106055079D01*
X164561125Y-106055079D02*
X164561125Y-105055079D01*
X164561125Y-105055079D02*
X164465887Y-105197936D01*
X164465887Y-105197936D02*
X164370649Y-105293174D01*
X164370649Y-105293174D02*
X164275411Y-105340793D01*
X145676588Y-97482698D02*
X145581350Y-97435079D01*
X145581350Y-97435079D02*
X145438493Y-97435079D01*
X145438493Y-97435079D02*
X145295636Y-97482698D01*
X145295636Y-97482698D02*
X145200398Y-97577936D01*
X145200398Y-97577936D02*
X145152779Y-97673174D01*
X145152779Y-97673174D02*
X145105160Y-97863650D01*
X145105160Y-97863650D02*
X145105160Y-98006507D01*
X145105160Y-98006507D02*
X145152779Y-98196983D01*
X145152779Y-98196983D02*
X145200398Y-98292221D01*
X145200398Y-98292221D02*
X145295636Y-98387460D01*
X145295636Y-98387460D02*
X145438493Y-98435079D01*
X145438493Y-98435079D02*
X145533731Y-98435079D01*
X145533731Y-98435079D02*
X145676588Y-98387460D01*
X145676588Y-98387460D02*
X145724207Y-98339840D01*
X145724207Y-98339840D02*
X145724207Y-98006507D01*
X145724207Y-98006507D02*
X145533731Y-98006507D01*
X146152779Y-98435079D02*
X146152779Y-97435079D01*
X146152779Y-97435079D02*
X146533731Y-97435079D01*
X146533731Y-97435079D02*
X146628969Y-97482698D01*
X146628969Y-97482698D02*
X146676588Y-97530317D01*
X146676588Y-97530317D02*
X146724207Y-97625555D01*
X146724207Y-97625555D02*
X146724207Y-97768412D01*
X146724207Y-97768412D02*
X146676588Y-97863650D01*
X146676588Y-97863650D02*
X146628969Y-97911269D01*
X146628969Y-97911269D02*
X146533731Y-97958888D01*
X146533731Y-97958888D02*
X146152779Y-97958888D01*
X147152779Y-98435079D02*
X147152779Y-97435079D01*
X147819445Y-97435079D02*
X148009921Y-97435079D01*
X148009921Y-97435079D02*
X148105159Y-97482698D01*
X148105159Y-97482698D02*
X148200397Y-97577936D01*
X148200397Y-97577936D02*
X148248016Y-97768412D01*
X148248016Y-97768412D02*
X148248016Y-98101745D01*
X148248016Y-98101745D02*
X148200397Y-98292221D01*
X148200397Y-98292221D02*
X148105159Y-98387460D01*
X148105159Y-98387460D02*
X148009921Y-98435079D01*
X148009921Y-98435079D02*
X147819445Y-98435079D01*
X147819445Y-98435079D02*
X147724207Y-98387460D01*
X147724207Y-98387460D02*
X147628969Y-98292221D01*
X147628969Y-98292221D02*
X147581350Y-98101745D01*
X147581350Y-98101745D02*
X147581350Y-97768412D01*
X147581350Y-97768412D02*
X147628969Y-97577936D01*
X147628969Y-97577936D02*
X147724207Y-97482698D01*
X147724207Y-97482698D02*
X147819445Y-97435079D01*
X148628969Y-97530317D02*
X148676588Y-97482698D01*
X148676588Y-97482698D02*
X148771826Y-97435079D01*
X148771826Y-97435079D02*
X149009921Y-97435079D01*
X149009921Y-97435079D02*
X149105159Y-97482698D01*
X149105159Y-97482698D02*
X149152778Y-97530317D01*
X149152778Y-97530317D02*
X149200397Y-97625555D01*
X149200397Y-97625555D02*
X149200397Y-97720793D01*
X149200397Y-97720793D02*
X149152778Y-97863650D01*
X149152778Y-97863650D02*
X148581350Y-98435079D01*
X148581350Y-98435079D02*
X149200397Y-98435079D01*
X149486112Y-98054126D02*
X149533731Y-98006507D01*
X149533731Y-98006507D02*
X149628969Y-97958888D01*
X149628969Y-97958888D02*
X149819445Y-98054126D01*
X149819445Y-98054126D02*
X149914683Y-98006507D01*
X149914683Y-98006507D02*
X149962302Y-97958888D01*
X162751601Y-92402698D02*
X162656363Y-92355079D01*
X162656363Y-92355079D02*
X162513506Y-92355079D01*
X162513506Y-92355079D02*
X162370649Y-92402698D01*
X162370649Y-92402698D02*
X162275411Y-92497936D01*
X162275411Y-92497936D02*
X162227792Y-92593174D01*
X162227792Y-92593174D02*
X162180173Y-92783650D01*
X162180173Y-92783650D02*
X162180173Y-92926507D01*
X162180173Y-92926507D02*
X162227792Y-93116983D01*
X162227792Y-93116983D02*
X162275411Y-93212221D01*
X162275411Y-93212221D02*
X162370649Y-93307460D01*
X162370649Y-93307460D02*
X162513506Y-93355079D01*
X162513506Y-93355079D02*
X162608744Y-93355079D01*
X162608744Y-93355079D02*
X162751601Y-93307460D01*
X162751601Y-93307460D02*
X162799220Y-93259840D01*
X162799220Y-93259840D02*
X162799220Y-92926507D01*
X162799220Y-92926507D02*
X162608744Y-92926507D01*
X163227792Y-93355079D02*
X163227792Y-92355079D01*
X163227792Y-92355079D02*
X163799220Y-93355079D01*
X163799220Y-93355079D02*
X163799220Y-92355079D01*
X164275411Y-93355079D02*
X164275411Y-92355079D01*
X164275411Y-92355079D02*
X164513506Y-92355079D01*
X164513506Y-92355079D02*
X164656363Y-92402698D01*
X164656363Y-92402698D02*
X164751601Y-92497936D01*
X164751601Y-92497936D02*
X164799220Y-92593174D01*
X164799220Y-92593174D02*
X164846839Y-92783650D01*
X164846839Y-92783650D02*
X164846839Y-92926507D01*
X164846839Y-92926507D02*
X164799220Y-93116983D01*
X164799220Y-93116983D02*
X164751601Y-93212221D01*
X164751601Y-93212221D02*
X164656363Y-93307460D01*
X164656363Y-93307460D02*
X164513506Y-93355079D01*
X164513506Y-93355079D02*
X164275411Y-93355079D01*
X185666666Y-146454819D02*
X185333333Y-145978628D01*
X185095238Y-146454819D02*
X185095238Y-145454819D01*
X185095238Y-145454819D02*
X185476190Y-145454819D01*
X185476190Y-145454819D02*
X185571428Y-145502438D01*
X185571428Y-145502438D02*
X185619047Y-145550057D01*
X185619047Y-145550057D02*
X185666666Y-145645295D01*
X185666666Y-145645295D02*
X185666666Y-145788152D01*
X185666666Y-145788152D02*
X185619047Y-145883390D01*
X185619047Y-145883390D02*
X185571428Y-145931009D01*
X185571428Y-145931009D02*
X185476190Y-145978628D01*
X185476190Y-145978628D02*
X185095238Y-145978628D01*
X186095238Y-145931009D02*
X186428571Y-145931009D01*
X186571428Y-146454819D02*
X186095238Y-146454819D01*
X186095238Y-146454819D02*
X186095238Y-145454819D01*
X186095238Y-145454819D02*
X186571428Y-145454819D01*
X187333333Y-145931009D02*
X187000000Y-145931009D01*
X187000000Y-146454819D02*
X187000000Y-145454819D01*
X187000000Y-145454819D02*
X187476190Y-145454819D01*
X188000000Y-145454819D02*
X188000000Y-145692914D01*
X187761905Y-145597676D02*
X188000000Y-145692914D01*
X188000000Y-145692914D02*
X188238095Y-145597676D01*
X187857143Y-145883390D02*
X188000000Y-145692914D01*
X188000000Y-145692914D02*
X188142857Y-145883390D01*
X188761905Y-145454819D02*
X188761905Y-145692914D01*
X188523810Y-145597676D02*
X188761905Y-145692914D01*
X188761905Y-145692914D02*
X189000000Y-145597676D01*
X188619048Y-145883390D02*
X188761905Y-145692914D01*
X188761905Y-145692914D02*
X188904762Y-145883390D01*
X182360714Y-85589819D02*
X182360714Y-84589819D01*
X182360714Y-84589819D02*
X182741666Y-84589819D01*
X182741666Y-84589819D02*
X182836904Y-84637438D01*
X182836904Y-84637438D02*
X182884523Y-84685057D01*
X182884523Y-84685057D02*
X182932142Y-84780295D01*
X182932142Y-84780295D02*
X182932142Y-84923152D01*
X182932142Y-84923152D02*
X182884523Y-85018390D01*
X182884523Y-85018390D02*
X182836904Y-85066009D01*
X182836904Y-85066009D02*
X182741666Y-85113628D01*
X182741666Y-85113628D02*
X182360714Y-85113628D01*
X183313095Y-85542200D02*
X183455952Y-85589819D01*
X183455952Y-85589819D02*
X183694047Y-85589819D01*
X183694047Y-85589819D02*
X183789285Y-85542200D01*
X183789285Y-85542200D02*
X183836904Y-85494580D01*
X183836904Y-85494580D02*
X183884523Y-85399342D01*
X183884523Y-85399342D02*
X183884523Y-85304104D01*
X183884523Y-85304104D02*
X183836904Y-85208866D01*
X183836904Y-85208866D02*
X183789285Y-85161247D01*
X183789285Y-85161247D02*
X183694047Y-85113628D01*
X183694047Y-85113628D02*
X183503571Y-85066009D01*
X183503571Y-85066009D02*
X183408333Y-85018390D01*
X183408333Y-85018390D02*
X183360714Y-84970771D01*
X183360714Y-84970771D02*
X183313095Y-84875533D01*
X183313095Y-84875533D02*
X183313095Y-84780295D01*
X183313095Y-84780295D02*
X183360714Y-84685057D01*
X183360714Y-84685057D02*
X183408333Y-84637438D01*
X183408333Y-84637438D02*
X183503571Y-84589819D01*
X183503571Y-84589819D02*
X183741666Y-84589819D01*
X183741666Y-84589819D02*
X183884523Y-84637438D01*
X184836904Y-85589819D02*
X184265476Y-85589819D01*
X184551190Y-85589819D02*
X184551190Y-84589819D01*
X184551190Y-84589819D02*
X184455952Y-84732676D01*
X184455952Y-84732676D02*
X184360714Y-84827914D01*
X184360714Y-84827914D02*
X184265476Y-84875533D01*
X180454819Y-132103094D02*
X179454819Y-132103094D01*
X180454819Y-131531666D02*
X179883390Y-131960237D01*
X179454819Y-131531666D02*
X180026247Y-132103094D01*
X180454819Y-130579285D02*
X180454819Y-131150713D01*
X180454819Y-130864999D02*
X179454819Y-130864999D01*
X179454819Y-130864999D02*
X179597676Y-130960237D01*
X179597676Y-130960237D02*
X179692914Y-131055475D01*
X179692914Y-131055475D02*
X179740533Y-131150713D01*
X119666561Y-146454650D02*
X119666561Y-147169160D01*
X119666561Y-147169160D02*
X119618927Y-147312062D01*
X119618927Y-147312062D02*
X119523659Y-147407331D01*
X119523659Y-147407331D02*
X119380757Y-147454965D01*
X119380757Y-147454965D02*
X119285489Y-147454965D01*
X120666876Y-147454965D02*
X120095268Y-147454965D01*
X120381072Y-147454965D02*
X120381072Y-146454650D01*
X120381072Y-146454650D02*
X120285804Y-146597552D01*
X120285804Y-146597552D02*
X120190536Y-146692820D01*
X120190536Y-146692820D02*
X120095268Y-146740454D01*
X194239866Y-90466666D02*
X195239866Y-90466666D01*
X195239866Y-90466666D02*
X195439866Y-90533333D01*
X195439866Y-90533333D02*
X195573200Y-90666666D01*
X195573200Y-90666666D02*
X195639866Y-90866666D01*
X195639866Y-90866666D02*
X195639866Y-91000000D01*
X194239866Y-89133333D02*
X194239866Y-89799999D01*
X194239866Y-89799999D02*
X194906533Y-89866666D01*
X194906533Y-89866666D02*
X194839866Y-89799999D01*
X194839866Y-89799999D02*
X194773200Y-89666666D01*
X194773200Y-89666666D02*
X194773200Y-89333333D01*
X194773200Y-89333333D02*
X194839866Y-89199999D01*
X194839866Y-89199999D02*
X194906533Y-89133333D01*
X194906533Y-89133333D02*
X195039866Y-89066666D01*
X195039866Y-89066666D02*
X195373200Y-89066666D01*
X195373200Y-89066666D02*
X195506533Y-89133333D01*
X195506533Y-89133333D02*
X195573200Y-89199999D01*
X195573200Y-89199999D02*
X195639866Y-89333333D01*
X195639866Y-89333333D02*
X195639866Y-89666666D01*
X195639866Y-89666666D02*
X195573200Y-89799999D01*
X195573200Y-89799999D02*
X195506533Y-89866666D01*
X196239866Y-124466666D02*
X197239866Y-124466666D01*
X197239866Y-124466666D02*
X197439866Y-124533333D01*
X197439866Y-124533333D02*
X197573200Y-124666666D01*
X197573200Y-124666666D02*
X197639866Y-124866666D01*
X197639866Y-124866666D02*
X197639866Y-125000000D01*
X196239866Y-123199999D02*
X196239866Y-123466666D01*
X196239866Y-123466666D02*
X196306533Y-123599999D01*
X196306533Y-123599999D02*
X196373200Y-123666666D01*
X196373200Y-123666666D02*
X196573200Y-123799999D01*
X196573200Y-123799999D02*
X196839866Y-123866666D01*
X196839866Y-123866666D02*
X197373200Y-123866666D01*
X197373200Y-123866666D02*
X197506533Y-123799999D01*
X197506533Y-123799999D02*
X197573200Y-123733333D01*
X197573200Y-123733333D02*
X197639866Y-123599999D01*
X197639866Y-123599999D02*
X197639866Y-123333333D01*
X197639866Y-123333333D02*
X197573200Y-123199999D01*
X197573200Y-123199999D02*
X197506533Y-123133333D01*
X197506533Y-123133333D02*
X197373200Y-123066666D01*
X197373200Y-123066666D02*
X197039866Y-123066666D01*
X197039866Y-123066666D02*
X196906533Y-123133333D01*
X196906533Y-123133333D02*
X196839866Y-123199999D01*
X196839866Y-123199999D02*
X196773200Y-123333333D01*
X196773200Y-123333333D02*
X196773200Y-123599999D01*
X196773200Y-123599999D02*
X196839866Y-123733333D01*
X196839866Y-123733333D02*
X196906533Y-123799999D01*
X196906533Y-123799999D02*
X197039866Y-123866666D01*
D13*
X132075595Y-52957419D02*
X132075595Y-53766942D01*
X132075595Y-53766942D02*
X132123214Y-53862180D01*
X132123214Y-53862180D02*
X132170833Y-53909800D01*
X132170833Y-53909800D02*
X132266071Y-53957419D01*
X132266071Y-53957419D02*
X132456547Y-53957419D01*
X132456547Y-53957419D02*
X132551785Y-53909800D01*
X132551785Y-53909800D02*
X132599404Y-53862180D01*
X132599404Y-53862180D02*
X132647023Y-53766942D01*
X132647023Y-53766942D02*
X132647023Y-52957419D01*
X133075595Y-53052657D02*
X133123214Y-53005038D01*
X133123214Y-53005038D02*
X133218452Y-52957419D01*
X133218452Y-52957419D02*
X133456547Y-52957419D01*
X133456547Y-52957419D02*
X133551785Y-53005038D01*
X133551785Y-53005038D02*
X133599404Y-53052657D01*
X133599404Y-53052657D02*
X133647023Y-53147895D01*
X133647023Y-53147895D02*
X133647023Y-53243133D01*
X133647023Y-53243133D02*
X133599404Y-53385990D01*
X133599404Y-53385990D02*
X133027976Y-53957419D01*
X133027976Y-53957419D02*
X133647023Y-53957419D01*
D15*
X103500000Y-52900000D02*
X113500000Y-52900000D01*
X103500000Y-60500000D02*
X103500000Y-52900000D01*
X113500000Y-52900000D02*
X113500000Y-60500000D01*
X113500000Y-60500000D02*
X103500000Y-60500000D01*
D12*
X106100000Y-61500000D02*
G75*
G02*
X105900000Y-61500000I-100000J0D01*
G01*
X105900000Y-61500000D02*
G75*
G02*
X106100000Y-61500000I100000J0D01*
G01*
D16*
X151920000Y-66190000D02*
X151920000Y-73810000D01*
X151920000Y-67460000D02*
X162080000Y-67460000D01*
X151920000Y-73810000D02*
X162080000Y-73810000D01*
X162080000Y-66190000D02*
X151920000Y-66190000D01*
X162080000Y-73810000D02*
X162080000Y-66190000D01*
X103920000Y-66190000D02*
X103920000Y-73810000D01*
X103920000Y-67460000D02*
X114080000Y-67460000D01*
X103920000Y-73810000D02*
X114080000Y-73810000D01*
X114080000Y-66190000D02*
X103920000Y-66190000D01*
X114080000Y-73810000D02*
X114080000Y-66190000D01*
X131227064Y-97265000D02*
X130772936Y-97265000D01*
X131227064Y-98735000D02*
X130772936Y-98735000D01*
D15*
X152000000Y-52737500D02*
X162000000Y-52737500D01*
X152000000Y-60337500D02*
X152000000Y-52737500D01*
X162000000Y-52737500D02*
X162000000Y-60337500D01*
X162000000Y-60337500D02*
X152000000Y-60337500D01*
D12*
X154600000Y-61337500D02*
G75*
G02*
X154400000Y-61337500I-100000J0D01*
G01*
X154400000Y-61337500D02*
G75*
G02*
X154600000Y-61337500I100000J0D01*
G01*
D13*
X164250000Y-56000000D02*
X197750000Y-56000000D01*
X197750000Y-72000000D01*
X164250000Y-72000000D01*
X164250000Y-56000000D01*
D15*
X126430000Y-77400000D02*
X138110000Y-77400000D01*
X126430000Y-83400000D02*
X126430000Y-77400000D01*
X138110000Y-77400000D02*
X138110000Y-83400000D01*
X138110000Y-83400000D02*
X126430000Y-83400000D01*
D12*
X138770000Y-79000000D02*
G75*
G02*
X138570000Y-79000000I-100000J0D01*
G01*
X138570000Y-79000000D02*
G75*
G02*
X138770000Y-79000000I100000J0D01*
G01*
D15*
X134000000Y-137160000D02*
X140000000Y-137160000D01*
X134000000Y-148840000D02*
X134000000Y-137160000D01*
X140000000Y-137160000D02*
X140000000Y-148840000D01*
X140000000Y-148840000D02*
X134000000Y-148840000D01*
D12*
X135700000Y-136600000D02*
G75*
G02*
X135500000Y-136600000I-100000J0D01*
G01*
X135500000Y-136600000D02*
G75*
G02*
X135700000Y-136600000I100000J0D01*
G01*
D15*
X103000000Y-88500000D02*
X112000000Y-88500000D01*
X103000000Y-128500000D02*
X103000000Y-88500000D01*
X112000000Y-88500000D02*
X112000000Y-128500000D01*
X112000000Y-128500000D02*
X103000000Y-128500000D01*
D12*
X113100000Y-126000000D02*
G75*
G02*
X112900000Y-126000000I-100000J0D01*
G01*
X112900000Y-126000000D02*
G75*
G02*
X113100000Y-126000000I100000J0D01*
G01*
D16*
X102920000Y-129190000D02*
X102920000Y-136810000D01*
X102920000Y-136810000D02*
X113080000Y-136810000D01*
X113080000Y-129190000D02*
X102920000Y-129190000D01*
X113080000Y-135540000D02*
X102920000Y-135540000D01*
X113080000Y-136810000D02*
X113080000Y-129190000D01*
X131227064Y-103265000D02*
X130772936Y-103265000D01*
X131227064Y-104735000D02*
X130772936Y-104735000D01*
X131227064Y-109265000D02*
X130772936Y-109265000D01*
X131227064Y-110735000D02*
X130772936Y-110735000D01*
X131227064Y-115265000D02*
X130772936Y-115265000D01*
X131227064Y-116735000D02*
X130772936Y-116735000D01*
X142300000Y-91325260D02*
X142300000Y-139585260D01*
X142300000Y-139585260D02*
X167700000Y-139585260D01*
X148397720Y-85934940D02*
X161597720Y-85934940D01*
X148397720Y-91304940D02*
X148397720Y-85934940D01*
X161597720Y-85934940D02*
X161597720Y-91304940D01*
X167700000Y-91325260D02*
X142300000Y-91325260D01*
X167700000Y-139585260D02*
X167700000Y-91325260D01*
X143446200Y-132775260D02*
X152082200Y-132775260D01*
X152082200Y-140065060D01*
X143446200Y-140065060D01*
X143446200Y-132775260D01*
X157846200Y-132775260D02*
X166482200Y-132775260D01*
X166482200Y-140065060D01*
X157846200Y-140065060D01*
X157846200Y-132775260D01*
D15*
X175160000Y-78000000D02*
X186840000Y-78000000D01*
X175160000Y-84000000D02*
X175160000Y-78000000D01*
X186840000Y-78000000D02*
X186840000Y-84000000D01*
X186840000Y-84000000D02*
X175160000Y-84000000D01*
D12*
X187500000Y-79600000D02*
G75*
G02*
X187300000Y-79600000I-100000J0D01*
G01*
X187300000Y-79600000D02*
G75*
G02*
X187500000Y-79600000I100000J0D01*
G01*
D17*
X170246400Y-123491000D02*
X170246400Y-139239000D01*
X170246400Y-123491000D02*
X189753600Y-123491000D01*
X170246400Y-139239000D02*
X189753600Y-139239000D01*
X171389400Y-140001000D02*
X172659400Y-140001000D01*
X172024400Y-140636000D02*
X172024400Y-139366000D01*
X189753600Y-123491000D02*
X189753600Y-139239000D01*
D15*
X103137500Y-139550000D02*
X117637500Y-139550000D01*
X103137500Y-148450000D02*
X103137500Y-139550000D01*
X117637500Y-139550000D02*
X117637500Y-141350000D01*
X117637500Y-146550000D02*
X117637500Y-148450000D01*
X117637500Y-148450000D02*
X103137500Y-148450000D01*
D12*
X119037500Y-144000000D02*
G75*
G02*
X118837500Y-144000000I-100000J0D01*
G01*
X118837500Y-144000000D02*
G75*
G02*
X119037500Y-144000000I100000J0D01*
G01*
D15*
X191000000Y-91500000D02*
X198800000Y-91500000D01*
X191000000Y-121500000D02*
X191000000Y-91500000D01*
X198800000Y-91500000D02*
X198800000Y-121500000D01*
X198800000Y-121500000D02*
X191000000Y-121500000D01*
X191500000Y-125500000D02*
X199100000Y-125500000D01*
X191500000Y-135500000D02*
X191500000Y-125500000D01*
X199100000Y-125500000D02*
X199100000Y-135500000D01*
X199100000Y-135500000D02*
X191500000Y-135500000D01*
D12*
X190600000Y-128000000D02*
G75*
G02*
X190400000Y-128000000I-100000J0D01*
G01*
X190400000Y-128000000D02*
G75*
G02*
X190600000Y-128000000I100000J0D01*
G01*
D13*
X116087500Y-56000000D02*
X149587500Y-56000000D01*
X149587500Y-72000000D01*
X116087500Y-72000000D01*
X116087500Y-56000000D01*
%LPC*%
D18*
X106000000Y-57000000D03*
D19*
X111000000Y-57000000D03*
D20*
X159540000Y-70000000D03*
D21*
X154460000Y-70000000D03*
D20*
X111540000Y-70000000D03*
D21*
X106460000Y-70000000D03*
D22*
X108000000Y-83000000D03*
D23*
X131912500Y-98000000D03*
X130087500Y-98000000D03*
D18*
X154500000Y-56837500D03*
D19*
X159500000Y-56837500D03*
D24*
X170000000Y-70500000D03*
X192000000Y-70500000D03*
D25*
X196000000Y-59000000D03*
X168500000Y-59000000D03*
D26*
X136080000Y-79000000D03*
D27*
X133540000Y-79000000D03*
X131000000Y-79000000D03*
X128460000Y-79000000D03*
D28*
X135600000Y-139190000D03*
D27*
X135600000Y-141730000D03*
X135600000Y-144270000D03*
X135600000Y-146810000D03*
D29*
X108000000Y-126000000D03*
D19*
X108000000Y-121000000D03*
X108000000Y-116000000D03*
X108000000Y-111000000D03*
X108000000Y-106000000D03*
X108000000Y-101000000D03*
X108000000Y-96000000D03*
X108000000Y-91000000D03*
D20*
X105460000Y-133000000D03*
D21*
X110540000Y-133000000D03*
D22*
X125000000Y-144000000D03*
X194000000Y-83000000D03*
D23*
X131912500Y-104000000D03*
X130087500Y-104000000D03*
X131912500Y-110000000D03*
X130087500Y-110000000D03*
X131912500Y-116000000D03*
X130087500Y-116000000D03*
D30*
X143546000Y-92900260D03*
D31*
X143546000Y-95440260D03*
X143546000Y-97980260D03*
X143546000Y-100520260D03*
X143546000Y-103060260D03*
X143546000Y-105600260D03*
X143546000Y-108140260D03*
X143546000Y-110680260D03*
X143546000Y-113220260D03*
X143546000Y-115760260D03*
X143546000Y-118300260D03*
X143546000Y-120840260D03*
X143546000Y-123380260D03*
X143546000Y-125920260D03*
X143546000Y-128460260D03*
X166406000Y-128460260D03*
X166406000Y-125920260D03*
X166406000Y-123380260D03*
X166406000Y-120840260D03*
X166406000Y-118300260D03*
X166406000Y-115760260D03*
X166406000Y-113220260D03*
X166406000Y-110680260D03*
X166406000Y-108140260D03*
X166406000Y-105600260D03*
X166406000Y-103060260D03*
X166406000Y-100520260D03*
X166406000Y-97980260D03*
X166406000Y-95440260D03*
X166406000Y-92900260D03*
D22*
X194000000Y-144000000D03*
D26*
X184810000Y-79600000D03*
D27*
X182270000Y-79600000D03*
X179730000Y-79600000D03*
X177190000Y-79600000D03*
D32*
X172024400Y-131365000D03*
D33*
X174031000Y-137359400D03*
X186223000Y-137359400D03*
X186223000Y-125370600D03*
X174031000Y-125370600D03*
D34*
X116937500Y-144000000D03*
X110637500Y-144000000D03*
D35*
X195000000Y-94000000D03*
D36*
X195000000Y-99000000D03*
X195000000Y-104000000D03*
X195000000Y-109000000D03*
X195000000Y-114000000D03*
X195000000Y-119000000D03*
D37*
X195000000Y-128000000D03*
D19*
X195000000Y-133000000D03*
D24*
X121837500Y-70500000D03*
X143837500Y-70500000D03*
D25*
X147837500Y-59000000D03*
X120337500Y-59000000D03*
%LPD*%
M02*
