M48
; DRILL file {KiCad 8.0.3} date 2024-07-17T14:25:50-0600
; FORMAT={-:-/ absolute / metric / decimal}
; #@! TF.CreationDate,2024-07-17T14:25:50-06:00
; #@! TF.GenerationSoftware,Kicad,Pcbnew,8.0.3
; #@! TF.FileFunction,Plated,1,2,PTH
FMAT,2
METRIC
; #@! TA.AperFunction,Plated,PTH,ComponentDrill
T1C0.780
; #@! TA.AperFunction,Plated,PTH,ComponentDrill
T2C0.800
; #@! TA.AperFunction,Plated,PTH,ComponentDrill
T3C1.100
; #@! TA.AperFunction,Plated,PTH,ComponentDrill
T4C1.295
; #@! TA.AperFunction,Plated,PTH,ComponentDrill
T5C1.300
; #@! TA.AperFunction,Plated,PTH,ComponentDrill
T6C1.400
; #@! TA.AperFunction,Plated,PTH,ComponentDrill
T7C1.500
; #@! TA.AperFunction,Plated,PTH,ComponentDrill
T8C1.520
; #@! TA.AperFunction,Plated,PTH,ComponentDrill
T9C2.000
%
G90
G05
T1
X128.46Y-79.0
X131.0Y-79.0
X133.54Y-79.0
X135.6Y-139.19
X135.6Y-141.73
X135.6Y-144.27
X135.6Y-146.81
X136.08Y-79.0
X177.19Y-79.6
X179.73Y-79.6
X182.27Y-79.6
X184.81Y-79.6
T2
X143.546Y-92.9
X143.546Y-95.44
X143.546Y-97.98
X143.546Y-100.52
X143.546Y-103.06
X143.546Y-105.6
X143.546Y-108.14
X143.546Y-110.68
X143.546Y-113.22
X143.546Y-115.76
X143.546Y-118.3
X143.546Y-120.84
X143.546Y-123.38
X143.546Y-125.92
X143.546Y-128.46
X166.406Y-92.9
X166.406Y-95.44
X166.406Y-97.98
X166.406Y-100.52
X166.406Y-103.06
X166.406Y-105.6
X166.406Y-108.14
X166.406Y-110.68
X166.406Y-113.22
X166.406Y-115.76
X166.406Y-118.3
X166.406Y-120.84
X166.406Y-123.38
X166.406Y-125.92
X166.406Y-128.46
T4
X172.024Y-131.365
X174.031Y-125.371
X174.031Y-137.359
X186.223Y-125.371
X186.223Y-137.359
T5
X106.0Y-57.0
X108.0Y-91.0
X108.0Y-96.0
X108.0Y-101.0
X108.0Y-106.0
X108.0Y-111.0
X108.0Y-116.0
X108.0Y-121.0
X108.0Y-126.0
X111.0Y-57.0
X154.5Y-56.837
X159.5Y-56.837
X195.0Y-128.0
X195.0Y-133.0
T6
X195.0Y-94.0
X195.0Y-99.0
X195.0Y-104.0
X195.0Y-109.0
X195.0Y-114.0
X195.0Y-119.0
T7
X121.837Y-70.5
X143.838Y-70.5
X170.0Y-70.5
X192.0Y-70.5
T8
X105.46Y-133.0
X106.46Y-70.0
X110.54Y-133.0
X111.54Y-70.0
X154.46Y-70.0
X159.54Y-70.0
T3
G00X110.637Y-145.05
M15
G01X110.637Y-142.95
M16
G05
G00X116.938Y-145.05
M15
G01X116.938Y-142.95
M16
G05
T9
G00X120.337Y-58.15
M15
G01X120.337Y-59.85
M16
G05
G00X147.838Y-58.15
M15
G01X147.838Y-59.85
M16
G05
G00X168.5Y-58.15
M15
G01X168.5Y-59.85
M16
G05
G00X196.0Y-58.15
M15
G01X196.0Y-59.85
M16
G05
M30
